<svg width="142" height="143" viewBox="0 0 142 143" fill="none" xmlns="http://www.w3.org/2000/svg">
<path d="M28.2227 88.4549L28.3004 106.81C28.3782 111.866 32.4227 115.91 37.4782 115.91L55.756 115.833L41.9893 102.144L28.2227 88.4549ZM113.856 56.7993L113.778 38.4438C113.7 33.3882 109.656 29.3438 104.6 29.3438L86.2449 29.4215L100.089 43.1104L113.856 56.7993Z" stroke="#17AFC8" stroke-width="2" stroke-miterlimit="10"/>
<path d="M105.066 115.599C110.122 115.522 114.167 111.477 114.089 106.344L114.011 87.9883L86.7109 115.755L105.066 115.599Z" stroke="#17AFC8" stroke-width="2" stroke-miterlimit="10"/>
<path d="M26.7443 66.4456C23.2443 70.1011 23.2443 75.8567 26.822 79.4345L39.811 92.3456L39.5776 53.3789L26.7443 66.4456Z" stroke="#17AFC8" stroke-width="2" stroke-miterlimit="10"/>
<path d="M51.7876 104.167L64.7765 117.078C68.3543 120.578 74.1099 120.578 77.6876 117L90.521 103.933L71.1543 104.089L51.7876 104.167ZM90.2098 41.089L77.221 28.1779C73.6432 24.6779 67.8099 24.6778 64.3099 28.2556L51.4766 41.3223L70.8432 41.1668L90.2098 41.089Z" stroke="#17AFC8" stroke-width="2" stroke-miterlimit="10"/>
<path d="M115.176 65.8994L102.188 52.9883L102.421 91.9549L115.254 78.8883C118.754 75.2327 118.754 69.4772 115.176 65.8994Z" stroke="#17AFC8" stroke-width="2" stroke-miterlimit="10"/>
<path d="M37.0116 29.7337C31.956 29.8115 27.9116 33.8559 27.9894 38.9893L28.0671 57.3448L55.3672 29.5781L37.0116 29.7337Z" stroke="#17AFC8" stroke-width="2" stroke-miterlimit="10"/>
<path d="M105 1.5H37C17.1178 1.5 1 17.6177 1 37.5V105.5C1 125.382 17.1177 141.5 37 141.5H105C124.882 141.5 141 125.382 141 105.5V37.5C141 17.6178 124.882 1.5 105 1.5Z" stroke="#17AFC8" stroke-width="2" stroke-miterlimit="10"/>
</svg>
