<svg width="142" height="143" viewBox="0 0 142 143" fill="none" xmlns="http://www.w3.org/2000/svg">
<path d="M105 1.5H37C17.1178 1.5 1 17.6177 1 37.5V105.5C1 125.383 17.1177 141.5 37 141.5H105C124.882 141.5 141 125.383 141 105.5V37.5C141 17.6178 124.882 1.5 105 1.5Z" stroke="#17AFC8" stroke-width="2" stroke-miterlimit="10"/>
<path d="M22.7773 60.4543C22.7773 60.2987 22.8551 60.2209 22.8551 60.0654C23.1662 58.6654 24.4107 57.6543 25.8885 57.6543C28.7662 57.6543 31.644 57.6543 34.5218 57.6543C36.0773 57.6543 37.6329 57.6543 39.1884 57.6543C41.2884 57.7321 43.1551 58.5099 44.7107 59.9099C48.1329 63.021 48.5218 68.2321 45.644 71.8877C45.5663 71.9655 45.5662 72.0432 45.5662 72.0432C45.9551 72.5877 46.344 73.1321 46.6551 73.7543C49.2995 78.7321 46.4996 84.9544 41.0551 86.2766C40.5107 86.4322 39.8884 86.4321 39.344 86.5099C39.2662 86.5099 39.2662 86.5099 39.1884 86.5876C34.7551 86.5876 30.244 86.5876 25.8107 86.5876C25.7329 86.5876 25.7329 86.5877 25.6551 86.5099C24.3329 86.3543 23.4773 85.6544 23.0106 84.4099C22.9328 84.1766 22.9329 84.021 22.8551 83.7877C22.7773 76.0099 22.7773 68.2321 22.7773 60.4543ZM28.9996 69.0099C29.0773 69.0099 29.1551 69.0099 29.1551 69.0099C32.4218 69.0099 35.6884 69.0099 38.9551 69.0099C40.2773 69.0099 41.444 67.8432 41.444 66.4432C41.444 65.0432 40.2773 63.7988 38.7996 63.7988C35.6107 63.7988 32.4217 63.7988 29.2328 63.7988C29.1551 63.7988 29.0773 63.7988 28.9996 63.7988C28.9996 65.5877 28.9996 67.221 28.9996 69.0099ZM28.9996 80.3654C29.0773 80.3654 29.2329 80.3654 29.3107 80.3654C32.4218 80.3654 35.6107 80.3654 38.7218 80.3654C38.7996 80.3654 38.8774 80.3654 39.0329 80.3654C40.4329 80.2876 41.5996 79.121 41.5218 77.721C41.5218 76.321 40.3551 75.1543 38.8773 75.1543C35.6884 75.1543 32.4996 75.1543 29.3107 75.1543C29.2329 75.1543 29.1551 75.1543 28.9996 75.1543C28.9996 76.8654 28.9996 78.5765 28.9996 80.3654Z" stroke="#17AFC8" stroke-width="2" stroke-miterlimit="10"/>
<path d="M74.4985 86.5872C74.1874 86.5872 73.8764 86.5095 73.5652 86.5095C69.9875 86.1984 66.9542 84.7206 64.4653 82.1539C62.2875 79.9761 60.9653 77.3317 60.5764 74.2984C59.9542 69.865 61.1208 65.8983 64.0764 62.4761C66.4097 59.8316 69.2875 58.2761 72.7875 57.8094C76.2097 57.3427 79.4765 57.965 82.432 59.7538C83.5987 60.4538 84.143 61.465 84.0652 62.865C83.9875 64.1872 82.8209 65.4316 81.4209 65.5872C80.6431 65.665 79.9431 65.5094 79.2431 65.1205C75.8986 63.0983 71.7764 63.565 68.9764 66.2872C65.7875 69.3983 65.7097 74.6095 68.8208 77.7984C70.6097 79.6651 72.7875 80.5206 75.3542 80.365C78.6986 80.1317 81.032 78.4206 82.432 75.3873C82.432 75.3095 82.4319 75.3095 82.5097 75.2317C82.4319 75.2317 82.3542 75.2317 82.1987 75.2317C80.6431 75.2317 79.0097 75.2317 77.4541 75.2317C75.6652 75.2317 74.2652 73.8317 74.343 72.1206C74.343 70.4094 75.743 69.0872 77.4541 69.0872C80.4097 69.0872 83.2875 69.0872 86.2431 69.0872C87.9542 69.0872 89.3542 70.4094 89.3542 72.1206C89.1986 77.8761 86.632 82.2317 81.5764 85.0317C79.7097 86.0428 77.6098 86.5873 75.432 86.6651C75.3542 86.6651 75.3541 86.6651 75.2763 86.7428C74.9652 86.5873 74.7319 86.5872 74.4985 86.5872Z" stroke="#17AFC8" stroke-width="2" stroke-miterlimit="10"/>
<path d="M105.533 86.5876C105.222 86.5876 104.911 86.5098 104.599 86.5098C101.022 86.1987 97.9882 84.721 95.4216 82.0765C93.166 79.7432 91.8437 77.021 91.4548 73.8321C90.9882 69.3987 92.2326 65.5098 95.1882 62.2431C97.5993 59.6765 100.555 58.1209 104.055 57.732C108.488 57.2653 112.377 58.5098 115.644 61.5431C118.133 63.8765 119.61 66.7542 120.077 70.0987C121.166 77.9543 115.799 84.8765 108.488 86.2765C107.711 86.4321 107.01 86.432 106.233 86.5098C106.155 86.5098 106.155 86.5098 106.077 86.5876C105.999 86.5876 105.766 86.5876 105.533 86.5876ZM105.922 80.3653C110.433 80.3653 114.088 76.7098 114.166 72.2765C114.244 67.6876 110.588 63.7987 105.922 63.7987C101.333 63.7987 97.5994 67.4543 97.5994 71.9654C97.5994 76.632 101.255 80.3653 105.922 80.3653Z" stroke="#17AFC8" stroke-width="2" stroke-miterlimit="10"/>
<path d="M53.8853 86.5861C53.7297 86.5861 53.5741 86.5083 53.3408 86.5083C51.9408 86.1972 50.9297 84.9528 50.9297 83.5528C50.9297 75.9306 50.9297 68.3083 50.9297 60.7638C50.9297 59.0527 52.3297 57.7305 54.0408 57.7305C55.7519 57.7305 57.0742 59.1305 57.0742 60.7638C57.0742 68.3861 57.0742 76.0083 57.0742 83.5528C57.0742 85.1084 55.9075 86.4305 54.2742 86.5861C54.1964 86.5861 54.1963 86.5861 54.1186 86.6639C54.0408 86.5861 53.9631 86.5861 53.8853 86.5861Z" stroke="#17AFC8" stroke-width="2" stroke-miterlimit="10"/>
</svg>
