<svg width="142" height="143" viewBox="0 0 142 143" fill="none" xmlns="http://www.w3.org/2000/svg">
<path d="M105 1.5H37C17.1178 1.5 1 17.6177 1 37.5V105.5C1 125.382 17.1177 141.5 37 141.5H105C124.882 141.5 141 125.382 141 105.5V37.5C141 17.6178 124.882 1.5 105 1.5Z" stroke="#17AFC8" stroke-width="2" stroke-miterlimit="10"/>
<path d="M95.1129 29.5008V43.1119C95.1129 44.1231 94.3351 44.9008 93.324 44.9008H85.5462C80.1795 44.9008 79.1684 47.0008 79.1684 51.123V59.6786H92.7795C93.2462 59.6786 93.7129 59.8342 94.1018 60.2231C94.4129 60.5342 94.6462 61.0008 94.6462 61.5453V76.2453C94.6462 77.2564 93.8684 78.0342 92.8573 78.0342H79.1684V114.979H60.3462V78.0342H48.6795C47.6684 78.0342 46.8906 77.2564 46.8906 76.2453V61.5453C46.8906 60.5342 47.6684 59.7564 48.6795 59.7564H60.3462V49.6453C60.3462 36.3453 68.7462 27.712 81.7351 27.712H93.324C94.3351 27.6342 95.1129 28.4897 95.1129 29.5008Z" stroke="#17AFC8" stroke-width="2" stroke-miterlimit="10"/>
</svg>
