<svg width="142" height="143" viewBox="0 0 142 143" fill="none" xmlns="http://www.w3.org/2000/svg">
<path d="M40.2782 111.945C48.8693 111.945 55.8338 104.981 55.8338 96.3895C55.8338 87.7984 48.8693 80.834 40.2782 80.834C31.6871 80.834 24.7227 87.7984 24.7227 96.3895C24.7227 104.981 31.6871 111.945 40.2782 111.945Z" stroke="#17AFC8" stroke-width="2" stroke-miterlimit="10"/>
<path d="M101.724 111.945C110.315 111.945 117.279 104.981 117.279 96.3895C117.279 87.7984 110.315 80.834 101.724 80.834C93.1324 80.834 86.168 87.7984 86.168 96.3895C86.168 104.981 93.1324 111.945 101.724 111.945Z" stroke="#17AFC8" stroke-width="2" stroke-miterlimit="10"/>
<path d="M71.079 58.9002C79.6701 58.9002 86.6345 51.9357 86.6345 43.3446C86.6345 34.7535 79.6701 27.7891 71.079 27.7891C62.4879 27.7891 55.5234 34.7535 55.5234 43.3446C55.5234 51.9357 62.4879 58.9002 71.079 58.9002Z" stroke="#17AFC8" stroke-width="2" stroke-miterlimit="10"/>
<path d="M71.0002 74.3773L57.6224 51.1995C53.3446 43.8106 55.9113 34.3217 63.3002 29.9662C70.6891 25.6884 80.178 28.2551 84.5335 35.6439L115.178 88.6884C119.456 96.0773 116.889 105.566 109.5 109.922C102.111 114.199 92.6224 111.633 88.2668 104.244L71.0002 74.3773Z" stroke="#17AFC8" stroke-width="2" stroke-miterlimit="10"/>
<path d="M71.0775 74.4557L53.8109 104.245C49.5331 111.633 40.0442 114.2 32.5775 109.922C25.1886 105.645 22.622 96.1557 26.8998 88.689L57.5442 35.6445" stroke="#17AFC8" stroke-width="2" stroke-miterlimit="10"/>
<path d="M105 1.5H37C17.1178 1.5 1 17.6177 1 37.5V105.5C1 125.382 17.1177 141.5 37 141.5H105C124.882 141.5 141 125.382 141 105.5V37.5C141 17.6178 124.882 1.5 105 1.5Z" stroke="#17AFC8" stroke-width="2" stroke-miterlimit="10"/>
</svg>
