<svg width="142" height="143" viewBox="0 0 142 143" fill="none" xmlns="http://www.w3.org/2000/svg">
<path d="M85.6207 112.565H58.2428C54.5095 112.565 51.3984 109.532 51.3984 105.72V40.3093C51.3984 36.5759 54.4317 33.4648 58.2428 33.4648H85.6207C89.354 33.4648 92.4651 36.4982 92.4651 40.3093V105.72C92.3873 109.532 89.354 112.565 85.6207 112.565Z" stroke="#17AFC8" stroke-width="2" stroke-miterlimit="10"/>
<path d="M81.6561 38.1319H62.1338C60.3449 38.1319 58.8672 36.6541 58.8672 34.8652V33.543H84.845V34.8652C84.9228 36.7318 83.445 38.1319 81.6561 38.1319Z" stroke="#17AFC8" stroke-width="2" stroke-miterlimit="10"/>
<path d="M39.5781 86.198L58.6337 70.5646L81.1115 79.5868L102.889 61.8535" stroke="#17AFC8" stroke-width="2" stroke-miterlimit="10"/>
<path d="M39.1115 89.5432C40.7867 89.5432 42.1448 88.1852 42.1448 86.5099C42.1448 84.8346 40.7867 83.4766 39.1115 83.4766C37.4362 83.4766 36.0781 84.8346 36.0781 86.5099C36.0781 88.1852 37.4362 89.5432 39.1115 89.5432Z" fill="#17AFC8"/>
<path d="M58.713 74.0647C60.3883 74.0647 61.7463 72.7066 61.7463 71.0314C61.7463 69.3561 60.3883 67.998 58.713 67.998C57.0378 67.998 55.6797 69.3561 55.6797 71.0314C55.6797 72.7066 57.0378 74.0647 58.713 74.0647Z" fill="#17AFC8"/>
<path d="M80.9552 81.844C82.6305 81.844 83.9886 80.4859 83.9886 78.8107C83.9886 77.1354 82.6305 75.7773 80.9552 75.7773C79.28 75.7773 77.9219 77.1354 77.9219 78.8107C77.9219 80.4859 79.28 81.844 80.9552 81.844Z" fill="#17AFC8"/>
<path d="M102.889 65.1213C104.564 65.1213 105.922 63.7633 105.922 62.088C105.922 60.4128 104.564 59.0547 102.889 59.0547C101.214 59.0547 99.8555 60.4128 99.8555 62.088C99.8555 63.7633 101.214 65.1213 102.889 65.1213Z" fill="#17AFC8"/>
<path d="M105 1.5H37C17.1178 1.5 1 17.6177 1 37.5V105.5C1 125.382 17.1177 141.5 37 141.5H105C124.882 141.5 141 125.382 141 105.5V37.5C141 17.6178 124.882 1.5 105 1.5Z" stroke="#17AFC8" stroke-width="2" stroke-miterlimit="10"/>
</svg>
