<svg width="142" height="143" viewBox="0 0 142 143" fill="none" xmlns="http://www.w3.org/2000/svg">
<path d="M105 1.5H37C17.1178 1.5 1 17.6177 1 37.5V105.5C1 125.382 17.1177 141.5 37 141.5H105C124.882 141.5 141 125.382 141 105.5V37.5C141 17.6178 124.882 1.5 105 1.5Z" stroke="#17AFC8" stroke-width="2" stroke-miterlimit="10"/>
<path d="M27.0547 100.121V44.043H70.2991C81.888 44.043 91.2214 53.3763 91.2214 64.9652V100.121H77.1436V65.4319C77.1436 59.7541 72.5547 55.1652 66.8769 55.1652H41.1325V100.121H27.0547Z" stroke="#17AFC8" stroke-width="2" stroke-miterlimit="10"/>
<path d="M66.1793 66.1328H52.1016V100.122H66.1793V66.1328Z" stroke="#17AFC8" stroke-width="2" stroke-miterlimit="10"/>
<path d="M77.1445 66.2871V100.276H91.1445V66.2871" stroke="#17AFC8" stroke-width="2" stroke-miterlimit="10"/>
<path d="M114.946 44.043H101.023V100.121H114.946V44.043Z" stroke="#17AFC8" stroke-width="2" stroke-miterlimit="10"/>
</svg>
