<svg width="142" height="143" viewBox="0 0 142 143" fill="none" xmlns="http://www.w3.org/2000/svg">
<path d="M19.6641 49.8789H29.1529L40.5862 76.79C40.5862 76.79 43.464 69.9456 44.864 66.7567C46.8862 62.09 52.0974 49.8789 52.0974 49.8789H61.5085V90.2456H54.2752L54.0418 64.2678L42.9974 90.2456H38.0195L26.6641 63.8789V90.1678H19.6641V49.8789Z" stroke="#17AFC8" stroke-width="2" stroke-miterlimit="10"/>
<path d="M107.24 102.148C107.24 102.148 102.885 102.303 97.6738 100.436C96.2738 99.892 92.8515 97.9475 92.5404 97.7142L95.2626 91.5697C95.2626 91.5697 98.5293 93.1253 100.163 93.7475C103.818 95.0698 107.629 95.692 111.363 94.1364C114.085 92.9698 115.329 90.3253 114.863 87.2142C114.007 87.6809 113.229 88.2253 112.374 88.692C104.518 92.7364 94.9515 89.0031 91.9181 80.6031C89.6626 74.3809 90.596 68.5475 95.1071 63.6475C98.4515 59.992 102.807 58.4364 107.863 59.292C109.107 59.5253 110.351 59.8364 111.518 60.3031C112.685 60.7697 114.94 62.1697 114.94 62.1697V59.9142C114.94 59.9142 119.763 59.9142 122.329 59.9142C122.329 60.4586 122.329 60.9253 122.329 61.4697C122.329 70.6475 122.329 79.8253 122.329 89.0031C122.329 91.8809 121.474 94.4475 119.996 96.4698C118.052 99.1142 115.252 100.203 113.929 100.748C111.052 101.992 108.718 102.07 107.24 102.148ZM114.707 74.3031C114.707 73.5253 114.474 71.6586 113.152 69.8697C112.918 69.4809 111.518 67.6142 108.874 66.7586C106.152 65.9031 102.652 66.292 100.163 68.7809C97.596 71.3475 97.7515 74.692 97.7515 75.0809C97.907 77.7253 99.2292 79.4364 99.6959 79.9809C102.185 82.8586 105.763 82.9364 106.307 82.9364C107.24 82.9364 110.274 82.7809 112.529 80.2142C114.785 77.7253 114.785 74.9253 114.707 74.3031Z" stroke="#17AFC8" stroke-width="2" stroke-miterlimit="10"/>
<path d="M76.9864 66.3689C76.9864 66.3689 76.9864 76.4023 76.9864 80.68C76.9864 83.5578 78.2309 84.5689 81.1087 83.9467C82.1976 83.7134 84.5308 83.1689 84.5308 83.1689L83.442 89.5467C83.442 89.5467 82.7421 89.8578 81.3421 90.1689C78.6976 90.7912 76.0531 90.7912 73.4864 89.3912C71.1531 88.0689 69.7532 86.0467 69.6754 83.48C69.5198 75.7023 69.5975 59.7578 69.5975 59.7578H86.3976L84.7642 66.2911L76.9864 66.3689Z" stroke="#17AFC8" stroke-width="2" stroke-miterlimit="10"/>
<path d="M76.909 47.5469H69.6758V54.7802H76.909V47.5469Z" stroke="#17AFC8" stroke-width="2" stroke-miterlimit="10"/>
<path d="M105 1.5H37C17.1178 1.5 1 17.6177 1 37.5V105.5C1 125.382 17.1177 141.5 37 141.5H105C124.882 141.5 141 125.382 141 105.5V37.5C141 17.6178 124.882 1.5 105 1.5Z" stroke="#17AFC8" stroke-width="2" stroke-miterlimit="10"/>
</svg>
