<svg width="142" height="143" viewBox="0 0 142 143" fill="none" xmlns="http://www.w3.org/2000/svg">
<path d="M105 1.5H37C17.1178 1.5 1 17.6177 1 37.5V105.5C1 125.382 17.1177 141.5 37 141.5H105C124.882 141.5 141 125.382 141 105.5V37.5C141 17.6178 124.882 1.5 105 1.5Z" stroke="#17AFC8" stroke-width="2" stroke-miterlimit="10"/>
<path d="M34.8338 87.6766C29.5449 87.6766 25.2672 86.0433 21.9227 82.8544C18.5783 79.6655 16.8672 75.5433 16.8672 70.4877C16.8672 65.5099 18.5783 61.3877 21.9227 58.121C25.2672 54.9321 29.6227 53.2988 34.8338 53.2988C40.0449 53.2988 44.3227 54.9321 47.7449 58.121C51.0894 61.3099 52.8005 65.4322 52.8005 70.4877C52.8005 75.4655 51.0894 79.5877 47.7449 82.8544C44.4005 86.0433 40.0449 87.6766 34.8338 87.6766ZM28.6894 76.7877C30.3227 78.421 32.3449 79.2766 34.8338 79.2766C37.3227 79.2766 39.345 78.421 40.9783 76.7877C42.6116 75.1544 43.3894 73.0544 43.3894 70.4877C43.3894 67.921 42.6116 65.821 40.9783 64.1877C39.345 62.5544 37.3227 61.6988 34.8338 61.6988C32.3449 61.6988 30.3227 62.5544 28.6894 64.1877C27.056 65.821 26.2005 67.921 26.2005 70.4877C26.2005 73.0544 27.056 75.1544 28.6894 76.7877Z" stroke="#17AFC8" stroke-width="2" stroke-miterlimit="10"/>
<path d="M66.3347 79.0432H78.6235V86.8209H57.3125V54.1543H78.2346V61.9321H66.2569V66.7543H76.9903V74.1432H66.2569V79.0432H66.3347Z" stroke="#17AFC8" stroke-width="2" stroke-miterlimit="10"/>
<path d="M125.214 86.8209H116.191L113.625 67.9987L104.991 86.8209H102.347L93.6357 67.9987L91.1468 86.8209H82.0469L87.0246 54.1543H95.969L103.669 71.9654L111.447 54.1543H120.469L125.214 86.8209Z" stroke="#17AFC8" stroke-width="2" stroke-miterlimit="10"/>
</svg>
