<svg width="142" height="143" viewBox="0 0 142 143" fill="none" xmlns="http://www.w3.org/2000/svg">
<path d="M72.8676 34.8672C51.401 34.8672 40.5898 50.2672 40.5898 63.1006C40.5898 70.8784 43.5454 77.8006 49.8454 80.3672C50.6232 80.7561 51.5565 80.4451 51.9454 79.7451C52.0232 79.5895 52.1009 79.434 52.1009 79.2784C52.3343 78.5006 52.801 76.4784 53.0343 75.6228C53.3454 74.4561 53.1898 74.0673 52.4121 73.134C50.6232 70.9562 49.4565 68.2339 49.4565 64.2673C49.4565 52.8339 58.0121 42.645 71.701 42.645C83.8343 42.645 90.5232 50.0339 90.5232 59.9895C90.5232 73.0562 84.7676 84.0229 76.2121 84.0229C71.4676 84.0229 67.9676 80.1339 69.0565 75.3117C70.3787 69.5561 73.0232 63.4117 73.0232 59.2895C73.0232 55.5561 71.001 52.5228 66.9565 52.5228C62.1343 52.5228 58.2454 57.5006 58.2454 64.1895C58.2454 66.6784 58.7121 69.0895 59.6454 71.345C59.6454 71.345 54.6676 92.2673 53.8121 96.0007C52.101 103.312 53.5787 112.256 53.6565 113.19C53.7343 113.501 54.0454 113.734 54.3565 113.656C54.5121 113.656 54.6676 113.578 54.7454 113.423C55.2121 112.801 60.9676 105.723 62.9121 98.645C63.4565 96.6228 66.1009 86.2006 66.1009 86.2006C67.6565 89.2339 72.2454 91.8006 77.1454 91.8006C91.6898 91.8006 101.49 78.5784 101.49 60.845C101.412 47.3117 90.0565 34.8672 72.8676 34.8672Z" stroke="#17AFC8" stroke-width="2" stroke-miterlimit="10"/>
<path d="M105 1.5H37C17.1178 1.5 1 17.6177 1 37.5V105.5C1 125.382 17.1177 141.5 37 141.5H105C124.882 141.5 141 125.382 141 105.5V37.5C141 17.6177 124.882 1.5 105 1.5Z" stroke="#17AFC8" stroke-width="2" stroke-miterlimit="10"/>
</svg>
