<svg width="142" height="143" viewBox="0 0 142 143" fill="none" xmlns="http://www.w3.org/2000/svg">
<path d="M55.2109 91.5687C57.4664 92.9687 63.2997 96.1577 71.3886 96.0799C79.0886 96.0021 84.6108 92.9687 86.9441 91.5687M72.0109 53.9242L76.3664 32.6909L92.0775 35.6464M114.011 69.0131C114.011 63.802 109.811 59.602 104.6 59.602C102.033 59.602 99.7775 60.6132 98.0664 62.2465C91.6109 57.5798 82.8219 54.6242 72.9441 54.2353H69.5219C59.4886 54.5465 50.5442 57.5021 44.0109 62.1687C42.2997 60.5354 40.0442 59.5243 37.4775 59.5243C32.2664 59.5243 28.0664 63.7243 28.0664 68.9354C28.0664 72.7465 30.3219 76.0132 33.5886 77.4909C33.4331 78.4243 33.3552 79.3576 33.3552 80.3687C33.3552 94.8354 50.1553 106.58 70.9219 106.58C91.6886 106.58 108.489 94.8354 108.489 80.3687C108.489 79.4354 108.411 78.502 108.255 77.5687C111.677 76.1687 114.011 72.8243 114.011 69.0131ZM49.5331 75.702C49.5331 71.9687 52.5664 69.0131 56.2219 69.0131C59.9553 69.0131 62.9108 72.0465 62.9108 75.702C62.9108 79.4354 59.8775 82.391 56.2219 82.391C52.5664 82.4688 49.5331 79.4354 49.5331 75.702ZM85.7775 82.4687C82.0441 82.4687 79.0886 79.4354 79.0886 75.7799C79.0886 72.0465 82.1219 69.0909 85.7775 69.0909C89.433 69.0909 92.4664 72.1243 92.4664 75.7799C92.4664 79.4354 89.5108 82.4687 85.7775 82.4687ZM104.444 36.8909C104.444 40.2354 101.722 42.9575 98.3775 42.9575C95.0331 42.9575 92.3108 40.2354 92.3108 36.8909C92.3108 33.5465 95.0331 30.8242 98.3775 30.8242C101.722 30.8242 104.444 33.5465 104.444 36.8909Z" stroke="#17AFC8" stroke-width="2" stroke-miterlimit="10" stroke-linecap="round" stroke-linejoin="round"/>
<path d="M105 1.5H37C17.1178 1.5 1 17.6177 1 37.5V105.5C1 125.382 17.1177 141.5 37 141.5H105C124.882 141.5 141 125.382 141 105.5V37.5C141 17.6177 124.882 1.5 105 1.5Z" stroke="#17AFC8" stroke-width="2" stroke-miterlimit="10"/>
</svg>
