<svg width="142" height="143" viewBox="0 0 142 143" fill="none" xmlns="http://www.w3.org/2000/svg">
<path d="M74.4242 34.3196C79.8686 27.1641 87.4131 27.1641 87.4131 27.1641C87.4131 27.1641 88.502 33.853 83.1353 40.3863C77.3798 47.3085 70.8464 46.1418 70.8464 46.1418C70.8464 46.1418 69.602 40.6196 74.4242 34.3196ZM86.3242 109.453C81.502 109.453 77.7687 106.186 72.7131 106.186C67.502 106.186 62.3687 109.531 59.0242 109.531C49.4575 109.531 37.3242 88.7641 37.3242 72.1196C37.3242 55.7085 47.5909 47.0752 57.1576 47.0752C63.3798 47.0752 68.2798 50.653 71.4687 50.653C74.2687 50.653 79.402 46.8418 86.1687 46.8418C97.7575 46.8418 102.346 55.0863 102.346 55.0863C102.346 55.0863 93.402 59.6752 93.402 70.7196C93.402 83.2418 104.524 87.5196 104.524 87.5196C104.524 87.5196 96.8242 109.453 86.3242 109.453Z" stroke="#17AFC8" stroke-width="2" stroke-miterlimit="10"/>
<path d="M105 1.5H37C17.1178 1.5 1 17.6177 1 37.5V105.5C1 125.382 17.1177 141.5 37 141.5H105C124.882 141.5 141 125.382 141 105.5V37.5C141 17.6178 124.882 1.5 105 1.5Z" stroke="#17AFC8" stroke-width="2" stroke-miterlimit="10"/>
</svg>
