<svg width="142" height="143" viewBox="0 0 142 143" fill="none" xmlns="http://www.w3.org/2000/svg">
<path d="M105 1.5H37C17.1178 1.5 1 17.6177 1 37.5V105.5C1 125.382 17.1177 141.5 37 141.5H105C124.882 141.5 141 125.382 141 105.5V37.5C141 17.6178 124.882 1.5 105 1.5Z" stroke="#17AFC8" stroke-width="2" stroke-miterlimit="10"/>
<path d="M114.008 92.7344C113.463 92.6566 107.319 92.1899 100.863 83.8677C94.4853 75.6232 96.9743 74.1455 97.2855 73.3677C97.5966 72.5899 101.641 71.4233 104.285 70.4121C108.252 68.8566 108.097 66.1344 107.397 64.5788C106.697 63.0233 104.13 61.701 100.552 63.2566C97.1299 64.7344 95.8076 63.5677 95.8076 63.5677C95.8076 63.5677 96.6631 50.9677 96.1965 48.4788C92.2298 26.2343 70.9187 28.1011 70.9187 28.1011C70.9187 28.1011 49.6853 26.2343 45.6409 48.4788C45.1742 50.9677 46.0298 63.5677 46.0298 63.5677C46.0298 63.5677 44.7077 64.7344 41.2855 63.2566C37.7077 61.701 35.0632 63.101 34.441 64.5788C33.8188 66.0566 33.5854 68.8566 37.5521 70.4121C40.1965 71.4233 44.241 72.5899 44.5521 73.3677C44.8632 74.1455 47.352 75.6232 40.9742 83.8677C34.5965 92.1121 28.3743 92.6566 27.8299 92.7344C27.2854 92.8121 24.7188 92.8899 24.7188 94.6011C24.7188 96.3122 25.5742 99.1899 35.9187 100.979C37.552 101.29 37.3966 102.457 37.3966 102.457C37.3966 102.457 37.3966 106.579 39.5744 106.968C41.7522 107.357 45.5632 106.034 48.441 106.345C51.3188 106.657 52.9522 106.268 58.6299 110.779C64.3077 115.29 70.841 115.057 70.841 115.057C70.841 115.057 77.3743 115.29 83.0521 110.779C88.6521 106.268 90.3633 106.657 93.241 106.345C96.1188 106.034 99.9299 107.357 102.185 106.968C104.441 106.579 104.363 102.457 104.363 102.457C104.363 102.457 104.208 101.29 105.841 100.979C116.185 99.1899 117.041 96.3122 117.041 94.6011C117.119 92.8122 114.552 92.8121 114.008 92.7344Z" stroke="#17AFC8" stroke-width="2" stroke-miterlimit="10"/>
</svg>
