<svg width="142" height="143" viewBox="0 0 142 143" fill="none" xmlns="http://www.w3.org/2000/svg">
<path fill-rule="evenodd" clip-rule="evenodd" d="M87.1783 30.5898C88.5006 42.2565 95.0339 49.2565 106.467 50.0343V63.1788C99.8561 63.801 94.1006 61.701 87.4117 57.5788V82.2344C87.4117 113.501 53.345 123.301 39.5783 100.901C30.7894 86.5122 36.1561 61.1565 64.3895 60.1454V73.9899C62.2117 74.301 59.9561 74.8455 57.8561 75.6232C51.5561 77.7233 47.9784 81.7677 48.9895 88.7677C50.9339 102.223 75.5895 106.19 73.5672 79.901V30.6677L87.1783 30.5898Z" stroke="#17AFC8" stroke-width="2" stroke-miterlimit="10"/>
<path d="M105 1.5H37C17.1178 1.5 1 17.6177 1 37.5V105.5C1 125.382 17.1177 141.5 37 141.5H105C124.882 141.5 141 125.382 141 105.5V37.5C141 17.6178 124.882 1.5 105 1.5Z" stroke="#17AFC8" stroke-width="2" stroke-miterlimit="10"/>
</svg>
