<svg width="142" height="143" viewBox="0 0 142 143" fill="none" xmlns="http://www.w3.org/2000/svg">
<path d="M75.2797 67.9213L91.924 48.5547H87.9575L73.4907 65.3547L61.9797 48.5547H48.6797L66.1018 73.988L48.6797 94.288H52.6463L67.8908 76.5547L80.1018 94.288H93.4019L75.2797 67.9213ZM69.9131 74.1435L68.1241 71.5769L54.0463 51.4325H60.113L71.4686 67.688L73.2574 70.2547L88.0351 91.4102H81.9686L69.9131 74.1435Z" fill="#17AFC8"/>
<path d="M105 1.5H37C17.1178 1.5 1 17.6177 1 37.5V105.5C1 125.382 17.1177 141.5 37 141.5H105C124.882 141.5 141 125.382 141 105.5V37.5C141 17.6178 124.882 1.5 105 1.5Z" stroke="#17AFC8" stroke-width="2" stroke-miterlimit="10"/>
</svg>
