<svg width="142" height="143" viewBox="0 0 142 143" fill="none" xmlns="http://www.w3.org/2000/svg">
<path fill-rule="evenodd" clip-rule="evenodd" d="M92.3848 96.3094L78.2293 72.3538L92.3848 48.3982L99.1515 72.3538L92.3848 96.3094ZM60.6515 93.8983L42.6849 76.165H71.2293L85.3848 100.121L60.6515 93.8983ZM60.6515 50.576L85.3848 44.3538L71.2293 68.3093H42.8404L60.6515 50.576ZM97.1293 32.6094L64.7737 41.0093L59.9515 49.176H50.1515L26.3516 72.3538L50.1515 95.5316H59.9515L64.7737 103.698L97.1293 112.098L105.685 80.5205L100.707 72.3538L105.685 64.1872L97.1293 32.6094Z" stroke="#17AFC8" stroke-width="2" stroke-miterlimit="10"/>
<path d="M105 1.5H37C17.1178 1.5 1 17.6177 1 37.5V105.5C1 125.382 17.1177 141.5 37 141.5H105C124.882 141.5 141 125.382 141 105.5V37.5C141 17.6177 124.882 1.5 105 1.5Z" stroke="#17AFC8" stroke-width="2" stroke-miterlimit="10"/>
</svg>
