<svg width="44" height="45" viewBox="0 0 44 45" fill="none" xmlns="http://www.w3.org/2000/svg">
<g clip-path="url(#clip0_2003_344)">
<rect y="0.376953" width="44" height="44" rx="6" fill="#00263C"/>
<g filter="url(#filter0_d_2003_344)">
<path d="M23.3125 26.3145C23.7958 26.3145 24.1875 25.9227 24.1875 25.4395C24.1875 24.9562 23.7958 24.5645 23.3125 24.5645C22.8292 24.5645 22.4375 24.9562 22.4375 25.4395C22.4375 25.9227 22.8292 26.3145 23.3125 26.3145Z" fill="#17AFC8"/>
<path d="M26.8125 26.3145C27.2958 26.3145 27.6875 25.9227 27.6875 25.4395C27.6875 24.9562 27.2958 24.5645 26.8125 24.5645C26.3292 24.5645 25.9375 24.9562 25.9375 25.4395C25.9375 25.9227 26.3292 26.3145 26.8125 26.3145Z" fill="#17AFC8"/>
<path d="M31.1875 25.4395C31.1875 25.9227 30.7958 26.3145 30.3125 26.3145C29.8292 26.3145 29.4375 25.9227 29.4375 25.4395C29.4375 24.9562 29.8292 24.5645 30.3125 24.5645C30.7958 24.5645 31.1875 24.9562 31.1875 25.4395Z" fill="#17AFC8"/>
<path fill-rule="evenodd" clip-rule="evenodd" d="M22.875 9.25195C25.2913 9.25195 27.25 11.2107 27.25 13.627V21.0645H32.5C33.9497 21.0645 35.125 22.2397 35.125 23.6895V27.1895C35.125 28.6392 33.9497 29.8145 32.5 29.8145H27.25V31.127C27.25 33.5432 25.2913 35.502 22.875 35.502H13.25C10.8338 35.502 8.875 33.5432 8.875 31.127V13.627C8.875 11.2107 10.8338 9.25195 13.25 9.25195H22.875ZM25.5 13.627V21.0645H21.125C19.6753 21.0645 18.5 22.2397 18.5 23.6895V27.1895C18.5 28.6392 19.6753 29.8145 21.125 29.8145H25.5V31.127C25.5 32.5767 24.3247 33.752 22.875 33.752H13.25C11.8003 33.752 10.625 32.5767 10.625 31.127V13.627C10.625 12.1772 11.8003 11.002 13.25 11.002H13.6875V11.877C13.6875 12.8434 14.471 13.627 15.4375 13.627H20.6875C21.654 13.627 22.4375 12.8434 22.4375 11.877V11.002H22.875C24.3247 11.002 25.5 12.1772 25.5 13.627ZM15.4375 11.002H20.6875V11.877H15.4375V11.002ZM32.5 28.0645C32.9833 28.0645 33.375 27.6727 33.375 27.1895V23.6895C33.375 23.2062 32.9833 22.8145 32.5 22.8145H21.125C20.6417 22.8145 20.25 23.2062 20.25 23.6895V27.1895C20.25 27.6727 20.6417 28.0645 21.125 28.0645H32.5Z" fill="#17AFC8"/>
</g>
</g>
<defs>
<filter id="filter0_d_2003_344" x="-11.9647" y="-9.01164" width="67.9294" height="67.9294" filterUnits="userSpaceOnUse" color-interpolation-filters="sRGB">
<feFlood flood-opacity="0" result="BackgroundImageFix"/>
<feColorMatrix in="SourceAlpha" type="matrix" values="0 0 0 0 0 0 0 0 0 0 0 0 0 0 0 0 0 0 127 0" result="hardAlpha"/>
<feOffset dy="2.57609"/>
<feGaussianBlur stdDeviation="9.98234"/>
<feColorMatrix type="matrix" values="0 0 0 0 0.0901961 0 0 0 0 0.686275 0 0 0 0 0.784314 0 0 0 1 0"/>
<feBlend mode="normal" in2="BackgroundImageFix" result="effect1_dropShadow_2003_344"/>
<feBlend mode="normal" in="SourceGraphic" in2="effect1_dropShadow_2003_344" result="shape"/>
</filter>
<clipPath id="clip0_2003_344">
<rect y="0.376953" width="44" height="44" rx="6" fill="white"/>
</clipPath>
</defs>
</svg>
