<svg xmlns="http://www.w3.org/2000/svg" width="44" height="45" viewBox="0 0 44 45" fill="none">
<g clip-path="url(#clip0_2003_433)">
<rect y="0.458984" width="44" height="44" rx="6" fill="#00263C"/>
<g filter="url(#filter0_d_2003_433)">
<path fill-rule="evenodd" clip-rule="evenodd" d="M18.0625 14.1465H17.136C16.8214 16.1301 15.1034 17.6465 13.0312 17.6465C10.7358 17.6465 8.875 15.7857 8.875 13.4902C8.875 11.1948 10.7358 9.33398 13.0312 9.33398C14.9482 9.33398 16.562 10.6317 17.0421 12.3965H18.0625C20.4787 12.3965 22.4375 14.3553 22.4375 16.7715V21.584H27.25V21.1465C27.25 19.6967 28.4253 18.5215 29.875 18.5215H32.5C33.9497 18.5215 35.125 19.6967 35.125 21.1465V23.7715C35.125 25.2212 33.9497 26.3965 32.5 26.3965H29.875C28.4253 26.3965 27.25 25.2212 27.25 23.7715V23.334H22.4375V28.584C22.4375 31.0002 20.4788 32.959 18.0625 32.959H17.0421C16.562 34.7238 14.9482 36.0215 13.0312 36.0215C10.7358 36.0215 8.875 34.1607 8.875 31.8652C8.875 29.5698 10.7358 27.709 13.0312 27.709C15.1034 27.709 16.8214 29.2254 17.136 31.209H18.0625C19.5122 31.209 20.6875 30.0337 20.6875 28.584V23.334H17.136C16.8214 25.3176 15.1034 26.834 13.0312 26.834C10.7358 26.834 8.875 24.9732 8.875 22.6777C8.875 20.3823 10.7358 18.5215 13.0312 18.5215C14.9482 18.5215 16.562 19.8192 17.0421 21.584H20.6875V16.7715C20.6875 15.3217 19.5122 14.1465 18.0625 14.1465ZM29 21.1465C29 20.6632 29.3917 20.2715 29.875 20.2715H32.5C32.9832 20.2715 33.375 20.6632 33.375 21.1465V23.7715C33.375 24.2547 32.9832 24.6465 32.5 24.6465H29.875C29.3917 24.6465 29 24.2547 29 23.7715V21.1465ZM13.0312 11.084C14.3602 11.084 15.4375 12.1613 15.4375 13.4902C15.4375 14.8192 14.3602 15.8965 13.0312 15.8965C11.7023 15.8965 10.625 14.8192 10.625 13.4902C10.625 12.1613 11.7023 11.084 13.0312 11.084ZM13.0312 29.459C14.3602 29.459 15.4375 30.5363 15.4375 31.8652C15.4375 33.1942 14.3602 34.2715 13.0312 34.2715C11.7023 34.2715 10.625 33.1942 10.625 31.8652C10.625 30.5363 11.7023 29.459 13.0312 29.459ZM15.4375 22.6777C15.4375 21.3488 14.3602 20.2715 13.0312 20.2715C11.7023 20.2715 10.625 21.3488 10.625 22.6777C10.625 24.0067 11.7023 25.084 13.0312 25.084C14.3602 25.084 15.4375 24.0067 15.4375 22.6777Z" fill="#17AFC8"/>
</g>
</g>
<defs>
<filter id="filter0_d_2003_433" x="-11.9647" y="-8.92961" width="67.9294" height="67.9294" filterUnits="userSpaceOnUse" color-interpolation-filters="sRGB">
<feFlood flood-opacity="0" result="BackgroundImageFix"/>
<feColorMatrix in="SourceAlpha" type="matrix" values="0 0 0 0 0 0 0 0 0 0 0 0 0 0 0 0 0 0 127 0" result="hardAlpha"/>
<feOffset dy="2.57609"/>
<feGaussianBlur stdDeviation="9.98234"/>
<feColorMatrix type="matrix" values="0 0 0 0 0.0901961 0 0 0 0 0.686275 0 0 0 0 0.784314 0 0 0 1 0"/>
<feBlend mode="normal" in2="BackgroundImageFix" result="effect1_dropShadow_2003_433"/>
<feBlend mode="normal" in="SourceGraphic" in2="effect1_dropShadow_2003_433" result="shape"/>
</filter>
<clipPath id="clip0_2003_433">
<rect y="0.458984" width="44" height="44" rx="6" fill="white"/>
</clipPath>
<clipPath id="clip1_2003_433">
<rect width="28" height="28" fill="white" transform="translate(8 8.45898)"/>
</clipPath>
</defs>
</svg>