<svg width="44" height="45" viewBox="0 0 44 45" fill="none" xmlns="http://www.w3.org/2000/svg">
<g clip-path="url(#clip0_2003_413)">
<rect y="0.835938" width="44" height="44" rx="6" fill="#00263C"/>
<g filter="url(#filter0_d_2003_413)">
<path fill-rule="evenodd" clip-rule="evenodd" d="M10.2183 10.3557C10.3222 9.97503 10.6679 9.71094 11.0625 9.71094H32.9375C33.3321 9.71094 33.6778 9.97503 33.7817 10.3557L35.0942 15.1682C35.1146 15.2433 35.125 15.3207 35.125 15.3984C35.125 17.5731 33.3621 19.3359 31.1875 19.3359C29.9506 19.3359 28.8469 18.7656 28.125 17.8735C27.4031 18.7656 26.2994 19.3359 25.0625 19.3359C23.8256 19.3359 22.7219 18.7656 22 17.8735C21.2781 18.7656 20.1744 19.3359 18.9375 19.3359C17.7006 19.3359 16.5969 18.7656 15.875 17.8735C15.1531 18.7656 14.0494 19.3359 12.8125 19.3359C10.6379 19.3359 8.875 17.5731 8.875 15.3984C8.875 15.3207 8.88537 15.2433 8.90583 15.1682L10.2183 10.3557ZM16.75 15.3984C16.75 16.6065 17.7294 17.5859 18.9375 17.5859C20.1456 17.5859 21.125 16.6065 21.125 15.3984C21.125 14.9152 21.5167 14.5234 22 14.5234C22.4833 14.5234 22.875 14.9152 22.875 15.3984C22.875 16.6065 23.8544 17.5859 25.0625 17.5859C26.2706 17.5859 27.25 16.6065 27.25 15.3984C27.25 14.9152 27.6417 14.5234 28.125 14.5234C28.6083 14.5234 29 14.9152 29 15.3984C29 16.6065 29.9794 17.5859 31.1875 17.5859C32.3595 17.5859 33.3163 16.6642 33.3724 15.5061L32.2692 11.4609H11.7308L10.6276 15.5061C10.6837 16.6642 11.6405 17.5859 12.8125 17.5859C14.0206 17.5859 15 16.6065 15 15.3984C15 14.9152 15.3917 14.5234 15.875 14.5234C16.3583 14.5234 16.75 14.9152 16.75 15.3984Z" fill="#17AFC8"/>
<path d="M11.0625 21.0859C11.5457 21.0859 11.9375 21.4777 11.9375 21.9609V31.5859C11.9375 33.0357 13.1128 34.2109 14.5625 34.2109H29.4375C30.8872 34.2109 32.0625 33.0357 32.0625 31.5859V21.9609C32.0625 21.4777 32.4542 21.0859 32.9375 21.0859C33.4208 21.0859 33.8125 21.4777 33.8125 21.9609V31.5859C33.8125 34.0022 31.8537 35.9609 29.4375 35.9609H14.5625C12.1463 35.9609 10.1875 34.0022 10.1875 31.5859V21.9609C10.1875 21.4777 10.5793 21.0859 11.0625 21.0859Z" fill="#17AFC8"/>
<path fill-rule="evenodd" clip-rule="evenodd" d="M22.7506 21.0737C22.5925 20.8099 22.3075 20.6484 22 20.6484C21.6925 20.6484 21.4075 20.8099 21.2494 21.0737L19.6194 23.7941L16.5499 24.5151C16.2523 24.5851 16.0129 24.8051 15.9181 25.0957C15.8234 25.3863 15.8871 25.7052 16.0863 25.9371L18.1519 28.3419L17.8834 31.5121C17.8575 31.8178 17.9937 32.1148 18.2422 32.2947C18.4907 32.4746 18.8153 32.5112 19.0977 32.3912L22 31.1572L24.9023 32.3912C25.1847 32.5112 25.5093 32.4746 25.7578 32.2947C26.0063 32.1148 26.1425 31.8178 26.1166 31.5121L25.8481 28.3419L27.9137 25.9371C28.1129 25.7052 28.1766 25.3863 28.0819 25.0957C27.9871 24.8051 27.7477 24.5851 27.4501 24.5151L24.3806 23.7941L22.7506 21.0737ZM20.9303 25.0111L22 23.2258L23.0697 25.0111C23.1913 25.214 23.3899 25.359 23.6202 25.4131L25.6477 25.8894L24.2815 27.48C24.1286 27.6581 24.0536 27.8901 24.0734 28.124L24.2502 30.2123L22.3424 29.4011C22.1236 29.3081 21.8764 29.3081 21.6576 29.4011L19.7498 30.2123L19.9266 28.124C19.9464 27.8901 19.8714 27.6581 19.7185 27.48L18.3523 25.8894L20.3798 25.4131C20.6101 25.359 20.8087 25.214 20.9303 25.0111Z" fill="#17AFC8"/>
</g>
</g>
<defs>
<filter id="filter0_d_2003_413" x="-11.9647" y="-8.55266" width="67.9294" height="67.9294" filterUnits="userSpaceOnUse" color-interpolation-filters="sRGB">
<feFlood flood-opacity="0" result="BackgroundImageFix"/>
<feColorMatrix in="SourceAlpha" type="matrix" values="0 0 0 0 0 0 0 0 0 0 0 0 0 0 0 0 0 0 127 0" result="hardAlpha"/>
<feOffset dy="2.57609"/>
<feGaussianBlur stdDeviation="9.98234"/>
<feColorMatrix type="matrix" values="0 0 0 0 0.0901961 0 0 0 0 0.686275 0 0 0 0 0.784314 0 0 0 1 0"/>
<feBlend mode="normal" in2="BackgroundImageFix" result="effect1_dropShadow_2003_413"/>
<feBlend mode="normal" in="SourceGraphic" in2="effect1_dropShadow_2003_413" result="shape"/>
</filter>
<clipPath id="clip0_2003_413">
<rect y="0.835938" width="44" height="44" rx="6" fill="white"/>
</clipPath>
</defs>
</svg>
