<svg width="125" height="32" viewBox="0 0 125 32" fill="none" xmlns="http://www.w3.org/2000/svg">
<g clip-path="url(#clip0_274_2798)">
<mask id="mask0_274_2798" style="mask-type:luminance" maskUnits="userSpaceOnUse" x="0" y="0" width="37" height="32">
<path d="M36.6134 0H0.773438V32H36.6134V0Z" fill="white"/>
</mask>
<g mask="url(#mask0_274_2798)">
<path d="M22.0191 21.4404C22.0191 16.9604 19.2031 13.1204 15.2991 11.5844C15.2351 11.5204 15.1711 11.5204 15.1071 11.4564C15.0431 11.4564 14.9791 11.3924 14.9151 11.3924C13.8271 11.0084 12.6751 10.8164 11.4591 10.8164H11.3311H11.2031V17.4084H11.3311H11.3951C13.5071 17.4084 15.2991 19.0724 15.3631 21.1844V21.3124C15.3631 24.3844 16.7071 27.1364 18.7551 29.0564C20.6751 30.7844 23.1711 31.9364 25.9231 31.9364H26.0511V25.4084H25.9231C23.7471 25.4084 22.0191 23.6164 22.0191 21.4404Z" fill="#17AFC8"/>
<path d="M36.6113 21.44C36.6113 15.552 31.8753 10.88 26.0513 10.88C24.6433 10.88 23.2993 11.136 22.0833 11.648V6.656C22.0193 2.944 19.0113 0 15.3633 0V10.432C19.1393 11.776 21.9553 15.04 22.8513 19.008C23.6193 18.048 24.7073 17.408 26.0513 17.408C28.2273 17.408 30.0193 19.2 30.0193 21.376C30.0193 23.552 28.2273 25.344 26.0513 25.344V32C31.8753 32 36.6113 27.264 36.6113 21.44Z" fill="#17AFC8"/>
<path d="M7.42944 11.648V6.656C7.42944 2.944 4.42144 0 0.773438 0V21.44C0.773438 27.328 5.50944 32 11.3334 32C13.7654 32 16.0694 31.168 17.8614 29.76C16.1974 28.16 14.9814 26.112 14.5334 23.808C13.7654 24.768 12.6774 25.408 11.3334 25.408C9.15744 25.408 7.36544 23.616 7.36544 21.44C7.36544 19.264 9.09344 17.536 11.2694 17.472V10.816C9.92544 10.88 8.58144 11.136 7.42944 11.648Z" fill="#17AFC8"/>
</g>
<mask id="mask1_274_2798" style="mask-type:luminance" maskUnits="userSpaceOnUse" x="46" y="10" width="79" height="22">
<path d="M124.292 10.8809H46.8516V32.0009H124.292V10.8809Z" fill="white"/>
</mask>
<g mask="url(#mask1_274_2798)">
<path d="M46.8516 11.0098C48.5156 11.0738 49.6036 12.1618 49.6036 13.6978V19.3938C51.0116 18.4978 52.4836 18.0498 54.0196 18.1778C57.9236 18.3058 60.8676 21.8258 60.5476 25.9218C60.2276 29.5698 56.4516 32.4498 52.8036 31.8738C49.2836 31.2338 46.8516 28.4818 46.8516 24.8338C46.8516 20.4178 46.8516 11.3298 46.8516 11.0098ZM57.7956 25.0258C57.7956 22.7218 56.0676 20.9298 53.7636 20.9298C51.4596 20.9298 49.6036 22.6578 49.6036 24.9618C49.6036 27.2658 51.3956 29.0578 53.6996 29.0578C56.0036 29.0578 57.7956 27.2658 57.7956 25.0258Z" fill="#17AFC8"/>
<path d="M83.5245 11.0098C85.1245 11.0098 86.2125 12.1618 86.2765 13.6978C86.2765 15.4898 86.2765 17.2818 86.2765 19.3298C86.6605 19.1378 86.9165 19.0098 87.1725 18.8178C90.6925 16.9618 95.1085 18.5618 96.7085 22.2098C98.2445 25.7938 96.3885 30.1458 92.6765 31.4258C88.9005 32.7698 84.7405 30.5298 83.7805 26.7538C83.5885 26.2418 83.5245 25.6658 83.5245 25.1538C83.5245 20.6738 83.5245 16.0658 83.5245 11.5858C83.4605 11.3938 83.5245 11.2658 83.5245 11.0098ZM94.3405 24.9618C94.3405 22.6578 92.5485 20.9298 90.3085 20.8658C88.0045 20.8658 86.2125 22.6578 86.2125 24.9618C86.2125 27.2658 88.0685 29.0578 90.3725 29.0578C92.6125 28.9938 94.3405 27.2018 94.3405 24.9618Z" fill="#17AFC8"/>
<path d="M75.9703 26.3694C72.3223 26.3694 68.8023 26.3694 65.2183 26.3694C66.0503 29.3134 69.5063 29.9534 72.8343 27.9054C73.4103 28.5454 73.9863 29.0574 74.6263 29.7614C72.3223 31.6174 69.6983 32.4494 66.8183 31.4894C64.1303 30.5294 62.5303 28.5454 62.2743 25.6014C62.0183 22.6574 63.2983 20.3534 65.9223 18.8814C70.4023 16.4494 75.9063 19.7134 75.9703 24.8334C75.9703 25.3454 75.9703 25.7294 75.9703 26.3694ZM73.0903 23.5534C72.3863 21.6974 70.6583 20.6094 68.8023 20.8014C67.0743 20.9294 65.5383 22.2094 65.3463 23.5534C67.9063 23.5534 70.4663 23.5534 73.0903 23.5534Z" fill="#17AFC8"/>
<path d="M109.507 27.9051C110.147 28.5451 110.659 29.0571 111.299 29.6331C109.891 30.9771 108.355 31.6171 106.499 31.8091C102.723 32.1291 99.4589 29.5691 98.8829 25.8571C98.3709 22.2731 100.867 18.8811 104.643 18.1771C108.547 17.4091 112.451 20.6091 112.579 24.5131C112.579 25.0891 112.579 25.6651 112.579 26.3051C108.995 26.3051 105.475 26.3051 101.827 26.3051C102.403 29.3131 105.987 29.9531 109.507 27.9051ZM109.571 23.5531C109.059 21.8251 107.267 20.6731 105.411 20.8011C103.683 20.9291 102.019 22.2091 101.891 23.5531C104.451 23.5531 107.011 23.5531 109.571 23.5531Z" fill="#17AFC8"/>
<path d="M124.291 28.9942C124.291 29.9542 124.291 30.7862 124.291 31.6822C119.939 32.3862 115.971 31.1062 114.819 26.3062C114.755 25.9862 114.691 25.5382 114.691 25.1542C114.691 20.6102 114.691 11.2022 114.691 11.0742C116.291 11.0742 117.443 12.2262 117.443 13.7622C117.443 15.2342 117.443 16.5782 117.443 18.1142C119.299 18.1142 121.027 18.1142 122.819 18.1142C122.819 19.0742 122.819 19.9702 122.819 20.8662C121.027 20.8662 119.299 20.8662 117.379 20.8662C117.507 22.7222 117.443 24.5142 117.699 26.3062C117.955 27.9062 119.555 28.9302 121.219 28.9942C122.307 29.0582 123.267 28.9942 124.291 28.9942Z" fill="#17AFC8"/>
<path d="M80.9629 31.8733C80.9629 31.8733 79.1709 31.8733 78.2109 31.8733C78.2109 24.9613 78.2109 18.0493 78.2109 11.1373C79.7469 11.0733 80.8989 12.2253 80.8989 13.8253C80.9629 16.5133 80.9629 31.8733 80.9629 31.8733Z" fill="#17AFC8"/>
</g>
</g>
<defs>
<clipPath id="clip0_274_2798">
<rect width="124.16" height="32" fill="white" transform="translate(0.453125)"/>
</clipPath>
</defs>
</svg>
