<svg width="138" height="32" viewBox="0 0 138 32" fill="none" xmlns="http://www.w3.org/2000/svg">
<g clip-path="url(#clip0_274_2830)">
<path fill-rule="evenodd" clip-rule="evenodd" d="M25.2911 29.1779C28.4971 29.1779 31.1025 26.5587 31.1025 23.3412V21.6229C31.0694 22.3424 30.3356 22.9343 28.8118 22.9343C28.4153 22.9343 28.0717 22.879 27.7778 22.781H27.7754H27.7628C27.7628 22.781 27.4146 24.1586 28.1201 25.1512C28.1915 25.2514 28.285 25.3434 28.381 25.438C28.6076 25.6612 28.8487 25.8986 28.8487 26.2913C28.8487 27.1479 27.6602 28.3353 25.5436 28.3353C22.4264 28.3353 21.7174 26.1437 21.7174 24.3742V23.3309C21.7174 20.4269 19.8533 19.7018 19.1062 19.6269C16.8686 19.3974 15.0229 19.2199 14.5365 19.2199C14.0869 19.2199 13.5738 19.5254 13.5738 20.4511C13.5738 20.7359 13.6209 20.9515 13.6932 21.1242C13.8525 22.1415 12.023 22.4628 12.023 22.4628C13.4751 22.7223 14.1393 22.0797 14.2915 21.9025C14.3823 22.0272 14.4442 22.1693 14.4442 22.3683C14.4442 22.9481 13.9969 23.5361 12.5501 23.5361C11.9023 23.5361 11.4676 23.4657 11.4676 23.4657C11.4676 23.4657 11.4527 24.1263 11.8492 24.6658C11.9112 24.7497 11.9786 24.8284 12.046 24.9073L12.0461 24.9073C12.2847 25.1862 12.5236 25.4655 12.5236 25.9697C12.5236 26.7697 11.6602 27.7254 9.66809 27.7254C7.17108 27.7254 6.52665 25.8463 6.52665 25.8463C6.52665 25.8463 6.31346 26.2122 5.8493 26.6154C6.89461 28.1601 8.65811 29.1779 10.6549 29.1779H25.2911ZM4.84467 11.9745C5.69463 11.1639 6.87839 10.6354 8.33082 10.5622C9.16277 10.5203 10.127 10.5909 11.1742 10.6675C13.238 10.8185 15.6239 10.993 17.9534 10.3766C20.9427 9.58463 23.8028 7.93264 25.2358 6.90778C25.7565 5.42388 26.9322 4.2502 28.4149 3.73717C27.5123 3.15735 26.4403 2.82095 25.2911 2.82095H10.6549C7.45235 2.82095 4.84467 5.43901 4.84467 8.65653V11.9745ZM33.9142 12.7028C34.5436 12.0214 36.2098 9.89819 36.7455 8.78111C36.8793 8.50328 34.5875 5.62815 33.3009 4.58369C33.0936 4.41714 32.8733 4.26648 32.6418 4.13345C31.1237 1.65584 28.3976 0 25.2911 0H10.6549C5.9018 0 2.03409 3.88385 2.03409 8.65538V23.3412C2.03409 24.4611 2.24707 25.5323 2.6345 26.5159C2.59878 26.5176 2.56348 26.5184 2.52867 26.5184C1.65763 26.5184 1.31076 26.2884 1.06427 26.125C0.928422 26.0349 0.823061 25.9651 0.677239 25.9651C0.511233 25.9651 0.316406 26.1046 0.316406 26.3259C0.316406 27.0095 1.988 27.6609 2.93792 27.6609C3.02109 27.6609 3.10267 27.6589 3.18268 27.6551C4.67345 30.2494 7.46475 32 10.6549 32H25.2911C30.0476 32 33.9142 28.1138 33.9142 23.3412V12.7028ZM31.1025 12.902C29.7474 15.2889 29.6719 19.054 29.8136 19.9473C29.8335 20.0719 29.8814 20.176 29.9477 20.2669C30.5411 21.3913 28.6089 21.8058 28.6089 21.8058C29.8763 22.0213 30.6358 21.2648 30.7229 20.8743C30.9265 21.0334 31.0873 21.225 31.1025 21.5248V12.902ZM32.9122 10.1022C32.707 10.1022 32.5422 10.267 32.5422 10.4699C32.5422 10.674 32.707 10.84 32.9122 10.84C33.1151 10.84 33.2777 10.674 33.2777 10.4699C33.2777 10.2659 33.1151 10.1022 32.9122 10.1022ZM33.8621 9.35749C33.8621 9.17189 34.0109 9.02317 34.1941 9.02317C34.3774 9.02317 34.5262 9.17304 34.5262 9.35749C34.5262 9.54079 34.3774 9.69065 34.1941 9.69065C34.0109 9.69065 33.8621 9.54194 33.8621 9.35749ZM34.7937 7.78382C34.6427 7.78382 34.5182 7.90833 34.5182 8.05935C34.5182 8.21267 34.6427 8.33603 34.7937 8.33603C34.9448 8.33603 35.0704 8.21267 35.0704 8.05935C35.0704 7.90833 34.9459 7.78382 34.7937 7.78382ZM24.6627 9.13378C24.6627 9.35512 24.484 9.53266 24.2661 9.53266C24.0447 9.53266 23.8684 9.35512 23.8684 9.13378C23.8684 8.91244 24.0447 8.73375 24.2661 8.73375C24.4851 8.73375 24.6627 8.91359 24.6627 9.13378ZM25.7934 19.183C25.5744 19.183 25.3957 19.3617 25.3957 19.5818C25.3957 19.7997 25.5744 19.9807 25.7934 19.9807C26.0125 19.9807 26.19 19.8009 26.19 19.5818C26.19 19.3617 26.0125 19.183 25.7934 19.183ZM27.7613 19.9783C27.7613 19.7593 27.9411 19.5818 28.159 19.5818C28.3792 19.5818 28.5579 19.7593 28.5579 19.9783C28.5579 20.1985 28.3792 20.3772 28.159 20.3772C27.9411 20.3772 27.7613 20.1985 27.7613 19.9783ZM26.1219 15.5539C25.9017 15.5539 25.7242 15.7337 25.7242 15.9528C25.7242 16.1741 25.9017 16.3528 26.1219 16.3528C26.3409 16.3528 26.5196 16.1741 26.5196 15.9528C26.5196 15.7337 26.3398 15.5539 26.1219 15.5539ZM27.8744 12.4551C27.8744 12.6776 27.6945 12.8539 27.4755 12.8539C27.2576 12.8539 27.0812 12.6776 27.0812 12.4551C27.0812 12.2349 27.2576 12.0562 27.4755 12.0562C27.6957 12.0562 27.8744 12.236 27.8744 12.4551ZM21.2792 11.2434C21.4983 11.2434 21.6769 11.0647 21.6769 10.8457C21.6769 10.6255 21.4983 10.4468 21.2792 10.4468C21.0602 10.4468 20.8815 10.6255 20.8815 10.8457C20.8815 11.0647 21.059 11.2434 21.2792 11.2434ZM23.1027 18.7622C23.1027 18.5408 23.2814 18.3644 23.5028 18.3644C23.7218 18.3644 23.8993 18.5408 23.8993 18.7622C23.8993 18.9823 23.7218 19.161 23.5028 19.161C23.2814 19.161 23.1027 18.9823 23.1027 18.7622ZM22.4088 13.2079C22.6244 13.2079 22.8019 13.0292 22.8019 12.8079C22.8019 12.59 22.6244 12.4113 22.4088 12.4113C22.1898 12.4113 22.0088 12.59 22.0088 12.8079C22.0088 13.0292 22.1886 13.2079 22.4088 13.2079ZM19.4992 15.8754C19.4992 15.6553 19.6779 15.4766 19.8958 15.4766C20.1148 15.4766 20.2947 15.6553 20.2947 15.8754C20.2947 16.0945 20.1148 16.2732 19.8958 16.2732C19.6779 16.2732 19.4992 16.0945 19.4992 15.8754ZM24.0045 15.0501C24.2235 15.0501 24.4022 14.8714 24.4022 14.6523C24.4022 14.4333 24.2246 14.2535 24.0045 14.2535C23.7866 14.2535 23.6102 14.4333 23.6102 14.6523C23.6102 14.8714 23.7877 15.0501 24.0045 15.0501ZM17.3296 11.8763C17.3296 11.6561 17.5083 11.4763 17.7274 11.4763C17.9476 11.4763 18.1262 11.6561 18.1262 11.8763C18.1262 12.0965 17.9464 12.2752 17.7274 12.2752C17.5083 12.2752 17.3296 12.0954 17.3296 11.8763ZM18.5908 13.548C18.3718 13.548 18.1954 13.7267 18.1954 13.9469C18.1954 14.1659 18.3718 14.3446 18.5908 14.3446C18.8099 14.3446 18.9886 14.1659 18.9886 13.9469C18.9886 13.7279 18.8099 13.548 18.5908 13.548ZM21.105 17.4227C21.105 17.2013 21.2826 17.0215 21.5016 17.0215C21.7218 17.0215 21.9005 17.2013 21.9005 17.4227C21.9005 17.6429 21.7206 17.8227 21.5016 17.8227C21.2826 17.8227 21.105 17.6417 21.105 17.4227ZM25.5861 11.3817C25.8052 11.3817 25.9862 11.2042 25.9862 10.9863C25.9862 10.7661 25.8052 10.5874 25.5861 10.5874C25.3671 10.5874 25.1896 10.7661 25.1896 10.9863C25.1896 11.2042 25.3671 11.3817 25.5861 11.3817ZM28.1129 16.7158C28.1129 16.4956 28.2892 16.3181 28.5083 16.3181C28.7273 16.3181 28.9037 16.4945 28.9037 16.7158C28.9037 16.936 28.7273 17.1147 28.5083 17.1147C28.2892 17.1147 28.1129 16.936 28.1129 16.7158ZM29.5044 13.0651C29.2876 13.0651 29.1066 13.2438 29.1066 13.464C29.1066 13.683 29.2865 13.8617 29.5044 13.8617C29.7234 13.8617 29.9021 13.6841 29.9021 13.464C29.9021 13.2438 29.7234 13.0651 29.5044 13.0651ZM28.8497 10.1876C28.8497 9.96624 29.0296 9.78755 29.2486 9.78755C29.4665 9.78755 29.644 9.96624 29.644 10.1876C29.644 10.4078 29.4653 10.5876 29.2486 10.5876C29.0284 10.5876 28.8497 10.4078 28.8497 10.1876ZM31.1358 10.4008C30.9168 10.4008 30.7393 10.5784 30.7393 10.7986C30.7393 11.0176 30.9168 11.1963 31.1358 11.1963C31.3537 11.1963 31.5313 11.0176 31.5313 10.7986C31.5313 10.5784 31.3526 10.4008 31.1358 10.4008ZM27.4317 8.95401C27.4317 8.73382 27.6116 8.55513 27.8329 8.55513C28.052 8.55513 28.2283 8.73382 28.2283 8.95401C28.2283 9.17189 28.052 9.35173 27.8329 9.35173C27.6116 9.35173 27.4317 9.17189 27.4317 8.95401ZM27.0502 7.053C26.8311 7.053 26.6524 7.23054 26.6524 7.45072C26.6524 7.67091 26.83 7.8496 27.0502 7.8496C27.2692 7.8496 27.4479 7.67091 27.4479 7.45072C27.4479 7.23054 27.2704 7.053 27.0502 7.053ZM28.2984 7.45072C28.2984 7.23054 28.4771 7.053 28.6961 7.053C28.9152 7.053 29.0927 7.23054 29.0927 7.45072C29.0927 7.67091 28.9152 7.8496 28.6961 7.8496C28.4771 7.8496 28.2984 7.67091 28.2984 7.45072ZM26.8172 5.96234C26.8172 5.77789 26.9648 5.62917 27.1481 5.62917C27.3337 5.62917 27.4812 5.77904 27.4812 5.96234C27.4812 6.14794 27.3337 6.29666 27.1481 6.29666C26.9648 6.29666 26.8172 6.14794 26.8172 5.96234ZM28.0543 4.50169C27.9125 4.50169 27.8053 4.61466 27.8053 4.7507C27.8053 4.89019 27.9137 5.00432 28.0543 5.00432C28.1915 5.00432 28.301 4.89019 28.301 4.7507C28.301 4.61466 28.1915 4.50169 28.0543 4.50169ZM29.086 4.17917C29.086 4.06159 29.1817 3.96014 29.3039 3.96014C29.4273 3.96014 29.5253 4.06159 29.5253 4.17917C29.5253 4.30253 29.4273 4.39936 29.3039 4.39936C29.1829 4.39936 29.086 4.30253 29.086 4.17917ZM34.743 6.7302C34.6335 6.7302 34.5436 6.82012 34.5436 6.92849C34.5436 7.04146 34.6335 7.12908 34.743 7.12908C34.8549 7.12908 34.9448 7.04146 34.9448 6.92849C34.9448 6.82012 34.8549 6.7302 34.743 6.7302ZM34.2599 10.915C34.2552 10.7963 34.3486 10.6925 34.4685 10.6891C34.5873 10.6833 34.6899 10.7755 34.6945 10.8966C34.7025 11.0176 34.6069 11.1191 34.4881 11.1237C34.3694 11.1283 34.2656 11.0338 34.2599 10.915ZM35.0299 9.91884C34.9111 9.9223 34.8177 10.0238 34.8235 10.1448H34.8247C34.8281 10.2647 34.9296 10.3581 35.0495 10.3512C35.1694 10.3488 35.2604 10.2474 35.257 10.1264C35.2501 10.0065 35.1486 9.91308 35.0299 9.91884ZM33.6651 11.6769C33.6581 11.5558 33.7515 11.4532 33.8726 11.4509C33.9902 11.444 34.0916 11.5374 34.0985 11.6573C34.1008 11.7795 34.0098 11.8798 33.8899 11.8844C33.7723 11.8901 33.6697 11.7956 33.6662 11.678L33.6651 11.6769ZM33.1983 12.1645C33.0784 12.168 32.9873 12.2706 32.9919 12.3916C32.9954 12.5115 33.0968 12.6037 33.2144 12.5991C33.3366 12.5968 33.4265 12.4942 33.4242 12.372C33.4162 12.2521 33.3193 12.1599 33.1983 12.1645ZM35.3376 9.37926C35.3341 9.25937 35.424 9.15792 35.5451 9.15216C35.665 9.14639 35.7641 9.23862 35.7687 9.36197C35.7733 9.48071 35.6823 9.58446 35.5624 9.58792C35.4425 9.59369 35.341 9.49916 35.3376 9.37926ZM35.9441 8.4801C35.8242 8.48471 35.732 8.58732 35.7378 8.70606V8.7049C35.7412 8.8248 35.8415 8.91933 35.9614 8.91587C36.0824 8.9101 36.1758 8.81096 36.1678 8.68761C36.1631 8.56656 36.064 8.47434 35.9441 8.4801ZM10.9362 25.5511C10.9362 25.5511 9.48253 23.0311 10.4878 20.4441C11.598 17.584 14.7913 17.9587 14.7913 17.9587C14.2713 17.7246 13.7007 17.6047 13.1047 17.6278C10.8878 17.7154 9.1655 19.7455 9.26118 22.1642C9.31652 23.5648 9.96671 24.7868 10.9362 25.5511ZM5.56927 17.5189L5.56963 17.5192V17.5204L5.56927 17.5189ZM6.52648 13.6112C5.22559 14.8107 5.32859 16.5111 5.56927 17.5189C4.94466 16.8929 4.55976 16.0261 4.55976 15.0706C4.55976 13.157 6.1057 11.7079 8.01131 11.6064C8.83645 11.5618 9.95191 11.6404 11.1383 11.7239L11.1383 11.7239C12.773 11.839 14.5424 11.9636 15.8724 11.7886C16.6655 15.3462 20.1862 18.8046 22.9496 20.3782C21.0791 19.5436 19.254 18.1004 17.5216 16.7306L17.5216 16.7306C16.2153 15.6976 14.9617 14.7064 13.7812 14.0492C10.913 12.4549 8.03782 12.2163 6.52648 13.6112ZM27.0479 21.6487L27.0467 21.6614H27.0479C27.0156 21.862 26.5579 24.8167 28.0866 26.0041C27.2957 27.3552 24.7641 27.0266 24.7641 27.0266C25.4235 26.8422 26.2536 26.4802 26.7078 26.0375C25.9596 23.2073 27.0479 21.6487 27.0479 21.6487ZM33.204 7.51107C32.9604 7.90056 32.4316 8.11631 31.8711 8.01215C31.1725 7.88418 30.6906 7.30893 30.7978 6.7256C30.9039 6.14342 31.5541 5.77337 32.2584 5.90364C32.7934 6.0009 33.2002 6.36403 33.3134 6.78962C33.2083 6.6363 33.0284 6.51741 32.8108 6.47649C32.4246 6.40617 32.0626 6.61022 32.0061 6.93301C31.9438 7.2558 32.2113 7.57397 32.5975 7.64314C32.829 7.68574 33.0503 7.63088 33.204 7.51107ZM32.0947 5.4402C31.1102 5.25921 30.1903 5.78028 30.0416 6.60225C29.8929 7.42421 30.5684 8.23695 31.5552 8.41794C32.5432 8.59547 33.4631 8.0767 33.6107 7.2559C33.7583 6.43163 33.0827 5.6212 32.0959 5.4402H32.0947ZM33.9967 6.3294L34.0017 6.3382H34.0006L33.9967 6.3294ZM30.9802 4.40953C32.3301 4.40953 33.4919 5.20086 33.9967 6.3294C33.5031 5.47651 32.5824 4.89603 31.5301 4.89603C30.5686 4.89603 29.7155 5.38021 29.2002 6.1111C29.0377 6.30938 28.7472 6.33705 28.5477 6.1745C28.3506 6.00965 28.3241 5.72029 28.4843 5.52431C29.0884 4.84876 29.9888 4.40953 30.9802 4.40953ZM30.9179 12.2245C29.8988 12.1934 28.5938 11.6942 27.3753 10.7893C26.3515 10.0296 25.5803 9.12575 25.1676 8.28188C25.0834 8.13663 25.133 7.94987 25.276 7.86341C25.4201 7.7781 25.6184 7.82191 25.6933 7.97293C26.1383 8.86291 26.8011 9.84972 27.7903 10.6625C28.8151 11.5075 29.9184 12.0389 30.919 12.2245H30.9179ZM24.0077 12.266C25.6263 13.9341 27.7267 14.8944 29.5655 15.0097V15.0085C27.9723 14.8206 26.2673 13.986 24.8643 12.5807C23.8878 11.6008 23.293 10.531 22.818 9.51074C22.7454 9.35742 22.5506 9.30785 22.403 9.39085C22.2555 9.4727 22.2013 9.65715 22.2854 9.80586C22.6762 10.6451 23.2469 11.4798 24.0077 12.266ZM19.2536 10.8317C19.4138 10.7764 19.5787 10.864 19.6398 11.0208C20.4249 12.9725 20.8456 13.7726 22.3408 15.3635C24.3594 17.5112 27.2911 18.2859 28.9131 18.3181C27.5355 18.4403 24.1369 17.7948 21.7806 15.3381C20.4537 13.9547 19.4853 12.4929 19.0634 11.2179C19.0103 11.0588 19.0945 10.8847 19.2524 10.8306L19.2536 10.8317ZM31.7871 9.01602C31.0055 8.98836 30.421 8.73012 30.0233 8.46728V8.46613C29.8838 8.3739 29.6878 8.4546 29.6106 8.60562C29.5357 8.75779 29.5968 8.94224 29.7466 9.02064C30.1801 9.28924 30.7911 9.47139 31.5716 9.46101C33.5982 9.43335 34.0928 7.6165 34.0709 7.24299C34.0029 7.75253 33.4357 9.06675 31.7871 9.01602Z" fill="#17AFC8"/>
<path d="M45.2093 12.5805H46.4532C47.1461 12.5805 47.6476 12.464 47.96 12.2323C48.2712 12.0006 48.4269 11.6236 48.4269 11.1026C48.4269 10.5919 48.2643 10.231 47.9404 10.0178C47.6164 9.80679 47.0642 9.70073 46.2884 9.70073H45.2093V12.5793V12.5805ZM49.4771 11.1026C49.4771 11.8911 49.2373 12.4779 48.7577 12.8641C48.2793 13.2514 47.545 13.4451 46.5581 13.4451H44.1914V5.44336H48.9906V6.32988H45.2093V8.82574H46.4094C47.4412 8.82574 48.2113 9.00673 48.7174 9.36756C49.2246 9.72839 49.4771 10.3071 49.4771 11.1026Z" fill="#17AFC8"/>
<path d="M55.2589 13.4451H50.7422V5.44336H55.2589V6.32988H51.7601V8.82689H55.0549V9.70188H51.7601V12.5586H55.2589V13.4451Z" fill="#17AFC8"/>
<path d="M69.3719 10.0733L68.4658 7.64893L68.0784 6.45C67.9677 6.88807 67.8513 7.28695 67.7303 7.64893L66.8126 10.0733H69.3719ZM70.6481 13.4442L69.6762 10.9656H66.4702L65.5088 13.4442H64.4805L67.6369 5.41016H68.5545L71.7063 13.4442H70.6492H70.6481Z" fill="#17AFC8"/>
<path d="M73.8304 9.46555H74.6432C75.4478 9.46555 76.03 9.33644 76.3909 9.07936C76.7517 8.82228 76.9327 8.40957 76.9327 7.84007C76.9327 7.32592 76.7644 6.93972 76.4289 6.68379C76.0946 6.42902 75.5712 6.30106 74.8599 6.30106H73.8316V9.4644L73.8304 9.46555ZM77.9887 7.79627C77.9887 8.61362 77.7062 9.24075 77.1413 9.67652C76.5776 10.1123 75.7833 10.3313 74.7596 10.3313H73.8304V13.4451H72.8125V5.44336H74.9521C76.9753 5.44336 77.9875 6.22843 77.9875 7.79627H77.9887Z" fill="#17AFC8"/>
<path d="M80.3718 13.5546C79.9556 13.5546 79.589 13.5004 79.272 13.3909V12.4387C79.6075 12.5874 79.9626 12.6623 80.3395 12.6623C80.7338 12.6623 81.0508 12.5713 81.2918 12.3891C81.5339 12.2058 81.7667 11.8749 81.9915 11.3919L78.8789 5.44336H79.9948L82.3051 9.8921C82.3973 10.0639 82.4769 10.2541 82.5426 10.4616H82.5875L82.6313 10.3302L82.8031 9.88172L84.7387 5.44336H85.8166L83.2343 11.1683C82.9288 11.8461 82.6498 12.3418 82.3996 12.6519C82.1495 12.9621 81.8624 13.1903 81.5396 13.3356C81.2168 13.482 80.8272 13.5546 80.3707 13.5546H80.3718Z" fill="#17AFC8"/>
<path d="M90.1032 6.21544C89.2329 6.21544 88.5504 6.5025 88.0524 7.08006C87.5555 7.65647 87.3053 8.445 87.3053 9.4445C87.3053 10.4774 87.5474 11.274 88.0293 11.8331C88.5123 12.3946 89.1994 12.6747 90.0929 12.6747C90.6681 12.6747 91.3149 12.5675 92.0331 12.3565V13.2327C91.6907 13.356 91.361 13.4413 91.0439 13.4874C90.7269 13.5336 90.3626 13.5555 89.9499 13.5555C88.7591 13.5555 87.8414 13.1969 87.1993 12.4799C86.556 11.7628 86.2344 10.7472 86.2344 9.43412C86.2344 8.60985 86.3877 7.88703 86.6955 7.26682C87.0022 6.6466 87.4518 6.16933 88.0397 5.83386C88.6276 5.49839 89.3193 5.33008 90.1159 5.33008C90.9702 5.33008 91.7149 5.48686 92.3489 5.80043L91.9397 6.65467C91.2953 6.36185 90.6831 6.2166 90.1044 6.2166L90.1032 6.21544Z" fill="#17AFC8"/>
<path d="M99.7388 13.4451H98.5122L94.8578 9.38947V13.4451H93.8398V5.44336H94.8578V9.31799L98.4235 5.44336H99.5786L96.0682 9.32952L99.7388 13.4451Z" fill="#17AFC8"/>
<path d="M102.241 13.4451H101.223V5.44336H102.241V13.4451Z" fill="#17AFC8"/>
<path d="M50.7948 25.4313H49.0909V21.9532H45.8999V25.4313H44.1914V17.373H45.8999V20.5306H49.0909V17.373H50.7948V25.4313Z" fill="#17AFC8"/>
<path d="M57.0107 22.0791C56.4711 20.3406 56.1668 19.3584 56.0988 19.1302C56.0319 18.9031 55.9823 18.7221 55.9535 18.5907C55.8313 19.061 55.4843 20.223 54.9114 22.0791H57.0107ZM58.0021 25.4303L57.4176 23.5132H54.4802L53.8957 25.4303H52.0547L54.8987 17.3398H56.9888L59.8431 25.4303H58.0021Z" fill="#17AFC8"/>
<path d="M62.8167 21.1647H63.3781C63.9038 21.1647 64.2969 21.0609 64.5575 20.8534C64.8191 20.6459 64.9494 20.3439 64.9494 19.9461C64.9494 19.5461 64.8399 19.2498 64.6209 19.0596C64.4018 18.8683 64.0594 18.7726 63.5925 18.7726H62.8155V21.1647H62.8167ZM66.6752 19.8862C66.6752 20.7531 66.4043 21.4171 65.8625 21.876C65.3206 22.3359 64.5494 22.5654 63.551 22.5654H62.8179V25.4313H61.1094V17.373H63.6825C64.6601 17.373 65.4036 17.584 65.9132 18.0036C66.4216 18.4244 66.6763 19.0516 66.6763 19.8862H66.6752Z" fill="#17AFC8"/>
<path d="M73.8153 21.3916C73.8153 19.5759 73.1374 18.6687 71.7817 18.6687C70.1966 18.6687 69.7262 19.8861 69.7262 21.3916C69.7262 22.8984 70.1966 24.1146 71.7817 24.1146C73.1374 24.1146 73.8153 23.2073 73.8153 21.3916ZM67.9336 21.3916C67.9336 20.0509 68.2656 19.0157 68.9285 18.3078C69.5914 17.6012 70.5436 17.2461 71.7806 17.2461C73.0187 17.2461 73.9663 17.6023 74.6223 18.3148C75.2782 19.0284 75.6056 20.0532 75.6056 21.3905C75.6056 22.7278 75.2782 23.7526 74.6223 24.4662C73.9663 25.1798 73.0187 25.5349 71.7806 25.5349C70.5424 25.5349 69.5914 25.181 68.9285 24.4743C68.2645 23.7676 67.9336 22.7312 67.9336 21.3905V21.3916Z" fill="#17AFC8"/>
<path d="M92.5721 25.4313H90.8682V21.9532H87.6772V25.4313H85.9688V17.373H87.6772V20.5306H90.8682V17.373H92.5721V25.4313Z" fill="#17AFC8"/>
<path d="M102.242 25.4313H100.54V17.3742H102.242V25.4313ZM95.7555 24.0317H96.2017C96.7631 24.0317 97.1747 23.9384 97.4364 23.7539C97.6969 23.5683 97.8283 23.287 97.8283 22.9124C97.8283 22.5377 97.7015 22.2702 97.4502 22.1077C97.1989 21.9463 96.7562 21.8656 96.1256 21.8656H95.7555V24.0317ZM99.5702 22.9124C99.5702 23.7505 99.2912 24.3799 98.7356 24.7995C98.1788 25.2215 97.3545 25.4301 96.2639 25.4301H94.0586V17.373H95.7671V20.4649H96.3181C97.351 20.4649 98.1511 20.6793 98.7194 21.107C99.2878 21.5347 99.5714 22.1365 99.5714 22.9112L99.5702 22.9124Z" fill="#17AFC8"/>
<path d="M109.423 24.0298H109.997C110.574 24.0298 110.997 23.9376 111.264 23.752C111.533 23.5664 111.668 23.2851 111.668 22.9104C111.668 22.5403 111.532 22.2729 111.26 22.1092C110.988 21.9466 110.52 21.8636 109.859 21.8636H109.423V24.0298ZM109.423 20.4641H110.095C111.147 20.4641 111.96 20.6762 112.532 21.1028C113.104 21.5293 113.391 22.1322 113.391 22.9104C113.391 24.5901 112.282 25.4293 110.062 25.4293H107.715V17.3711H112.807V18.7821H109.422V20.4641H109.423Z" fill="#17AFC8"/>
<path d="M119.237 22.0791C118.698 20.3406 118.393 19.3584 118.324 19.1302C118.257 18.9031 118.209 18.7221 118.179 18.5907C118.057 19.061 117.71 20.223 117.137 22.0791H119.236H119.237ZM120.229 25.4303L119.644 23.5132H116.707L116.122 25.4303H114.281L117.125 17.3398H119.215L122.07 25.4303H120.229Z" fill="#17AFC8"/>
<path d="M129.559 25.4313H127.857V21.9532H124.666V25.4313H122.957V17.373H124.666V20.5306H127.857V17.373H129.559V25.4313Z" fill="#17AFC8"/>
<path d="M137.389 25.4313H135.45L132.529 21.348V25.4313H130.82V17.373H132.529V21.2753L135.418 17.373H137.236L134.298 21.2419L137.389 25.4313Z" fill="#17AFC8"/>
<path d="M58.3856 5.44336C58.3845 6.51894 58.373 7.45734 58.3499 8.31158C58.3268 9.18657 58.2692 9.95089 58.1793 10.5861C58.0871 11.2225 57.9418 11.7251 57.7458 12.0767C57.5452 12.4387 57.2628 12.6231 56.9066 12.6231C56.7532 12.6231 56.6091 12.6047 56.4766 12.5678V13.467C56.5457 13.497 56.638 13.5223 56.7463 13.5385C56.8674 13.5569 56.9873 13.5661 57.1014 13.5661C57.4507 13.5661 57.7504 13.4785 57.9937 13.3021C58.2369 13.1269 58.4456 12.8733 58.6116 12.5517C58.7776 12.2277 58.9102 11.8358 59.0082 11.3885C59.105 10.9423 59.1799 10.442 59.2306 9.90362C59.2779 9.38024 59.3137 8.80268 59.3333 8.18592C59.3517 7.6049 59.3655 6.97085 59.3736 6.30221V6.26417H62.4251V13.4543H63.375V5.44451H58.3879L58.3856 5.44336Z" fill="#17AFC8"/>
<path d="M82.2533 23.7481V18.7864H79.8266C79.8301 20.5133 79.8024 22.246 78.962 23.7481H82.2533ZM76.4961 23.7481H77.1532C78.4536 21.9763 78.2126 19.5012 78.2265 17.373H83.8546V23.7481H84.7088V26.6164H82.9796V25.1938H78.1446V26.6164H76.4961V23.7481Z" fill="#17AFC8"/>
</g>
<defs>
<clipPath id="clip0_274_2830">
<rect width="137.072" height="32" fill="white" transform="translate(0.316406)"/>
</clipPath>
</defs>
</svg>
