<svg width="44" height="45" viewBox="0 0 44 45" fill="none" xmlns="http://www.w3.org/2000/svg">
<g clip-path="url(#clip0_2003_399)">
<rect y="0.296875" width="44" height="44" rx="6" fill="#00263C"/>
<g filter="url(#filter0_d_2003_399)">
<path fill-rule="evenodd" clip-rule="evenodd" d="M30.5714 9.96768C30.5407 9.62956 30.3171 9.33974 29.9979 9.22416C29.6786 9.10858 29.3213 9.18811 29.0813 9.42818L26.0188 12.4907C25.8352 12.6743 25.7426 12.93 25.7661 13.1886L26.0352 16.1492L20.5063 21.6782C20.1646 22.0199 20.1646 22.5739 20.5063 22.9156C20.848 23.2573 21.402 23.2573 21.7437 22.9156L27.2727 17.3867L30.2333 17.6558C30.4919 17.6793 30.7476 17.5867 30.9312 17.4031L33.9937 14.3406C34.2338 14.1006 34.3133 13.7433 34.1977 13.424C34.0822 13.1048 33.7923 12.8812 33.4542 12.8505L30.8116 12.6103L30.5714 9.96768ZM29.9836 15.8759L27.7491 15.6728L27.546 13.4383L28.9977 11.9866L29.1348 13.4949C29.1731 13.9155 29.5064 14.2488 29.927 14.2871L31.4353 14.4242L29.9836 15.8759Z" fill="#17AFC8"/>
<path d="M21.125 10.9219C22.5011 10.9219 23.8201 11.1663 25.041 11.6139C24.625 12.058 24.4125 12.6559 24.4554 13.2637C23.4176 12.8809 22.2957 12.6719 21.125 12.6719C15.8092 12.6719 11.5 16.9811 11.5 22.2969C11.5 27.6127 15.8092 31.9219 21.125 31.9219C26.4408 31.9219 30.75 27.6127 30.75 22.2969C30.75 21.1262 30.541 20.0043 30.1582 18.9665C30.766 19.0094 31.3639 18.7969 31.808 18.3809C32.2557 19.6018 32.5 20.9208 32.5 22.2969C32.5 26.2969 30.4354 29.8146 27.3137 31.8427L28.4701 34.1556C28.6862 34.5878 28.5111 35.1134 28.0788 35.3295C27.6466 35.5456 27.121 35.3705 26.9049 34.9382L25.7761 32.6807C24.3562 33.3176 22.782 33.6719 21.125 33.6719C19.468 33.6719 17.8938 33.3176 16.4739 32.6807L15.3451 34.9382C15.129 35.3705 14.6034 35.5456 14.1712 35.3295C13.739 35.1134 13.5638 34.5878 13.7799 34.1556L14.9363 31.8427C11.8146 29.8146 9.75 26.2969 9.75 22.2969C9.75 16.0147 14.8428 10.9219 21.125 10.9219Z" fill="#17AFC8"/>
<path d="M21.125 17.0469C21.7683 17.0469 22.3845 17.1626 22.954 17.3743L21.5104 18.8179C21.3839 18.804 21.2552 18.7969 21.125 18.7969C19.192 18.7969 17.625 20.3639 17.625 22.2969C17.625 24.2299 19.192 25.7969 21.125 25.7969C23.058 25.7969 24.625 24.2299 24.625 22.2969C24.625 22.1667 24.6179 22.038 24.604 21.9115L26.0476 20.4679C26.2593 21.0374 26.375 21.6536 26.375 22.2969C26.375 25.1964 24.0245 27.5469 21.125 27.5469C18.2255 27.5469 15.875 25.1964 15.875 22.2969C15.875 19.3974 18.2255 17.0469 21.125 17.0469Z" fill="#17AFC8"/>
</g>
</g>
<defs>
<filter id="filter0_d_2003_399" x="-11.9647" y="-9.09172" width="67.9294" height="67.9294" filterUnits="userSpaceOnUse" color-interpolation-filters="sRGB">
<feFlood flood-opacity="0" result="BackgroundImageFix"/>
<feColorMatrix in="SourceAlpha" type="matrix" values="0 0 0 0 0 0 0 0 0 0 0 0 0 0 0 0 0 0 127 0" result="hardAlpha"/>
<feOffset dy="2.57609"/>
<feGaussianBlur stdDeviation="9.98234"/>
<feColorMatrix type="matrix" values="0 0 0 0 0.0901961 0 0 0 0 0.686275 0 0 0 0 0.784314 0 0 0 1 0"/>
<feBlend mode="normal" in2="BackgroundImageFix" result="effect1_dropShadow_2003_399"/>
<feBlend mode="normal" in="SourceGraphic" in2="effect1_dropShadow_2003_399" result="shape"/>
</filter>
<clipPath id="clip0_2003_399">
<rect y="0.296875" width="44" height="44" rx="6" fill="white"/>
</clipPath>
</defs>
</svg>
