<svg width="44" height="45" viewBox="0 0 44 45" fill="none" xmlns="http://www.w3.org/2000/svg">
<g clip-path="url(#clip0_2003_467)">
<rect y="0.673828" width="44" height="44" rx="6" fill="#00263C"/>
<g filter="url(#filter0_d_2003_467)">
<path d="M27.6875 20.0488C27.6875 20.5321 28.0792 20.9238 28.5625 20.9238C29.0458 20.9238 29.4375 20.5321 29.4375 20.0488C29.4375 19.5656 29.0458 19.1738 28.5625 19.1738C28.0792 19.1738 27.6875 19.5656 27.6875 20.0488Z" fill="#17AFC8"/>
<path d="M27.6875 21.7988C27.6875 22.2821 27.2958 22.6738 26.8125 22.6738C26.3292 22.6738 25.9375 22.2821 25.9375 21.7988C25.9375 21.3156 26.3292 20.9238 26.8125 20.9238C27.2958 20.9238 27.6875 21.3156 27.6875 21.7988Z" fill="#17AFC8"/>
<path d="M31.1875 21.7988C31.1875 22.2821 30.7958 22.6738 30.3125 22.6738C29.8292 22.6738 29.4375 22.2821 29.4375 21.7988C29.4375 21.3156 29.8292 20.9238 30.3125 20.9238C30.7958 20.9238 31.1875 21.3156 31.1875 21.7988Z" fill="#17AFC8"/>
<path d="M28.5625 24.4238C28.0792 24.4238 27.6875 24.0321 27.6875 23.5488C27.6875 23.0656 28.0792 22.6738 28.5625 22.6738C29.0458 22.6738 29.4375 23.0656 29.4375 23.5488C29.4375 24.0321 29.0458 24.4238 28.5625 24.4238Z" fill="#17AFC8"/>
<path d="M12.375 21.7988C12.375 21.3156 12.7667 20.9238 13.25 20.9238H14.125V20.0488C14.125 19.5656 14.5167 19.1738 15 19.1738C15.4833 19.1738 15.875 19.5656 15.875 20.0488V20.9238H16.75C17.2333 20.9238 17.625 21.3156 17.625 21.7988C17.625 22.2821 17.2333 22.6738 16.75 22.6738H15.875V23.5488C15.875 24.0321 15.4833 24.4238 15 24.4238C14.5167 24.4238 14.125 24.0321 14.125 23.5488V22.6738H13.25C12.7667 22.6738 12.375 22.2821 12.375 21.7988Z" fill="#17AFC8"/>
<path fill-rule="evenodd" clip-rule="evenodd" d="M8.875 20.0488C8.875 16.6661 11.6173 13.9238 15 13.9238H29C32.3827 13.9238 35.125 16.6661 35.125 20.0488V26.3357C35.125 29.1458 32.8469 31.4238 30.0368 31.4238C28.5696 31.4238 27.1737 30.7905 26.2076 29.6863L23.9755 27.1353C22.9297 25.9401 21.0703 25.9401 20.0245 27.1353L17.7924 29.6863C16.8263 30.7905 15.4304 31.4238 13.9632 31.4238C11.1531 31.4238 8.875 29.1458 8.875 26.3357V20.0488ZM27.0159 15.6738H16.9841C17.2867 16.1969 17.8522 16.5488 18.5 16.5488H25.5C26.1478 16.5488 26.7133 16.1969 27.0159 15.6738ZM15.1103 15.6738C15.4988 17.1834 16.8691 18.2988 18.5 18.2988H25.5C27.1309 18.2988 28.5012 17.1834 28.8898 15.6738H29C31.4162 15.6738 33.375 17.6326 33.375 20.0488V26.3357C33.375 28.1793 31.8805 29.6738 30.0368 29.6738C29.0742 29.6738 28.1585 29.2583 27.5246 28.5338L25.2925 25.9829C23.5494 23.9909 20.4505 23.9909 18.7075 25.9829L16.4754 28.5338C15.8415 29.2583 14.9258 29.6738 13.9632 29.6738C12.1196 29.6738 10.625 28.1793 10.625 26.3357V20.0488C10.625 17.6326 12.5838 15.6738 15 15.6738H15.1103Z" fill="#17AFC8"/>
</g>
</g>
<defs>
<filter id="filter0_d_2003_467" x="-11.9647" y="-8.71477" width="67.9294" height="67.9294" filterUnits="userSpaceOnUse" color-interpolation-filters="sRGB">
<feFlood flood-opacity="0" result="BackgroundImageFix"/>
<feColorMatrix in="SourceAlpha" type="matrix" values="0 0 0 0 0 0 0 0 0 0 0 0 0 0 0 0 0 0 127 0" result="hardAlpha"/>
<feOffset dy="2.57609"/>
<feGaussianBlur stdDeviation="9.98234"/>
<feColorMatrix type="matrix" values="0 0 0 0 0.0901961 0 0 0 0 0.686275 0 0 0 0 0.784314 0 0 0 1 0"/>
<feBlend mode="normal" in2="BackgroundImageFix" result="effect1_dropShadow_2003_467"/>
<feBlend mode="normal" in="SourceGraphic" in2="effect1_dropShadow_2003_467" result="shape"/>
</filter>
<clipPath id="clip0_2003_467">
<rect y="0.673828" width="44" height="44" rx="6" fill="white"/>
</clipPath>
</defs>
</svg>
