<svg width="44" height="45" viewBox="0 0 44 45" fill="none" xmlns="http://www.w3.org/2000/svg">
<g clip-path="url(#clip0_2003_46)">
<rect y="0.755859" width="44" height="44" rx="6" fill="#00263C"/>
<g filter="url(#filter0_d_2003_46)">
<path d="M15.0001 30.6309C15.0001 30.1476 15.3918 29.7559 15.8751 29.7559H18.5001C18.9834 29.7559 19.3751 30.1476 19.3751 30.6309C19.3751 31.1141 18.9834 31.5059 18.5001 31.5059H15.8751C15.3918 31.5059 15.0001 31.1141 15.0001 30.6309Z" fill="#17AFC8"/>
<path fill-rule="evenodd" clip-rule="evenodd" d="M33.7952 14.6646C33.7952 14.6646 33.7952 14.6649 32.9376 14.8384L33.7952 14.6646C33.887 15.1184 33.6095 15.5654 33.162 15.6841L25.4709 17.7243C25.4586 17.7278 25.4463 17.7311 25.4339 17.7341L16.9701 19.9792C16.9578 19.9827 16.9455 19.986 16.9331 19.989L16.3983 20.1309H34.2302C34.7052 20.1309 35.0935 20.5099 35.1049 20.9848L34.2302 21.0059C35.1049 20.9848 35.1049 20.9848 35.1049 20.9848L35.105 20.9863L35.1066 21.0579C35.1075 21.1052 35.1089 21.1746 35.1104 21.2646C35.1135 21.4445 35.1173 21.7064 35.1203 22.036C35.1262 22.695 35.1288 23.6254 35.1153 24.7131C35.0883 26.8839 34.9972 29.6988 34.738 32.2351C34.5176 34.3923 32.658 35.8809 30.5748 35.8809H15.1629C13.0659 35.8809 11.2012 34.3736 10.9909 32.2044C10.7457 29.6752 10.6596 26.8684 10.6343 24.7033C10.6216 23.6186 10.6241 22.6908 10.6298 22.0336C10.6326 21.705 10.6362 21.4439 10.6392 21.2646C10.6403 21.199 10.6412 21.1443 10.6421 21.1012C10.585 21.0269 10.539 20.9421 10.5074 20.8486L10.6701 20.7936C10.5074 20.8486 10.5074 20.8486 10.5074 20.8486L10.5065 20.8459L10.5047 20.8407L10.4989 20.8232C10.494 20.8083 10.4872 20.7873 10.4785 20.7604C10.4613 20.7067 10.4371 20.6296 10.4078 20.5324C10.3493 20.3384 10.2705 20.063 10.1872 19.7328C10.0218 19.0773 9.83345 18.1839 9.75836 17.2713C9.68953 16.4347 10.0531 15.7036 10.5747 15.1649C11.0937 14.629 11.803 14.241 12.5669 14.0384L17.4659 12.7389C17.4781 12.7353 17.4904 12.732 17.5029 12.729L25.9667 10.4839C25.9789 10.4804 25.9912 10.4771 26.0036 10.4741L28.5833 9.78983C29.3367 9.58998 30.1356 9.57245 30.8469 9.77207C31.561 9.97247 32.2398 10.412 32.6071 11.1562C33.0183 11.9893 33.3138 12.8664 33.5052 13.5238C33.6016 13.8551 33.6733 14.1364 33.7212 14.3363C33.7451 14.4364 33.7632 14.5163 33.7755 14.5723C33.7817 14.6003 33.7864 14.6224 33.7896 14.638L33.7946 14.6619L33.7952 14.6646ZM29.032 11.4813C29.528 11.3497 30.0057 11.3536 30.374 11.457C30.7396 11.5596 30.9435 11.7397 31.0378 11.9308C31.3867 12.6375 31.6488 13.4079 31.825 14.0129C31.8451 14.0823 31.8641 14.1491 31.8818 14.2131L26.3282 15.6863L26.9736 12.0273L29.032 11.4813ZM25.1093 12.5219L24.4639 16.1808L17.8274 17.9413L18.4728 14.2823L25.1093 12.5219ZM16.6085 14.7768L15.9632 18.4358L11.9356 19.5041C11.9187 19.4406 11.9015 19.3741 11.884 19.3048C11.7312 18.6991 11.5667 17.9081 11.5025 17.1278C11.4848 16.9131 11.5682 16.6546 11.8319 16.3824C12.0982 16.1074 12.5126 15.8633 13.0156 15.7299L16.6085 14.7768ZM12.3813 21.8809L12.3797 22.0488C12.3741 22.6964 12.3716 23.6122 12.3842 24.6827C12.4093 26.8281 12.4945 29.5783 12.7328 32.0355C12.8483 33.2271 13.8834 34.1309 15.1629 34.1309H30.5748C31.8468 34.1309 32.8764 33.2379 32.9971 32.0572C33.2485 29.5967 33.3387 26.8414 33.3654 24.6913C33.3787 23.6185 33.3762 22.7008 33.3704 22.0517C33.3698 21.9925 33.3693 21.9355 33.3687 21.8809H12.3813Z" fill="#17AFC8"/>
</g>
</g>
<defs>
<filter id="filter0_d_2003_46" x="-11.9647" y="-8.63273" width="67.9294" height="67.9294" filterUnits="userSpaceOnUse" color-interpolation-filters="sRGB">
<feFlood flood-opacity="0" result="BackgroundImageFix"/>
<feColorMatrix in="SourceAlpha" type="matrix" values="0 0 0 0 0 0 0 0 0 0 0 0 0 0 0 0 0 0 127 0" result="hardAlpha"/>
<feOffset dy="2.57609"/>
<feGaussianBlur stdDeviation="9.98234"/>
<feColorMatrix type="matrix" values="0 0 0 0 0.0901961 0 0 0 0 0.686275 0 0 0 0 0.784314 0 0 0 1 0"/>
<feBlend mode="normal" in2="BackgroundImageFix" result="effect1_dropShadow_2003_46"/>
<feBlend mode="normal" in="SourceGraphic" in2="effect1_dropShadow_2003_46" result="shape"/>
</filter>
<clipPath id="clip0_2003_46">
<rect y="0.755859" width="44" height="44" rx="6" fill="white"/>
</clipPath>
</defs>
</svg>
