<svg width="44" height="45" viewBox="0 0 44 45" fill="none" xmlns="http://www.w3.org/2000/svg">
<g clip-path="url(#clip0_2003_460)">
<rect y="0.214844" width="44" height="44" rx="6" fill="#00263C"/>
<g filter="url(#filter0_d_2003_460)">
<path d="M22.875 9.96484C22.875 9.48159 22.4833 9.08984 22 9.08984C21.5167 9.08984 21.125 9.48159 21.125 9.96484V10.8398C21.125 11.3231 21.5167 11.7148 22 11.7148C22.4833 11.7148 22.875 11.3231 22.875 10.8398V9.96484Z" fill="#17AFC8"/>
<path fill-rule="evenodd" clip-rule="evenodd" d="M27.25 22.2148C27.25 19.3154 24.8995 16.9648 22 16.9648C19.1005 16.9648 16.75 19.3154 16.75 22.2148C16.75 25.1143 19.1005 27.4648 22 27.4648C24.8995 27.4648 27.25 25.1143 27.25 22.2148ZM22 18.7148C23.933 18.7148 25.5 20.2818 25.5 22.2148C25.5 24.1479 23.933 25.7148 22 25.7148C20.067 25.7148 18.5 24.1479 18.5 22.2148C18.5 20.2818 20.067 18.7148 22 18.7148Z" fill="#17AFC8"/>
<path fill-rule="evenodd" clip-rule="evenodd" d="M34.866 21.5934L29.966 16.7363C25.5656 12.3744 18.4344 12.3744 14.034 16.7363L9.134 21.5934C8.96824 21.7577 8.875 21.9814 8.875 22.2148C8.875 22.4483 8.96824 22.6719 9.134 22.8363L14.034 27.6934C18.4344 32.0553 25.5656 32.0553 29.966 27.6934L34.866 22.8363C35.0318 22.6719 35.125 22.4483 35.125 22.2148C35.125 21.9814 35.0318 21.7577 34.866 21.5934ZM10.9929 22.2148L15.266 17.9791C18.9842 14.2934 25.0158 14.2934 28.734 17.9791L33.0071 22.2148L28.734 26.4505C25.0158 30.1363 18.9842 30.1363 15.266 26.4505L10.9929 22.2148Z" fill="#17AFC8"/>
<path d="M22 32.7148C22.4833 32.7148 22.875 33.1066 22.875 33.5898V34.4648C22.875 34.9481 22.4833 35.3398 22 35.3398C21.5167 35.3398 21.125 34.9481 21.125 34.4648V33.5898C21.125 33.1066 21.5167 32.7148 22 32.7148Z" fill="#17AFC8"/>
<path d="M28.8828 12.0436C29.1244 11.6251 28.981 11.09 28.5625 10.8483C28.144 10.6067 27.6088 10.7501 27.3672 11.1686L26.9297 11.9264C26.6881 12.3449 26.8315 12.88 27.25 13.1217C27.6685 13.3633 28.2037 13.2199 28.4453 12.8014L28.8828 12.0436Z" fill="#17AFC8"/>
<path d="M16.75 31.3081C17.1685 31.5497 17.3119 32.0848 17.0703 32.5034L16.6328 33.2611C16.3912 33.6796 15.856 33.823 15.4375 33.5814C15.019 33.3398 14.8756 32.8046 15.1172 32.3861L15.5547 31.6284C15.7963 31.2098 16.3315 31.0665 16.75 31.3081Z" fill="#17AFC8"/>
<path d="M33.0462 16.8476C33.4647 16.606 33.6081 16.0709 33.3665 15.6523C33.1249 15.2338 32.5897 15.0905 32.1712 15.3321L31.4135 15.7696C30.995 16.0112 30.8515 16.5463 31.0932 16.9648C31.3348 17.3834 31.87 17.5267 32.2885 17.2851L33.0462 16.8476Z" fill="#17AFC8"/>
<path d="M12.9067 27.4648C13.1484 27.8834 13.005 28.4185 12.5865 28.6601L11.8287 29.0976C11.4102 29.3392 10.8751 29.1959 10.6334 28.7773C10.3918 28.3588 10.5352 27.8237 10.9537 27.582L11.7115 27.1445C12.13 26.903 12.6651 27.0463 12.9067 27.4648Z" fill="#17AFC8"/>
<path d="M16.6328 11.1686C16.3912 10.7501 15.856 10.6067 15.4375 10.8483C15.019 11.09 14.8756 11.6251 15.1172 12.0436L15.5547 12.8014C15.7963 13.2199 16.3315 13.3633 16.75 13.1217C17.1685 12.88 17.3119 12.3449 17.0703 11.9264L16.6328 11.1686Z" fill="#17AFC8"/>
<path d="M27.25 31.3081C27.6685 31.0665 28.2037 31.2098 28.4453 31.6284L28.8828 32.3861C29.1244 32.8046 28.981 33.3398 28.5625 33.5814C28.144 33.823 27.6088 33.6796 27.3672 33.2611L26.9297 32.5034C26.6881 32.0848 26.8315 31.5497 27.25 31.3081Z" fill="#17AFC8"/>
<path d="M11.8288 15.3321C11.4103 15.0905 10.8751 15.2338 10.6335 15.6523C10.3919 16.0709 10.5353 16.606 10.9538 16.8476L11.7115 17.2851C12.13 17.5267 12.6652 17.3834 12.9068 16.9648C13.1485 16.5463 13.005 16.0112 12.5865 15.7696L11.8288 15.3321Z" fill="#17AFC8"/>
<path d="M31.0932 27.4648C31.3349 27.0463 31.87 26.903 32.2885 27.1445L33.0463 27.582C33.4648 27.8237 33.6082 28.3588 33.3666 28.7773C33.1249 29.1959 32.5898 29.3392 32.1713 29.0976L31.4135 28.6601C30.995 28.4185 30.8516 27.8834 31.0932 27.4648Z" fill="#17AFC8"/>
</g>
</g>
<defs>
<filter id="filter0_d_2003_460" x="-11.9647" y="-9.17375" width="67.9294" height="67.9294" filterUnits="userSpaceOnUse" color-interpolation-filters="sRGB">
<feFlood flood-opacity="0" result="BackgroundImageFix"/>
<feColorMatrix in="SourceAlpha" type="matrix" values="0 0 0 0 0 0 0 0 0 0 0 0 0 0 0 0 0 0 127 0" result="hardAlpha"/>
<feOffset dy="2.57609"/>
<feGaussianBlur stdDeviation="9.98234"/>
<feColorMatrix type="matrix" values="0 0 0 0 0.0901961 0 0 0 0 0.686275 0 0 0 0 0.784314 0 0 0 1 0"/>
<feBlend mode="normal" in2="BackgroundImageFix" result="effect1_dropShadow_2003_460"/>
<feBlend mode="normal" in="SourceGraphic" in2="effect1_dropShadow_2003_460" result="shape"/>
</filter>
<clipPath id="clip0_2003_460">
<rect y="0.214844" width="44" height="44" rx="6" fill="white"/>
</clipPath>
</defs>
</svg>
