<svg xmlns="http://www.w3.org/2000/svg" width="44" height="45" viewBox="0 0 44 45" fill="none">
<g clip-path="url(#clip0_2003_241)">
<rect y="0.917969" width="44" height="44" rx="6" fill="#00263C"/>
<g filter="url(#filter0_d_2003_241)">
<path d="M22.875 10.668C22.875 10.1847 22.4833 9.79297 22 9.79297C21.5167 9.79297 21.125 10.1847 21.125 10.668V11.9805C21.125 12.4637 21.5167 12.8555 22 12.8555C22.4833 12.8555 22.875 12.4637 22.875 11.9805V10.668Z" fill="#17AFC8"/>
<path fill-rule="evenodd" clip-rule="evenodd" d="M22 15.918C17.6486 15.918 14.125 19.454 14.125 23.8112C14.125 26.6837 15.6562 29.1974 17.9432 30.5777V31.2305C17.9432 32.197 18.7267 32.9805 19.6932 32.9805H24.3068C25.2733 32.9805 26.0568 32.197 26.0568 31.2305V30.5777C28.3438 29.1974 29.875 26.6837 29.875 23.8112C29.875 19.454 26.3514 15.918 22 15.918ZM15.875 23.8112C15.875 20.4163 18.6194 17.668 22 17.668C25.3806 17.668 28.125 20.4163 28.125 23.8112C28.125 26.1984 26.7677 28.2681 24.7827 29.2855C24.4906 29.4352 24.3068 29.7359 24.3068 30.0642V31.2305H22.875V29.918C22.875 29.4347 22.4833 29.043 22 29.043C21.5167 29.043 21.125 29.4347 21.125 29.918V31.2305H19.6932V30.0642C19.6932 29.7359 19.5094 29.4352 19.2173 29.2855C17.2323 28.2681 15.875 26.1984 15.875 23.8112Z" fill="#17AFC8"/>
<path d="M34.25 23.793C34.7333 23.793 35.125 23.4012 35.125 22.918C35.125 22.4347 34.7333 22.043 34.25 22.043H32.9375C32.4542 22.043 32.0625 22.4347 32.0625 22.918C32.0625 23.4012 32.4542 23.793 32.9375 23.793H34.25Z" fill="#17AFC8"/>
<path d="M11.9375 22.918C11.9375 23.4012 11.5457 23.793 11.0625 23.793H9.75C9.26675 23.793 8.875 23.4012 8.875 22.918C8.875 22.4347 9.26675 22.043 9.75 22.043H11.0625C11.5457 22.043 11.9375 22.4347 11.9375 22.918Z" fill="#17AFC8"/>
<path d="M31.2808 14.8746C31.6225 14.5329 31.6225 13.9789 31.2808 13.6372C30.9391 13.2955 30.385 13.2955 30.0433 13.6372L29.1153 14.5653C28.7735 14.907 28.7735 15.461 29.1153 15.8027C29.457 16.1444 30.011 16.1444 30.3527 15.8027L31.2808 14.8746Z" fill="#17AFC8"/>
<path d="M14.8847 30.0332C15.2264 30.3749 15.2264 30.9289 14.8847 31.2707L13.9567 32.1987C13.615 32.5405 13.0609 32.5405 12.7192 32.1987C12.3775 31.8571 12.3775 31.303 12.7192 30.9613L13.6473 30.0332C13.989 29.6915 14.543 29.6915 14.8847 30.0332Z" fill="#17AFC8"/>
<path d="M30.0433 32.1988C30.385 32.5405 30.939 32.5405 31.2807 32.1988C31.6224 31.8571 31.6224 31.303 31.2807 30.9614L30.3526 30.0333C30.0109 29.6916 29.4569 29.6916 29.1152 30.0333C28.7735 30.375 28.7735 30.929 29.1152 31.2707L30.0433 32.1988Z" fill="#17AFC8"/>
<path d="M14.8847 15.8027C14.543 16.1444 13.989 16.1444 13.6473 15.8027L12.7192 14.8746C12.3775 14.5329 12.3775 13.9789 12.7192 13.6372C13.0609 13.2955 13.6149 13.2955 13.9567 13.6372L14.8847 14.5653C15.2264 14.907 15.2264 15.461 14.8847 15.8027Z" fill="#17AFC8"/>
<path d="M25.0625 36.043C25.5458 36.043 25.9375 35.6512 25.9375 35.168C25.9375 34.6847 25.5458 34.293 25.0625 34.293H18.9375C18.4542 34.293 18.0625 34.6847 18.0625 35.168C18.0625 35.6512 18.4542 36.043 18.9375 36.043H25.0625Z" fill="#17AFC8"/>
</g>
</g>
<defs>
<filter id="filter0_d_2003_241" x="-11.9647" y="-8.47062" width="67.9294" height="67.9294" filterUnits="userSpaceOnUse" color-interpolation-filters="sRGB">
<feFlood flood-opacity="0" result="BackgroundImageFix"/>
<feColorMatrix in="SourceAlpha" type="matrix" values="0 0 0 0 0 0 0 0 0 0 0 0 0 0 0 0 0 0 127 0" result="hardAlpha"/>
<feOffset dy="2.57609"/>
<feGaussianBlur stdDeviation="9.98234"/>
<feColorMatrix type="matrix" values="0 0 0 0 0.0901961 0 0 0 0 0.686275 0 0 0 0 0.784314 0 0 0 1 0"/>
<feBlend mode="normal" in2="BackgroundImageFix" result="effect1_dropShadow_2003_241"/>
<feBlend mode="normal" in="SourceGraphic" in2="effect1_dropShadow_2003_241" result="shape"/>
</filter>
<clipPath id="clip0_2003_241">
<rect y="0.917969" width="44" height="44" rx="6" fill="white"/>
</clipPath>
<clipPath id="clip1_2003_241">
<rect width="28" height="28" fill="white" transform="translate(8 8.91797)"/>
</clipPath>
</defs>
</svg>