<svg width="125" height="32" viewBox="0 0 125 32" fill="none" xmlns="http://www.w3.org/2000/svg">
<g clip-path="url(#clip0_274_2910)">
<path fill-rule="evenodd" clip-rule="evenodd" d="M14.3391 23.636C15.2475 22.6471 15.7026 21.3861 15.7026 19.851C15.7026 18.3174 15.2475 17.0589 14.3391 16.077C13.4295 15.0944 12.3318 14.6029 11.0441 14.6029C9.75583 14.6029 8.65751 15.0944 7.74849 16.077C6.83948 17.0589 6.38497 18.3174 6.38497 19.851C6.38497 21.3861 6.83948 22.6471 7.74849 23.636C8.65751 24.625 9.75583 25.1197 11.0441 25.1197C12.3318 25.1197 13.4295 24.625 14.3391 23.636ZM13.1175 10.6096C14.0578 11.0673 14.7239 11.5109 15.1154 11.9417L15.7025 12.6458V4.04152C15.7025 2.98536 16.5554 2.12891 17.6071 2.12891H19.0248C20.0767 2.12891 20.9296 2.98536 20.9296 4.04152V27.4878C20.9296 28.544 20.0767 29.3998 19.0248 29.3998H17.6071C16.5554 29.3998 15.7025 28.544 15.7025 27.4878V27.0608C15.6522 27.1365 15.5738 27.2357 15.466 27.3553C15.3589 27.4757 15.1313 27.6913 14.7839 28.0012C14.4371 28.3135 14.061 28.5907 13.6575 28.8391C13.2533 29.0856 12.7294 29.3045 12.0855 29.4945C11.4417 29.6853 10.7724 29.7801 10.0769 29.7801C7.61572 29.7801 5.47834 28.8205 3.66732 26.8996C1.85568 24.9786 0.949219 22.6295 0.949219 19.8521C0.949219 17.0773 1.85568 14.728 3.66732 12.8071C5.47834 10.8861 7.61572 9.92598 10.0769 9.92598C11.1638 9.92598 12.1761 10.1545 13.1175 10.6096Z" fill="#17AFC8"/>
<path fill-rule="evenodd" clip-rule="evenodd" d="M32.4998 15.3857C31.7227 16.0322 31.1771 16.876 30.8615 17.9148H39.5922C39.39 16.9003 38.9075 16.0636 38.1432 15.4043C37.3795 14.7456 36.4419 14.4147 35.3307 14.4147C34.2197 14.4147 33.2762 14.7392 32.4998 15.3857ZM30.8619 21.6045C31.0641 22.6433 31.6129 23.5223 32.5092 24.2385C33.4054 24.9548 34.5356 25.3132 35.8998 25.3132C36.8847 25.3132 37.7962 25.1193 38.6357 24.7333C38.8672 24.6264 39.1999 24.4324 39.4172 24.2859C40.2734 23.7072 41.1957 23.7898 41.8345 24.5976C41.8345 24.5976 42.3234 25.1698 42.6153 25.7568C42.9379 26.4046 42.7652 27.2553 42.0723 27.7853C41.714 28.06 41.234 28.3518 40.6539 28.65C40.072 28.9471 39.3178 29.2108 38.3896 29.4387C37.4622 29.6672 36.5054 29.7811 35.5211 29.7811C32.7303 29.7811 30.3507 28.8082 28.3803 26.8623C26.4113 24.9164 25.4258 22.5793 25.4258 19.8531C25.4258 17.1282 26.3985 14.7932 28.3428 12.8473C30.2876 10.8994 32.6169 9.92773 35.3312 9.92773C38.0454 9.92773 40.3059 10.8367 42.1111 12.6564C43.9171 14.475 44.8197 16.7481 44.8197 19.4743L44.7846 19.8615C44.6973 20.8479 43.8743 21.6045 42.8875 21.6045H30.8619Z" fill="#17AFC8"/>
<path fill-rule="evenodd" clip-rule="evenodd" d="M52.6768 29.4018H51.2406C50.1888 29.4018 49.3359 28.5459 49.3359 27.4898V4.04349C49.3359 2.98732 50.1888 2.13086 51.2406 2.13086H52.6768C53.7286 2.13086 54.5815 2.98732 54.5815 4.04349V27.4898C54.5815 28.5459 53.7286 29.4018 52.6768 29.4018Z" fill="#17AFC8"/>
<path fill-rule="evenodd" clip-rule="evenodd" d="M63.928 29.3983H62.2005C61.229 29.3983 60.4412 28.6078 60.4412 27.6322V12.0714C60.4412 11.0953 61.229 10.3047 62.2005 10.3047H63.928C64.899 10.3047 65.6875 11.0953 65.6875 12.0714V27.6322C65.6875 28.6078 64.899 29.3983 63.928 29.3983ZM65.233 6.9783C64.6776 7.51023 63.9197 7.77651 62.9597 7.77651C62.0768 7.77651 61.3725 7.51023 60.8484 6.9783C60.3245 6.4451 60.0625 5.73778 60.0625 4.857C60.0625 3.97622 60.3277 3.26955 60.858 2.73635C61.3884 2.20442 62.089 1.9375 62.9597 1.9375C63.9197 1.9375 64.677 2.20442 65.233 2.73635C65.7888 3.26955 66.0661 3.97622 66.0661 4.857C66.0661 5.73778 65.7888 6.4451 65.233 6.9783Z" fill="#17AFC8"/>
<path fill-rule="evenodd" clip-rule="evenodd" d="M98.5443 29.3983H97.1075C96.0557 29.3983 95.2028 28.5425 95.2028 27.4863V12.2173C95.2028 11.1612 96.0557 10.3047 97.1075 10.3047H98.5443C99.5955 10.3047 100.448 11.1612 100.448 12.2173V27.4863C100.448 28.5425 99.5955 29.3983 98.5443 29.3983ZM99.9946 6.9783C99.4394 7.51023 98.6815 7.77651 97.722 7.77651C96.8386 7.77651 96.1348 7.51023 95.6101 6.9783C95.0862 6.4451 94.8242 5.73778 94.8242 4.857C94.8242 3.97622 95.0894 3.26955 95.6197 2.73635C96.1501 2.20442 96.8513 1.9375 97.722 1.9375C98.6815 1.9375 99.4387 2.20442 99.9946 2.73635C100.551 3.26955 100.828 3.97622 100.828 4.857C100.828 5.73778 100.551 6.4451 99.9946 6.9783Z" fill="#17AFC8"/>
<path fill-rule="evenodd" clip-rule="evenodd" d="M111.33 23.434C112.252 24.4032 113.344 24.8883 114.607 24.8883C115.869 24.8883 116.961 24.4032 117.884 23.434C118.805 22.4636 119.265 21.2647 119.265 19.8405C119.265 18.4137 118.805 17.2122 117.884 16.2354C116.961 15.2599 115.869 14.7721 114.607 14.7721C113.344 14.7721 112.252 15.2599 111.33 16.2354C110.409 17.2122 109.948 18.4137 109.948 19.8405C109.948 21.2647 110.409 22.4636 111.33 23.434ZM121.68 26.7799C119.68 28.7642 117.32 29.7564 114.607 29.7564C111.892 29.7564 109.532 28.7642 107.523 26.7799C105.516 24.7969 104.512 22.4785 104.512 19.8284C104.512 17.1791 105.516 14.8625 107.523 12.8782C109.532 10.8951 111.892 9.90234 114.607 9.90234C117.32 9.90234 119.68 10.8951 121.68 12.8782C123.681 14.8625 124.681 17.1791 124.681 19.8284C124.681 22.4785 123.681 24.7969 121.68 26.7799Z" fill="#17AFC8"/>
<path fill-rule="evenodd" clip-rule="evenodd" d="M90.9745 1.06512C89.7118 -0.125466 88.0805 -0.614504 86.7616 1.18802C82.8216 6.57321 80.2424 13.5906 78.5481 20.2976C77.2731 17.7578 76.2118 15.0924 75.4073 12.5793C74.752 10.5322 72.8543 10.5898 71.3473 11.3196C69.9513 11.9955 68.8893 13.1964 69.4937 15.086C71.1976 20.409 74.0304 26.3306 77.5121 30.7102C78.7329 32.2451 79.7452 32.1773 81.1597 31.6946C82.4677 31.2479 83.0159 30.4234 83.2275 29.181C84.5032 21.6821 87.438 11.4418 91.8511 5.11313C92.9437 3.54617 92.0589 2.08737 90.9745 1.06512Z" fill="#17AFC8"/>
</g>
<defs>
<clipPath id="clip0_274_2910">
<rect width="123.733" height="32" fill="white" transform="translate(0.949219)"/>
</clipPath>
</defs>
</svg>
