<svg width="172" height="32" viewBox="0 0 172 32" fill="none" xmlns="http://www.w3.org/2000/svg">
<path d="M57.3129 21.5355C58.6163 22.8755 60.3095 23.5454 62.7701 23.5454C67.9715 23.5454 73.2094 19.0627 73.2094 10.8892C73.2094 3.60481 68.3491 0.0722656 63.9761 0.0722656C59.7735 0.0722656 58.1291 2.47196 57.3008 3.65354V1.77763C57.3008 1.32693 56.911 0.522969 56.0339 0.522969C53.7195 0.522969 50.6133 0.522969 50.6133 0.522969V30.7323C50.6133 31.5728 51.3076 31.9992 51.8679 31.9992H57.2886V21.5355H57.3129ZM57.3129 9.20816C57.7027 8.07531 59.0914 5.52944 62.0758 5.52944C63.9395 5.52944 66.4854 6.24813 66.4854 11.0597C66.4854 16.3463 63.4035 18.3319 60.8455 18.3319C58.9087 18.3319 57.7515 17.5157 57.3129 17.1138V9.20816Z" fill="#17AFC8"/>
<path d="M87.4609 5.53129C84.2694 5.53129 82.5397 7.93099 82.5397 11.9386C82.5397 15.9462 84.2329 18.3459 87.4609 18.3459C90.6889 18.3459 92.3821 16.0071 92.3821 11.9386C92.3821 7.87008 90.6524 5.53129 87.4609 5.53129ZM99.0818 11.7802C99.0818 18.7235 94.5382 23.5351 87.5096 23.5351C80.4811 23.5351 75.9375 18.6261 75.9375 11.7802C75.9375 4.93441 80.4567 0.0253906 87.5096 0.0253906C94.5625 0.0253906 99.0818 4.83696 99.0818 11.7802Z" fill="#17AFC8"/>
<path d="M113.394 5.5059C110.203 5.5059 108.473 7.9056 108.473 11.9132C108.473 15.9208 110.166 18.3205 113.394 18.3205C116.622 18.3205 118.315 15.9817 118.315 11.9132C118.327 7.84469 116.598 5.5059 113.394 5.5059ZM125.027 11.7549C125.027 18.6981 120.483 23.5097 113.455 23.5097C106.426 23.5097 101.883 18.6007 101.883 11.7549C101.883 4.90902 106.402 0 113.455 0C120.508 0 125.027 4.81157 125.027 11.7549Z" fill="#17AFC8"/>
<path d="M12.4978 23.4849C20.6226 23.4849 23.6314 17.0898 20.5252 16.834C19.6847 16.7609 18.9538 18.2226 14.4224 18.2226C9.67172 18.2226 7.72273 15.8229 7.43038 13.9836H20.0501C21.6824 13.9836 22.5716 12.534 22.8031 11.6204C23.8019 7.63715 21.7067 0.0117188 12.4978 0.0117188C3.7273 0.0117188 0.621094 6.97936 0.621094 11.998C0.621094 17.0654 4.15364 23.4849 12.4978 23.4849ZM12.6683 5.32272C17.419 5.32272 17.3459 9.73231 16.6881 9.73231H7.40602C7.40602 8.3802 9.19666 5.32272 12.6683 5.32272Z" fill="#17AFC8"/>
<path d="M26.8945 15.7987V0.523438H37.8211C42.3768 0.523438 46.0312 2.83786 46.0312 6.8333C46.0312 9.44007 44.4598 10.7069 43.461 11.2063C44.5816 11.5961 47.0788 12.9483 47.0788 16.2981C47.0788 20.6346 43.4 22.9856 38.5032 22.9856H37.5409H33.6185C29.9398 22.9856 26.8945 21.6334 26.8945 15.7987ZM40.5253 16.2128C40.5253 14.9094 39.7091 13.9837 38.2839 13.9837H33.582V16.1519C33.582 17.1142 34.2763 18.2714 35.6284 18.2714H38.4667C39.4046 18.2836 40.5253 17.4553 40.5253 16.2128ZM39.7579 7.55199C39.7701 6.85766 39.2463 5.469 37.4434 5.49336H33.582V9.73242H37.4434C38.759 9.73242 39.7579 8.92846 39.7579 7.55199Z" fill="#17AFC8"/>
<path d="M157.83 21.8274V5.49244H152.141C151.435 5.49244 150.887 4.93211 150.887 4.31086V0.546875H170.194C170.681 0.546875 171.449 0.912311 171.449 1.80154V5.48026H164.505V22.9968H159.085C158.244 23.009 157.83 22.2781 157.83 21.8274Z" fill="#17AFC8"/>
<path d="M128.293 21.7909V0.546875H141.619C145.298 0.546875 148.343 1.89899 148.343 7.73378V23.009H142.898C142.35 23.009 141.656 22.5827 141.656 21.7787V7.61197C141.644 6.62529 140.888 5.49244 139.524 5.49244H134.944V23.009H129.572C128.683 23.009 128.293 22.2416 128.293 21.7909Z" fill="#17AFC8"/>
</svg>
