<svg width="159" height="28" viewBox="0 0 159 28" fill="none" xmlns="http://www.w3.org/2000/svg">
<path fill-rule="evenodd" clip-rule="evenodd" d="M13.1596 22.9934L15.2005 10.6614L23.7882 10.6698C25.1056 10.6665 26.4568 9.6558 26.705 8.32897L28.0154 1.1135L9.00514 1.1358C5.91034 1.20729 4.77603 3.11922 4.3454 5.41025L0.613281 27.6443L8.75505 27.6416C11.5589 27.5045 12.6269 25.615 13.1596 22.9934ZM24.8473 27.6436L29.0207 2.55713C29.2033 1.60476 29.7035 1.08465 30.5889 1.08595L40.4085 1.08661L38.4633 12.8416L47.6527 3.67805C49.2527 1.87303 51.071 1.09316 53.0544 1.08661H61.0698L57.2446 24.0749C56.7845 26.6598 56.9702 27.6397 54.4268 27.6411L45.5086 27.6436L47.4269 16.0513L38.2944 25.1369C36.9827 26.6815 35.4196 27.6116 33.4898 27.6436H24.8473ZM58.4829 27.6436L62.095 5.91988C62.6456 2.76241 63.4935 1.09251 67.6836 1.08726H93.4423L89.3817 25.5395C89.1425 26.8999 88.5319 27.6162 86.6238 27.6457L77.2985 27.6436L80.1095 10.6553H73.0344L70.2234 27.6436H58.4829ZM138.764 27.9894C163.583 28.6295 164.532 -0.988623 143.629 0.068667C131.831 4.7373 128.198 21.1634 138.764 27.9894ZM143.221 8.11777C146.301 8.40111 147.469 10.4633 147.035 14.2215C146.602 17.9805 144.193 20.211 141.203 20.0405C138.213 19.8707 136.193 17.8644 136.923 13.6232C137.654 9.38228 140.141 7.83442 143.221 8.11777ZM90.7432 27.6286L94.3553 5.90479C94.9058 2.74667 95.7538 1.07742 99.9439 1.07217H125.703L121.642 25.5245C121.403 26.8849 120.792 27.601 118.884 27.6305L109.559 27.6286L112.37 10.6403H105.295L102.484 27.6286H90.7432Z" fill="#17AFC8"/>
<path fill-rule="evenodd" clip-rule="evenodd" d="M142.413 1.32174e-05C122.593 -0.0209778 117.216 24.9671 137.672 27.9265C126.732 19.7437 130.222 5.34619 142.413 1.32174e-05Z" fill="#17AFC8"/>
</svg>
