<svg width="99" height="32" viewBox="0 0 99 32" fill="none" xmlns="http://www.w3.org/2000/svg">
<g clip-path="url(#clip0_274_2903)">
<path d="M48.673 1.11719H42.3421C41.1694 1.11719 40.2188 2.06783 40.2188 3.24051V29.7625C40.2188 30.9353 41.1694 31.8859 42.3421 31.8859H48.673C49.8456 31.8859 50.7963 30.9353 50.7963 29.7625V3.24051C50.7963 2.06783 49.8456 1.11719 48.673 1.11719Z" fill="#17AFC8"/>
<path d="M96.1182 1.11719H89.7873C88.6147 1.11719 87.6641 2.06783 87.6641 3.24051V29.7625C87.6641 30.9353 88.6147 31.8859 89.7873 31.8859H96.1182C97.2909 31.8859 98.2416 30.9353 98.2416 29.7625V3.24051C98.2416 2.06783 97.2909 1.11719 96.1182 1.11719Z" fill="#17AFC8"/>
<path d="M81.2641 23.0278C82.4235 23.0278 83.3614 23.9658 83.3614 25.1251V29.7887C83.3614 30.948 82.4235 31.8859 81.2641 31.8859H57.2952C56.1228 31.8859 55.1719 30.935 55.1719 29.7625C55.1719 29.3458 55.3021 28.9289 55.5366 28.5771L68.0943 9.97524H57.1129C55.9535 9.97524 55.0156 9.03734 55.0156 7.87796V3.21446C55.0156 2.0551 55.9535 1.11719 57.1129 1.11719H81.3031C82.4756 1.11719 83.4265 2.06812 83.4265 3.24051C83.4265 3.67039 83.3093 4.07421 83.0748 4.42593L70.5432 23.0278H81.2641Z" fill="#17AFC8"/>
<path fill-rule="evenodd" clip-rule="evenodd" d="M26.6497 27.6799C23.8933 30.2871 20.1732 31.8859 16.0797 31.8859C7.58312 31.8859 0.695312 24.9981 0.695312 16.5016C0.695312 8.005 7.58312 1.11719 16.0797 1.11719C24.5762 1.11719 31.464 8.005 31.464 16.5016C31.464 20.6107 29.853 24.3435 27.2282 27.103C28.6128 25.5843 29.4572 23.5644 29.4572 21.3473C29.4572 16.6278 25.6313 12.8019 20.9118 12.8019C16.1923 12.8019 12.3664 16.6278 12.3664 21.3473C12.3664 26.0668 16.1923 29.8927 20.9118 29.8927C23.1202 29.8927 25.133 29.0549 26.6497 27.6799Z" fill="#17AFC8"/>
</g>
<defs>
<clipPath id="clip0_274_2903">
<rect width="98.56" height="32" fill="white" transform="translate(0.390625)"/>
</clipPath>
</defs>
</svg>
