<svg width="44" height="44" viewBox="0 0 44 44" fill="none" xmlns="http://www.w3.org/2000/svg">
<g clip-path="url(#clip0_2003_427)">
<rect width="44" height="44" rx="6" fill="#00263C"/>
<g filter="url(#filter0_d_2003_427)">
<path fill-rule="evenodd" clip-rule="evenodd" d="M26.4781 11.4789C28.8089 10.2362 31.625 11.9243 31.625 14.5663V17.2127C33.5938 17.4303 35.125 19.0994 35.125 21.1262C35.125 23.1529 33.5938 24.822 31.625 25.0396V27.6861C31.625 30.328 28.8089 32.0161 26.4781 30.7735L18.1784 26.3488C18.1401 26.3283 18.1015 26.3086 18.0625 26.2897V30.5324C18.0625 31.8613 16.9852 32.9387 15.6562 32.9387C14.3273 32.9387 13.25 31.8613 13.25 30.5324V25.9175C10.7974 25.6965 8.875 23.636 8.875 21.1262C8.875 18.4689 11.03 16.3152 13.6875 16.3152H16.5312C17.1058 16.3152 17.6715 16.1739 18.1784 15.9036L26.4781 11.4789ZM15 25.9371V30.5324C15 30.8949 15.2938 31.1887 15.6562 31.1887C16.0187 31.1887 16.3125 30.8949 16.3125 30.5324V25.9371H15ZM18.0625 24.4153C18.3862 24.514 18.7009 24.6441 19.0017 24.8045L27.3014 29.2292C28.4676 29.8509 29.875 29.0059 29.875 27.6861V14.5663C29.875 13.2465 28.4676 12.4014 27.3014 13.0231L19.0017 17.4479C18.7009 17.6082 18.3862 17.7383 18.0625 17.837V24.4153ZM16.3125 18.0652V24.1871H13.6875C11.9958 24.1871 10.625 22.8164 10.625 21.1262C10.625 19.436 11.9958 18.0652 13.6875 18.0652H16.3125ZM31.625 23.2699C32.6235 23.0672 33.375 22.1845 33.375 21.1262C33.375 20.0679 32.6235 19.1851 31.625 18.9824V23.2699Z" fill="#17AFC8"/>
</g>
</g>
<defs>
<filter id="filter0_d_2003_427" x="-11.9647" y="-9.38859" width="67.9294" height="67.9294" filterUnits="userSpaceOnUse" color-interpolation-filters="sRGB">
<feFlood flood-opacity="0" result="BackgroundImageFix"/>
<feColorMatrix in="SourceAlpha" type="matrix" values="0 0 0 0 0 0 0 0 0 0 0 0 0 0 0 0 0 0 127 0" result="hardAlpha"/>
<feOffset dy="2.57609"/>
<feGaussianBlur stdDeviation="9.98234"/>
<feColorMatrix type="matrix" values="0 0 0 0 0.0901961 0 0 0 0 0.686275 0 0 0 0 0.784314 0 0 0 1 0"/>
<feBlend mode="normal" in2="BackgroundImageFix" result="effect1_dropShadow_2003_427"/>
<feBlend mode="normal" in="SourceGraphic" in2="effect1_dropShadow_2003_427" result="shape"/>
</filter>
<clipPath id="clip0_2003_427">
<rect width="44" height="44" rx="6" fill="white"/>
</clipPath>
</defs>
</svg>
