<svg width="56" height="346" viewBox="0 0 56 346" fill="none" xmlns="http://www.w3.org/2000/svg">
<path d="M55.258 324.616C55.258 331.029 53.6793 336.111 50.522 339.86C47.3153 343.609 42.9 345.484 37.276 345.484L37.276 330.758C39.052 330.758 40.4087 330.191 41.346 329.056C42.2833 327.872 42.752 326.417 42.752 324.69C42.752 323.111 42.3573 321.755 41.568 320.62C40.7787 319.436 39.718 318.844 38.386 318.844C37.942 318.844 37.572 318.893 37.276 318.992C36.9307 319.091 36.61 319.288 36.314 319.584C36.018 319.831 35.7713 320.077 35.574 320.324C35.3273 320.571 35.1053 320.965 34.908 321.508C34.6613 322.001 34.4887 322.421 34.39 322.766C34.242 323.111 34.0693 323.654 33.872 324.394C33.6747 325.085 33.5267 325.627 33.428 326.022C33.3293 326.367 33.1813 326.959 32.984 327.798C32.5893 329.278 32.2933 330.388 32.096 331.128C31.8987 331.868 31.5533 332.953 31.06 334.384C30.5667 335.815 30.098 336.925 29.654 337.714C29.1607 338.503 28.4947 339.416 27.656 340.452C26.8173 341.488 25.9293 342.277 24.992 342.82C24.0547 343.363 22.8953 343.831 21.514 344.226C20.1327 344.621 18.628 344.818 17 344.818C11.968 344.818 8.046 343.091 5.234 339.638C2.37266 336.135 0.941999 331.301 0.941998 325.134C0.941998 318.967 2.44666 314.182 5.456 310.778C8.46533 307.325 12.6093 305.598 17.888 305.598L17.888 319.88C16.3093 319.88 15.1253 320.398 14.336 321.434C13.4973 322.47 13.078 323.753 13.078 325.282C13.078 326.663 13.374 327.847 13.966 328.834C14.558 329.821 15.446 330.314 16.63 330.314C17.074 330.314 17.4933 330.215 17.888 330.018C18.2827 329.821 18.6527 329.5 18.998 329.056C19.294 328.612 19.5653 328.193 19.812 327.798C20.0093 327.354 20.256 326.737 20.552 325.948C20.7987 325.109 20.996 324.443 21.144 323.95C21.292 323.407 21.4893 322.593 21.736 321.508C22.1307 320.028 22.4513 318.893 22.698 318.104C22.8953 317.315 23.2653 316.205 23.808 314.774C24.3013 313.294 24.7947 312.159 25.288 311.37C25.7813 310.531 26.4473 309.569 27.286 308.484C28.1247 307.399 29.0373 306.585 30.024 306.042C31.0107 305.45 32.1947 304.957 33.576 304.562C34.9573 304.118 36.462 303.896 38.09 303.896C43.566 303.896 47.8087 305.795 50.818 309.594C53.778 313.393 55.258 318.4 55.258 324.616ZM41.642 282.221L41.642 262.685L54 262.685L54 296.429L2.19999 296.429L2.19999 263.277L14.558 263.277L14.558 282.221L22.18 282.221L22.18 265.201L33.872 265.201L33.872 282.221L41.642 282.221ZM54 226.619L38.164 235.055L38.164 240.161L54 240.161L54 254.443L2.19999 254.443L2.19999 232.021C2.19999 228.321 2.96466 225.015 4.49399 222.105C6.02333 219.194 8.19399 216.925 11.006 215.297C13.818 213.619 17 212.781 20.552 212.781C22.624 212.781 24.5973 213.101 26.472 213.743C28.2973 214.384 29.95 215.321 31.43 216.555C32.91 217.788 34.1433 219.268 35.13 220.995L54 210.709L54 226.619ZM14.854 240.161L26.102 240.161L26.102 233.649C26.102 231.725 25.584 230.195 24.548 229.061C23.512 227.926 22.1553 227.359 20.478 227.359C19.3927 227.359 18.4307 227.605 17.592 228.099C16.7533 228.592 16.0873 229.332 15.594 230.319C15.1007 231.256 14.854 232.366 14.854 233.649L14.854 240.161ZM2.19999 174.487L2.19999 158.281L54 178.113L54 191.359L2.19999 211.635L2.19999 195.355L34.39 184.773L2.19999 174.487ZM54 153.054L2.19999 153.054L2.19999 138.624L54 138.624L54 153.054ZM55.258 110.204C55.258 116.617 53.6793 121.699 50.522 125.448C47.3153 129.197 42.9 131.072 37.276 131.072L37.276 116.346C39.052 116.346 40.4087 115.779 41.346 114.644C42.2833 113.46 42.752 112.005 42.752 110.278C42.752 108.699 42.3573 107.343 41.568 106.208C40.7787 105.024 39.718 104.432 38.386 104.432C37.942 104.432 37.572 104.481 37.276 104.58C36.9307 104.679 36.61 104.876 36.314 105.172C36.018 105.419 35.7713 105.665 35.574 105.912C35.3273 106.159 35.1053 106.553 34.908 107.096C34.6613 107.589 34.4887 108.009 34.39 108.354C34.242 108.699 34.0693 109.242 33.872 109.982C33.6747 110.673 33.5267 111.215 33.428 111.61C33.3293 111.955 33.1813 112.547 32.984 113.386C32.5893 114.866 32.2933 115.976 32.096 116.716C31.8987 117.456 31.5533 118.541 31.06 119.972C30.5667 121.403 30.098 122.513 29.654 123.302C29.1607 124.091 28.4947 125.004 27.656 126.04C26.8173 127.076 25.9293 127.865 24.992 128.408C24.0547 128.951 22.8953 129.419 21.514 129.814C20.1327 130.209 18.628 130.406 17 130.406C11.968 130.406 8.04599 128.679 5.23399 125.226C2.37266 121.723 0.941989 116.889 0.941989 110.722C0.941989 104.555 2.44665 99.7699 5.45599 96.3659C8.46532 92.9126 12.6093 91.1859 17.888 91.1859L17.888 105.468C16.3093 105.468 15.1253 105.986 14.336 107.022C13.4973 108.058 13.078 109.341 13.078 110.87C13.078 112.251 13.374 113.435 13.966 114.422C14.558 115.409 15.446 115.902 16.63 115.902C17.074 115.902 17.4933 115.803 17.888 115.606C18.2827 115.409 18.6527 115.088 18.998 114.644C19.294 114.2 19.5653 113.781 19.812 113.386C20.0093 112.942 20.256 112.325 20.552 111.536C20.7987 110.697 20.996 110.031 21.144 109.538C21.292 108.995 21.4893 108.181 21.736 107.096C22.1307 105.616 22.4513 104.481 22.698 103.692C22.8953 102.903 23.2653 101.793 23.808 100.362C24.3013 98.8819 24.7947 97.7472 25.288 96.9579C25.7813 96.1192 26.4473 95.1572 27.286 94.0719C28.1247 92.9866 29.0373 92.1726 30.024 91.6299C31.0107 91.0379 32.1947 90.5446 33.576 90.1499C34.9573 89.7059 36.462 89.4839 38.09 89.4839C43.566 89.4839 47.8087 91.3832 50.818 95.1819C53.778 98.9806 55.258 103.988 55.258 110.204ZM41.642 67.8088L41.642 48.2728L54 48.2728L54 82.0168L2.19998 82.0168L2.19998 48.8648L14.558 48.8648L14.558 67.8088L22.18 67.8088L22.18 50.7888L33.872 50.7888L33.872 67.8088L41.642 67.8088ZM55.258 21.6785C55.258 28.0918 53.6793 33.1732 50.522 36.9225C47.3153 40.6718 42.9 42.5465 37.276 42.5465L37.276 27.8205C39.052 27.8205 40.4087 27.2532 41.346 26.1185C42.2833 24.9345 42.752 23.4792 42.752 21.7525C42.752 20.1738 42.3573 18.8172 41.568 17.6825C40.7787 16.4985 39.718 15.9065 38.386 15.9065C37.942 15.9065 37.572 15.9558 37.276 16.0545C36.9307 16.1532 36.61 16.3505 36.314 16.6465C36.018 16.8932 35.7713 17.1398 35.574 17.3865C35.3273 17.6332 35.1053 18.0278 34.908 18.5705C34.6613 19.0638 34.4887 19.4832 34.39 19.8285C34.242 20.1738 34.0693 20.7165 33.872 21.4565C33.6747 22.1472 33.5267 22.6898 33.428 23.0845C33.3293 23.4298 33.1813 24.0218 32.984 24.8605C32.5893 26.3405 32.2933 27.4505 32.096 28.1905C31.8987 28.9305 31.5533 30.0158 31.06 31.4465C30.5667 32.8772 30.098 33.9872 29.654 34.7765C29.1607 35.5658 28.4947 36.4785 27.656 37.5145C26.8173 38.5505 25.9293 39.3398 24.992 39.8825C24.0547 40.4252 22.8953 40.8938 21.514 41.2885C20.1327 41.6832 18.628 41.8805 17 41.8805C11.968 41.8805 8.04598 40.1538 5.23398 36.7005C2.37265 33.1978 0.941985 28.3632 0.941985 22.1965C0.941985 16.0298 2.44665 11.2445 5.45598 7.8405C8.46532 4.38716 12.6093 2.6605 17.888 2.6605L17.888 16.9425C16.3093 16.9425 15.1253 17.4605 14.336 18.4965C13.4973 19.5325 13.078 20.8152 13.078 22.3445C13.078 23.7258 13.374 24.9098 13.966 25.8965C14.558 26.8832 15.446 27.3765 16.63 27.3765C17.074 27.3765 17.4933 27.2778 17.888 27.0805C18.2827 26.8832 18.6527 26.5625 18.998 26.1185C19.294 25.6745 19.5653 25.2552 19.812 24.8605C20.0093 24.4165 20.256 23.7998 20.552 23.0105C20.7987 22.1718 20.996 21.5058 21.144 21.0125C21.292 20.4698 21.4893 19.6558 21.736 18.5705C22.1307 17.0905 22.4513 15.9558 22.698 15.1665C22.8953 14.3772 23.2653 13.2672 23.808 11.8365C24.3013 10.3565 24.7947 9.22183 25.288 8.4325C25.7813 7.59383 26.4473 6.63183 27.286 5.5465C28.1247 4.46116 29.0373 3.64716 30.024 3.1045C31.0107 2.51249 32.1946 2.01916 33.576 1.6245C34.9573 1.1805 36.462 0.958497 38.09 0.958497C43.566 0.958496 47.8087 2.85783 50.818 6.65649C53.778 10.4552 55.258 15.4625 55.258 21.6785Z" fill="#17AFC8"/>
</svg>
