<svg width="12" height="102" viewBox="0 0 12 102" fill="none" xmlns="http://www.w3.org/2000/svg">
<path d="M0.666667 6C0.666667 8.94552 3.05448 11.3333 6 11.3333C8.94552 11.3333 11.3333 8.94552 11.3333 6C11.3333 3.05448 8.94552 0.666667 6 0.666667C3.05448 0.666667 0.666667 3.05448 0.666667 6ZM0.666667 96.5C0.666667 99.4455 3.05448 101.833 6 101.833C8.94552 101.833 11.3333 99.4455 11.3333 96.5C11.3333 93.5545 8.94552 91.1667 6 91.1667C3.05448 91.1667 0.666667 93.5545 0.666667 96.5ZM5 6V96.5H7V6H5Z" fill="#17AFC8"/>
</svg>
