<svg width="73" height="32" viewBox="0 0 73 32" fill="none" xmlns="http://www.w3.org/2000/svg">
<path d="M45.7056 26.1893V16.118H42.4961V13.7754H51.7927V16.118H48.5647V26.1893H45.7056Z" fill="#17AFC8"/>
<path d="M58.8939 23.9205C59.1337 23.8283 59.3182 23.6622 59.4288 23.4409C59.5211 23.2011 59.5764 22.8691 59.5764 22.4264C59.5764 21.9837 59.521 21.6517 59.4288 21.4303C59.3182 21.209 59.1337 21.0429 58.8755 20.9507C58.6357 20.8585 58.2483 20.8216 57.7687 20.8216H56.2747V24.0496H57.7687C58.2668 24.0496 58.6357 24.0127 58.8939 23.9205ZM58.6172 18.7004C58.8201 18.6081 58.9677 18.4606 59.0599 18.2577C59.1337 18.0548 59.1891 17.7596 59.1891 17.3354C59.1891 16.9296 59.1338 16.6344 59.0599 16.4315C58.9677 16.2286 58.8201 16.0811 58.6172 15.9889C58.3959 15.915 58.1008 15.8597 57.6765 15.8597H56.2747V18.8295H57.6581C58.0823 18.8295 58.3959 18.7741 58.6172 18.7004ZM57.9716 13.7754C60.554 13.7754 61.8452 14.8821 61.8452 17.0956C61.8452 17.8887 61.6792 18.4975 61.3103 18.9586C60.9414 19.4013 60.4249 19.6411 59.7609 19.6964C60.5909 19.7333 61.255 20.01 61.7161 20.508C62.1588 21.0061 62.3986 21.707 62.3986 22.6108C62.3986 24.9903 60.9414 26.1893 58.0454 26.1893H53.5078V13.7754H57.9716Z" fill="#17AFC8"/>
<path d="M65.2562 24.7863C64.3155 23.7165 63.8359 22.1302 63.8359 19.9905C63.8359 15.7295 65.7358 13.5898 69.5172 13.5898C70.4764 13.5898 71.3433 13.7374 72.1365 14.0141L71.6015 16.2829C71.0666 16.0062 70.421 15.8587 69.6832 15.8587C68.8716 15.8587 68.2629 15.9878 67.8571 16.2091C67.4328 16.4489 67.1377 16.8547 66.9717 17.445C66.8057 18.0168 66.7135 18.8653 66.7135 19.9905C66.7135 21.1157 66.8057 21.9457 66.9717 22.5175C67.1377 23.0893 67.4144 23.4951 67.8386 23.7165C68.2444 23.9563 68.8531 24.0669 69.6279 24.0669C70.5132 24.0669 71.2511 23.8825 71.8598 23.532L72.3763 25.8746C71.5462 26.2066 70.587 26.3542 69.5172 26.3542C67.6173 26.3542 66.197 25.8377 65.2562 24.7863Z" fill="#17AFC8"/>
<path d="M16.5803 17.7231C16.7279 19.2172 16.8017 20.0104 15.5843 21.3015C14.3115 22.6481 11.1204 25.1198 7.85555 27.0012C6.47212 27.7944 4.60912 28.7536 3.20726 29.27C2.15586 29.6389 1.28891 29.805 0.846213 29.0487C0.569533 28.5507 0.698653 28.108 0.846213 27.7206C1.98984 24.6402 5.25471 18.8852 7.39441 15.1407C7.61575 14.7718 7.83711 14.366 8.05845 13.9786C11.3418 8.31582 15.6949 1.38028 16.5619 0.255102C16.6725 0.107535 16.9123 -0.076913 17.1152 0.0337607C17.2813 0.125988 17.2813 0.328888 17.2628 0.476456C17.2628 0.494887 17.2074 0.697801 17.189 0.790028C15.7687 6.50817 15.9347 12.1156 16.5803 17.7231Z" fill="#17AFC8"/>
<path d="M21.3777 19.4738C19.9943 18.8466 19.2749 18.5146 18.7769 16.8176C18.2419 15.0468 17.707 11.0442 17.707 7.28125C17.707 5.69493 17.7993 3.59213 18.0575 2.11648C18.2604 1.02819 18.5555 0.179688 19.4409 0.179688C19.9943 0.179688 20.3079 0.530149 20.5845 0.86217C22.6873 3.37077 26.026 9.08892 28.2026 12.7965C28.4239 13.1838 28.6453 13.5712 28.8666 13.977C32.1315 19.6582 35.9682 26.8889 36.5031 28.1801C36.5769 28.3646 36.6322 28.6597 36.4293 28.7888C36.2448 28.8811 36.0788 28.7704 35.9682 28.6966C35.9497 28.6782 35.8022 28.5306 35.7284 28.4753C31.4859 24.3803 26.5425 21.7057 21.3777 19.4738Z" fill="#17AFC8"/>
<path d="M17.4479 22.7574C18.6837 21.872 19.3293 21.4109 21.0632 21.8167C22.8524 22.2594 26.5784 23.7904 29.8618 25.6718C31.2267 26.465 32.9975 27.5902 34.1411 28.5493C34.9897 29.2687 35.5615 29.9512 35.1372 30.7075C34.8421 31.2055 34.3994 31.2977 33.9751 31.3715C30.7472 31.9249 24.1252 31.9618 19.8274 31.9987C19.3847 31.9987 18.9235 31.9987 18.4624 31.9987C11.9142 31.9802 3.74279 31.6851 2.34092 31.5006C2.13802 31.4638 1.86134 31.3715 1.87978 31.1317C1.87978 30.9288 2.0458 30.8366 2.17491 30.7813C2.21177 30.7628 2.39626 30.7074 2.48849 30.689C8.15129 29.0474 12.9287 26.1145 17.4479 22.7574Z" fill="#17AFC8"/>
</svg>
