<svg width="114" height="32" viewBox="0 0 114 32" fill="none" xmlns="http://www.w3.org/2000/svg">
<g clip-path="url(#clip0_274_2822)">
<path fill-rule="evenodd" clip-rule="evenodd" d="M90.1871 4.35601H113.292V6.68988H113.163L101.96 13.9768H113.292V16.6996H90.1871V14.1064L101.856 6.68988H90.1871V4.35601ZM68.3783 4.35601H88.0607V6.68988H76.2357V9.30901H87.7495V11.6429H76.2357V14.3657H88.1644V16.6996H66.5372V4.35601H68.3524H68.3783ZM42.3945 4.35601H64.8516V6.87141H58.3945V16.7255H48.696V6.84548H42.4205V4.33008L42.3945 4.35601Z" fill="#17AFC8"/>
<path fill-rule="evenodd" clip-rule="evenodd" d="M42.3945 18.9297H113.318V27.6428H42.3945V18.9297ZM101.623 26.0091H98.3556V20.9264H101.597V21.4451C102.479 20.8487 103.023 20.7709 103.464 20.7709H106.239V21.8341H103.49C102.842 21.8341 101.623 22.3268 101.623 23.0269V26.0091ZM91.354 26.0091H87.2308C85.649 26.0091 84.508 25.8276 83.756 25.4905C83.0039 25.1533 82.6409 24.6606 82.6409 23.9864V20.9005H85.9342V23.7012C85.9342 24.5569 86.6085 24.7384 88.1644 24.8681H90.7057C91.2503 24.8681 92.9618 24.7125 92.9618 23.7012V20.9005H96.2551V25.9832H92.9618V25.2571C92.2357 25.8016 91.8726 25.9832 91.354 25.9832V26.0091ZM67.2114 22.8973C67.2114 22.2749 67.5485 21.8081 68.2487 21.471C69.0266 21.082 70.2195 20.9005 71.8013 20.9005H76.0023C77.636 20.9005 78.8289 21.108 79.5809 21.4969C80.2551 21.8341 80.5663 22.3008 80.5663 22.8973V24.0123C80.5663 24.6088 80.2292 25.0756 79.555 25.4127C78.777 25.8276 77.5582 26.0091 75.9764 26.0091H71.7754C70.2454 26.0091 69.0785 25.8535 68.3265 25.4905C67.5744 25.1533 67.1855 24.6606 67.1855 23.9864V22.8713L67.2114 22.8973ZM57.6944 24.1679V21.8859H64.9553V20.9005H57.824V19.9151H54.6603V20.9005H49.6036V21.9637H54.5825V24.2717C54.5825 25.672 56.6312 26.035 57.5906 26.061H61.4545C63.3735 26.061 65.448 25.672 65.3443 23.9864H62.2584V24.0383C62.0509 24.8162 61.636 25.0756 61.0655 25.0756H59.0428C58.0833 25.0756 57.7203 24.4532 57.7203 24.1939L57.6944 24.1679ZM70.4788 23.8568C70.4788 24.6347 71.179 25.0237 72.5793 25.0237H75.2243C75.8726 25.0237 76.3913 24.92 76.7543 24.7384C77.1174 24.5569 77.2989 24.2457 77.2989 23.8568V22.9491C77.2989 22.5861 77.1174 22.3008 76.7543 22.0934C76.3913 21.8859 75.8726 21.8081 75.1984 21.8081H72.5534C71.8532 21.8081 71.3346 21.9119 70.9715 22.0934C70.6344 22.2749 70.4529 22.5602 70.4529 22.9491V23.8568H70.4788Z" fill="#17AFC8"/>
<path fill-rule="evenodd" clip-rule="evenodd" d="M5.05267 6.76816C7.17909 3.5526 20.8971 1.24466 21.5972 2.48939C22.064 3.5526 20.7156 4.40836 20.0673 6.01614C19.6264 6.94969 19.5227 7.90917 21.0267 7.77951C21.8566 7.77951 24.2164 6.82003 25.8501 6.17173C27.1207 5.70495 29.3509 4.48615 30.6993 4.30463C33.2147 3.94158 35.3152 5.34191 34.5632 8.68712C34.2261 10.1912 35.6523 11.0988 35.6783 13.0956C35.7561 13.5883 35.7301 15.611 34.641 15.196C32.722 14.4181 29.4287 11.5396 28.2099 10.7098C25.124 8.11662 22.3493 12.8622 21.0527 14.2884C19.8857 15.6628 19.4708 17.2965 14.8031 12.8362C12.5729 10.7876 11.6653 12.7066 10.8355 13.3549C9.72042 14.3144 6.91977 17.0372 6.19368 17.4003C4.5081 18.8784 5.02674 16.1815 5.18233 15.4554C5.38979 14.3144 6.11588 12.3954 6.24554 11.41C6.66045 9.64661 4.40437 7.88323 5.10454 6.76816H5.05267Z" fill="#17AFC8"/>
<path fill-rule="evenodd" clip-rule="evenodd" d="M2.89849 21.886C5.10271 19.0335 10.2372 15.818 11.7413 14.3917C13.6862 12.5246 14.2567 13.5359 15.7867 14.8325C16.9795 15.7402 17.4982 16.7774 19.2615 17.711C21.1286 18.7483 21.2842 17.1664 22.114 15.8698C23.0217 13.8731 23.6181 12.1356 24.5517 11.4873C25.0962 11.1761 25.8742 10.1907 28.2081 12.1616C30.7494 14.1065 34.9244 16.8552 35.9358 18.4112C36.1432 18.8001 38.9179 20.771 35.2097 21.4452C32.3312 22.1454 24.811 24.4792 20.7137 24.5311C17.8871 24.6089 17.1611 25.1794 17.5241 21.9898C17.7056 20.1486 15.3199 20.2783 12.0784 21.0821C12.0784 21.0821 7.59217 22.2491 5.69914 23.027C3.18374 23.6494 2.25019 22.8455 2.89849 21.8342V21.886Z" fill="#17AFC8"/>
<path fill-rule="evenodd" clip-rule="evenodd" d="M4.7933 26.3995C3.96348 24.3768 4.55992 24.6102 5.83058 24.1434C8.06073 23.6507 12.3395 21.9652 13.688 22.1467C14.3622 22.2504 15.5291 21.6021 15.2179 23.5211C15.0883 24.6362 14.7512 25.6216 16.6961 25.3363C23.4643 25.2845 31.192 23.8582 32.1774 23.5211C33.1888 23.158 35.3671 22.3801 35.1337 24.688C34.8743 27.6702 33.2666 29.7188 32.1515 29.9522C25.876 31.3007 21.286 26.6848 14.3103 28.9409C11.3541 29.5114 6.47888 30.7042 4.76737 26.3736L4.7933 26.3995Z" fill="#17AFC8"/>
<path fill-rule="evenodd" clip-rule="evenodd" d="M13.1697 4.82422C14.9849 4.82422 16.7223 6.19861 16.7223 7.49521C16.7223 8.7918 14.8812 10.3996 13.0659 10.3996C11.2507 10.3996 10.1875 8.66214 10.1875 7.39148C10.1875 6.12081 11.3544 4.85015 13.1697 4.85015V4.82422Z" fill="#17AFC8"/>
<path fill-rule="evenodd" clip-rule="evenodd" d="M13.4007 5.21289C14.801 5.21289 15.942 6.25017 15.942 7.54676C15.942 8.84336 14.801 9.88064 13.4007 9.88064C12.0004 9.88064 10.8594 8.81743 10.8594 7.54676C10.8594 6.2761 12.0004 5.21289 13.4007 5.21289Z" fill="#17AFC8"/>
</g>
<defs>
<clipPath id="clip0_274_2822">
<rect width="112.908" height="32" fill="white" transform="translate(0.410156)"/>
</clipPath>
</defs>
</svg>
