<svg width="60" height="51" viewBox="0 0 60 51" fill="none" xmlns="http://www.w3.org/2000/svg">
<path d="M58.036 31.3108L55.8902 30.8933C55.7916 29.6861 55.5508 28.4902 55.1676 27.3395L56.974 26.0759C57.5543 25.6697 57.6966 24.8687 57.3134 24.2707L54.1276 19.442C53.9415 19.1599 53.6459 18.9569 53.3174 18.9005C52.989 18.8328 52.6496 18.9004 52.3759 19.1035L50.5695 20.3671C49.6608 19.5774 48.6755 18.9117 47.6245 18.3702L48.0296 16.1589C48.161 15.4594 47.7121 14.7712 47.0333 14.6471L41.4718 13.5527C41.1434 13.485 40.804 13.5527 40.5303 13.7558C40.2566 13.9476 40.0595 14.2522 40.0048 14.5907L39.5997 16.802C38.4283 16.9035 37.2678 17.1517 36.1512 17.5466L34.925 15.685C34.7389 15.403 34.4433 15.1999 34.1148 15.1435C33.7864 15.0758 33.447 15.1435 33.1733 15.3466L28.4876 18.6297C28.2139 18.8215 28.0169 19.1261 27.9621 19.4646C27.8965 19.803 27.9621 20.1528 28.1592 20.4348L29.3854 22.2964C28.619 23.2328 27.9731 24.2482 27.4476 25.3313L25.3018 24.9138C24.9734 24.8461 24.634 24.9138 24.3603 25.1169C24.0866 25.3087 23.8895 25.6133 23.8348 25.9518L22.7728 31.6831C22.6415 32.3826 23.0903 33.0708 23.7691 33.2062L25.9149 33.6236C26.0134 34.8308 26.2543 36.0267 26.6374 37.1775L24.831 38.4411C24.5574 38.6329 24.3603 38.9262 24.3055 39.2759C24.2399 39.6144 24.3055 39.9642 24.5026 40.2462L27.6884 45.0749C27.8746 45.357 28.1701 45.5601 28.4986 45.6165C28.827 45.6842 29.1664 45.6165 29.4401 45.4134L31.2465 44.1498C32.1552 44.9396 33.1405 45.6052 34.1915 46.1467L33.7864 48.358C33.655 49.0575 34.1039 49.7457 34.7827 49.8811L40.3442 50.9755C40.4208 50.9868 40.4975 50.9981 40.585 50.9981C41.1762 50.9981 41.7017 50.5693 41.8222 49.9375L42.2272 47.7262C43.3986 47.6247 44.5591 47.3765 45.6758 46.9929L46.902 48.8545C47.0881 49.1365 47.3837 49.3396 47.7121 49.396C48.0405 49.4637 48.3799 49.396 48.6536 49.1929L53.3393 45.9098C53.9086 45.5037 54.0619 44.7026 53.6678 44.1047L52.4416 42.2431C53.2079 41.3067 53.8539 40.2913 54.3794 39.2082L56.5252 39.6257C57.2039 39.7611 57.8717 39.2985 57.9922 38.599L59.0541 32.8677C59.1198 32.5292 59.0541 32.1795 58.857 31.8974C58.6709 31.6154 58.3753 31.4123 58.0469 31.3559L58.036 31.3108ZM55.7369 36.8052L53.8539 36.4328C53.2627 36.32 52.6824 36.6472 52.4525 37.2113C51.8504 38.6893 50.9965 40.0318 49.9126 41.1939C49.4966 41.6339 49.4419 42.3108 49.7813 42.8185L50.8542 44.4544L48.2486 46.2709L47.1757 44.6349C46.8363 44.1273 46.2013 43.9355 45.6539 44.1611C44.1978 44.7816 42.6761 45.1088 41.1215 45.1314C40.5303 45.1426 40.0158 45.5826 39.9063 46.1919L39.545 48.1324L36.4577 47.5232L36.819 45.5826C36.9285 44.9734 36.6219 44.3755 36.0636 44.1385C34.6294 43.518 33.3266 42.638 32.199 41.5098C31.772 41.0811 31.1042 41.0247 30.6115 41.3744L29.0241 42.4801L27.2615 39.7949L28.8489 38.6893C29.3416 38.3395 29.5277 37.6964 29.3087 37.1211C28.7066 35.6205 28.3891 34.0523 28.3672 32.4503C28.3672 31.841 27.9293 31.3108 27.3491 31.198L25.466 30.8256L26.0572 27.6441L27.9402 28.0164C28.5205 28.1292 29.1117 27.8133 29.3416 27.2379C29.9437 25.76 30.7976 24.4174 31.8924 23.2553C32.3084 22.8153 32.3632 22.1271 32.0238 21.6194L30.9509 19.9835L33.5456 18.1671L34.6184 19.803C34.9578 20.3107 35.5928 20.5025 36.1402 20.2769C37.5853 19.6564 39.118 19.3292 40.6726 19.3066C41.2638 19.3066 41.7784 18.8553 41.8878 18.2574L42.2491 16.3168L45.3364 16.9261L44.9751 18.8666C44.8657 19.4758 45.1722 20.0738 45.7305 20.3107C47.1647 20.9312 48.4675 21.8112 49.5951 22.9282C50.0221 23.3569 50.679 23.4133 51.1826 23.0635L52.77 21.9579L54.5436 24.643L52.9561 25.7487C52.4635 26.0984 52.2774 26.7528 52.4963 27.3169C53.0985 28.8174 53.416 30.3856 53.4379 31.9877C53.4379 32.6082 53.8758 33.1272 54.456 33.24L56.339 33.6123L55.7478 36.7939L55.7369 36.8052Z" fill="#17AFC8"/>
<path d="M42.5966 23.0805C40.2209 22.618 37.8124 23.1257 35.8198 24.5247C33.8164 25.9236 32.4698 28.0447 32.0209 30.4929C31.5721 32.9411 32.0647 35.4232 33.4223 37.4765C34.7798 39.5299 36.838 40.9288 39.2137 41.3914C39.783 41.5042 40.3523 41.5606 40.9106 41.5606C45.1693 41.5606 48.9682 38.4468 49.7893 33.9903C50.7199 28.936 47.5012 24.0508 42.5966 23.0805ZM47.3151 33.5052C46.9867 35.2765 46.0123 36.7996 44.5672 37.815C43.1221 38.8191 41.3814 39.1914 39.6735 38.8642C37.9656 38.5258 36.4767 37.5216 35.4914 36.0324C34.5061 34.5432 34.1558 32.7606 34.4732 30.9893C34.8017 29.2293 35.776 27.6949 37.2212 26.6908C38.316 25.9236 39.5859 25.5288 40.8778 25.5288C41.2938 25.5288 41.6988 25.5739 42.1149 25.6529C45.651 26.3524 47.9829 29.8837 47.3042 33.5278L47.3151 33.5052Z" fill="#17AFC8"/>
<path d="M12.1655 25.621L12.3954 27.2907C12.4282 27.5502 12.5596 27.7758 12.7676 27.9338C12.9318 28.0579 13.1289 28.1256 13.3369 28.1256C13.3807 28.1256 13.4245 28.1256 13.4683 28.1143L17.6832 27.4938C18.1977 27.4148 18.559 26.9297 18.4824 26.3881L18.2525 24.7071C19.0626 24.3348 19.829 23.8722 20.5296 23.3081L21.8434 24.3235C22.2594 24.6507 22.8506 24.5604 23.1681 24.1317L25.7189 20.623C26.0364 20.1943 25.9488 19.585 25.5328 19.2579L24.2191 18.2425C24.5366 17.385 24.7555 16.505 24.8759 15.5912L26.4962 15.3542C26.748 15.3204 26.967 15.185 27.1203 14.9706C27.2735 14.7676 27.3392 14.5081 27.2954 14.2486L26.6933 9.90498C26.6167 9.37472 26.1459 9.00241 25.6204 9.08139L24.0001 9.31831C23.6388 8.48344 23.19 7.69369 22.6426 6.97163L23.6279 5.61778C23.7812 5.4147 23.8468 5.15521 23.8031 4.89572C23.7702 4.63624 23.6388 4.41059 23.4308 4.25265L20.026 1.62391C19.829 1.46596 19.5772 1.39827 19.3254 1.4434C19.0736 1.47725 18.8546 1.61263 18.7013 1.82699L17.716 3.18084C16.884 2.85366 16.0301 2.62802 15.1433 2.50392L14.9134 0.834166C14.8367 0.303906 14.366 -0.068404 13.8405 0.0105708L9.62555 0.631087C9.37375 0.664934 9.15479 0.800319 9.00152 1.01468C8.84825 1.21776 8.78257 1.47724 8.82636 1.73673L9.05626 3.40649C8.24612 3.7788 7.47977 4.24136 6.77911 4.80547L5.46536 3.79008C5.2683 3.63213 5.0165 3.56444 4.7647 3.60957C4.51289 3.64341 4.29394 3.79008 4.14067 3.99316L1.58981 7.50189C1.43654 7.70497 1.37085 7.96446 1.41465 8.22395C1.44749 8.48344 1.57886 8.70908 1.78687 8.86703L3.10062 9.88242C2.78313 10.7399 2.56417 11.6199 2.44375 12.5337L0.812513 12.7706C0.560712 12.8045 0.341754 12.9399 0.188484 13.1542C0.0352137 13.3573 -0.0304734 13.6168 0.0133181 13.8763L0.615451 18.2199C0.692086 18.7502 1.17379 19.1225 1.68834 19.0435L3.30863 18.8066C3.66991 19.6414 4.11877 20.4312 4.66616 21.1532L3.68086 22.5071C3.52759 22.7102 3.4619 22.9697 3.50569 23.2292C3.53853 23.4886 3.66991 23.7143 3.87792 23.8722L7.28271 26.501C7.69873 26.8281 8.28991 26.7379 8.6074 26.3092L9.59271 24.9553C10.4247 25.2825 11.2787 25.5194 12.1655 25.6322V25.621ZM8.53077 23.1615L7.66588 24.3461L5.7719 22.8907L6.63678 21.7061C6.91048 21.3338 6.88858 20.8261 6.59299 20.4763C5.81569 19.5625 5.21356 18.5245 4.81944 17.3963C4.66617 16.9676 4.2392 16.6968 3.79033 16.7645L2.36711 16.9789L2.02773 14.5645L3.45095 14.3501C3.88887 14.2824 4.22825 13.9101 4.26109 13.4476C4.33773 12.2404 4.62237 11.0783 5.12598 9.97268C5.31209 9.55524 5.19166 9.05882 4.84133 8.77677L3.6918 7.88549L5.10408 5.93368L6.25361 6.82497C6.61489 7.10702 7.10754 7.08445 7.44693 6.77984C8.3337 5.97881 9.34091 5.35829 10.4357 4.95214C10.8517 4.79419 11.1145 4.35418 11.0488 3.89162L10.8408 2.42494L13.1836 2.0752L13.3916 3.54187C13.4573 4.00444 13.8186 4.3429 14.2675 4.37675C15.4389 4.45572 16.5665 4.74906 17.6394 5.26803C18.0445 5.45983 18.5262 5.33573 18.7999 4.96342L19.6648 3.7788L21.5587 5.23419L20.6939 6.41881C20.4202 6.79112 20.4421 7.29881 20.7376 7.64856C21.5149 8.56241 22.1171 9.60037 22.5112 10.7286C22.6645 11.1686 23.0914 11.4281 23.5403 11.3604L24.9635 11.146L25.3029 13.5604L23.8797 13.7747C23.4308 13.8424 23.1024 14.2148 23.0695 14.6773C22.9929 15.8845 22.7083 17.0466 22.2047 18.1522C22.0185 18.5696 22.139 19.0661 22.4893 19.3481L23.6388 20.2394L22.2266 22.1912L21.077 21.2999C20.7158 21.0179 20.2231 21.0404 19.8837 21.345C18.9969 22.1461 17.9897 22.7666 16.8949 23.1727C16.4789 23.3307 16.2162 23.7707 16.2819 24.2333L16.4899 25.6999L14.147 26.0497L13.939 24.583C13.8733 24.1317 13.512 23.782 13.0632 23.7481C11.8918 23.6692 10.7641 23.3758 9.69124 22.8568C9.55986 22.8004 9.42849 22.7666 9.29712 22.7666C9.00152 22.7666 8.71688 22.902 8.54171 23.1615H8.53077Z" fill="#17AFC8"/>
<path d="M14.6348 21.0094C18.3461 20.4566 20.9298 16.9027 20.4043 13.0781C19.8679 9.25347 16.4193 6.59089 12.708 7.13243C8.99665 7.68525 6.41295 11.2391 6.9494 15.0638C7.43111 18.5499 10.3542 21.0771 13.6714 21.0771C13.9889 21.0771 14.3173 21.0546 14.6458 21.0094H14.6348ZM8.81054 14.793C8.42736 12.0289 10.2885 9.46783 12.9707 9.07295C13.2116 9.03911 13.4415 9.01654 13.6714 9.01654C16.069 9.01654 18.171 10.833 18.5213 13.3602C18.9045 16.1243 17.0433 18.6853 14.3611 19.0802C11.6789 19.4751 9.19372 17.5571 8.81054 14.793Z" fill="#17AFC8"/>
</svg>
