<svg width="50" height="45" viewBox="0 0 50 45" fill="none" xmlns="http://www.w3.org/2000/svg">
<path d="M0.0647553 25.0828C-0.393313 19.1788 1.59165 13.5802 5.61247 9.30492C9.5315 5.08051 15.1301 2.63748 20.9323 2.63748C27.2944 2.63748 33.2493 5.53858 37.2192 10.4246L46.5841 1.11058C47.2967 0.398034 48.4164 0.398034 49.0781 1.11058C49.7906 1.82314 49.7906 2.94286 49.0781 3.60451L22.6628 29.8671C22.3065 30.2234 21.8993 30.3761 21.3904 30.3761C20.9323 30.3761 20.4742 30.1725 20.118 29.8671L11.4656 21.1129C10.753 20.4003 10.753 19.2806 11.4656 18.619C12.1781 17.9573 13.2978 17.9064 13.9595 18.619L21.4413 26.1008L34.6744 12.9695C31.3661 8.74506 26.3273 6.25113 20.9323 6.25113C16.148 6.25113 11.5165 8.28699 8.20819 11.7988C4.89992 15.3616 3.27123 19.9932 3.57661 24.9301C4.18737 33.4807 11.0584 40.4027 19.609 41.0134C28.6177 41.6751 36.7102 35.2112 38.0844 26.3552C38.2371 25.49 38.288 24.5739 38.288 23.6577C38.288 22.6907 39.1023 21.8763 40.0694 21.8763C41.0364 21.8763 41.8508 22.6907 41.8508 23.6577C41.8508 24.7265 41.749 25.7954 41.5963 26.8642C40.0185 37.0435 31.0607 44.5762 20.8305 44.5762C20.3216 44.5762 19.8635 44.5762 19.3545 44.5253C9.07343 43.7109 0.777306 35.3639 0.0647553 25.0828Z" fill="#17AFC8"/>
</svg>
