<svg width="50" height="48" viewBox="0 0 50 48" fill="none" xmlns="http://www.w3.org/2000/svg">
<path d="M38.6362 0.511073C38.4762 0.0910726 38.0062 -0.108927 37.5863 0.0510726C37.1663 0.211073 36.9663 0.681072 37.1263 1.10107L39.4663 7.14107C39.4663 7.14107 39.4863 7.18107 39.4963 7.20107L37.7762 8.92107L35.6663 3.29107C35.5063 2.87107 35.0462 2.66107 34.6263 2.82107C34.2063 2.98107 33.9963 3.44107 34.1562 3.86107L36.4963 10.0911C36.4963 10.0911 36.5263 10.1411 36.5363 10.1711L32.4562 14.2511C29.0262 11.0911 24.4463 9.16107 19.4263 9.16107C8.80625 9.16107 0.15625 17.8011 0.15625 28.4311C0.15625 39.0611 8.79625 47.7011 19.4263 47.7011C30.0563 47.7011 38.6963 39.0611 38.6963 28.4311C38.6963 23.4111 36.7663 18.8311 33.6063 15.4011L37.2363 11.7711C37.3663 11.9511 37.5662 12.0811 37.8063 12.1111L45.3963 12.9411C45.3963 12.9411 45.4563 12.9411 45.4863 12.9411C45.8963 12.9411 46.2463 12.6311 46.2863 12.2211C46.3363 11.7811 46.0163 11.3811 45.5662 11.3311L38.4463 10.5511L40.5363 8.46107C40.5363 8.46107 40.6063 8.48107 40.6362 8.48107L48.2262 9.31107C48.2262 9.31107 48.2863 9.31107 48.3162 9.31107C48.7262 9.31107 49.0762 9.00107 49.1162 8.59107C49.1662 8.15107 48.8463 7.75107 48.3963 7.70107L41.9762 7.00107L45.8763 3.10107C46.1963 2.78107 46.1963 2.27107 45.8763 1.96107C45.5563 1.65107 45.0463 1.65107 44.7363 1.96107L40.7363 5.96107L38.6263 0.521072L38.6362 0.511073ZM37.0763 28.4211C37.0763 38.1611 29.1562 46.0711 19.4263 46.0711C9.69625 46.0711 1.77625 38.1511 1.77625 28.4211C1.77625 18.6911 9.69625 10.7711 19.4263 10.7711C24.0063 10.7711 28.1763 12.5211 31.3162 15.3911L27.5062 19.2111C25.3462 17.3211 22.5263 16.1611 19.4263 16.1611C12.6663 16.1611 7.15625 21.6611 7.15625 28.4311C7.15625 35.2011 12.6562 40.7011 19.4263 40.7011C26.1963 40.7011 31.6963 35.2011 31.6963 28.4311C31.6963 25.3411 30.5463 22.5111 28.6463 20.3511L32.4562 16.5411C35.3262 19.6811 37.0763 23.8511 37.0763 28.4311V28.4211ZM18.8563 28.9911C19.0163 29.1511 19.2262 29.2311 19.4263 29.2311C19.6263 29.2311 19.8363 29.1511 19.9963 28.9911L22.4863 26.5011C22.8363 27.0611 23.0462 27.7111 23.0462 28.4211C23.0462 30.4111 21.4263 32.0411 19.4263 32.0411C17.4263 32.0411 15.8062 30.4211 15.8062 28.4211C15.8062 26.4211 17.4263 24.8011 19.4263 24.8011C20.1362 24.8011 20.7862 25.0111 21.3462 25.3611L18.8563 27.8511C18.5363 28.1711 18.5363 28.6811 18.8563 28.9911ZM22.5062 24.2011C21.6362 23.5711 20.5763 23.1911 19.4263 23.1911C16.5363 23.1911 14.1963 25.5411 14.1963 28.4211C14.1963 31.3011 16.5462 33.6511 19.4263 33.6511C22.3063 33.6511 24.6663 31.3011 24.6663 28.4211C24.6663 27.2711 24.2862 26.2111 23.6562 25.3411L27.5062 21.4911C29.1062 23.3511 30.0863 25.7811 30.0863 28.4211C30.0863 34.2911 25.3063 39.0711 19.4363 39.0711C13.5663 39.0711 8.78625 34.2911 8.78625 28.4211C8.78625 22.5511 13.5663 17.7711 19.4363 17.7711C22.0863 17.7711 24.5062 18.7411 26.3662 20.3411L22.5163 24.1911L22.5062 24.2011Z" fill="#17AFC8"/>
</svg>
