<svg width="73" height="64" viewBox="0 0 73 64" fill="none" xmlns="http://www.w3.org/2000/svg">
<path d="M0.0941896 35.646C-0.572092 27.0584 2.31513 18.915 8.16359 12.6964C13.864 6.55176 22.0074 2.99826 30.447 2.99826C39.7009 2.99826 48.3626 7.21804 54.137 14.325L67.7587 0.777328C68.7952 -0.259109 70.4239 -0.259109 71.3863 0.777328C72.4227 1.81377 72.4227 3.44245 71.3863 4.40486L32.9641 42.605C32.4458 43.1232 31.8536 43.3453 31.1133 43.3453C30.447 43.3453 29.7807 43.0492 29.2625 42.605L16.6772 29.8716C15.6407 28.8352 15.6407 27.2065 16.6772 26.2441C17.7136 25.2817 19.3423 25.2076 20.3047 26.2441L31.1873 37.1267L50.4354 18.0266C45.6234 11.882 38.2943 8.25448 30.447 8.25448C23.4881 8.25448 16.7512 11.2157 11.9392 16.3239C7.12716 21.5061 4.75816 28.2429 5.20235 35.4239C6.09072 47.8612 16.0849 57.9294 28.5222 58.8178C41.6257 59.7802 53.3967 50.3783 55.3955 37.4968C55.6176 36.2383 55.6916 34.9057 55.6916 33.5732C55.6916 32.1666 56.8761 30.9821 58.2827 30.9821C59.6893 30.9821 60.8738 32.1666 60.8738 33.5732C60.8738 35.1278 60.7258 36.6825 60.5037 38.2371C58.2087 53.0434 45.1792 64 30.2989 64C29.5586 64 28.8923 64 28.152 63.926C13.1977 62.7415 1.13063 50.6003 0.0941896 35.646Z" fill="#17AFC8"/>
</svg>
