<svg width="51" height="50" viewBox="0 0 51 50" fill="none" xmlns="http://www.w3.org/2000/svg">
<path d="M0.0419374 40.5384C0.141937 40.8184 0.391937 41.0184 0.681937 41.0384L7.24194 41.5684L7.44194 47.6484C7.44194 47.9384 7.63194 48.1984 7.89194 48.3084C7.98194 48.3484 8.08194 48.3684 8.18194 48.3684C8.36194 48.3684 8.54194 48.2984 8.68194 48.1784L20.8819 37.1784L21.4719 38.7784C21.7619 39.5584 22.3319 40.0284 23.0219 40.0284C23.5319 40.0284 24.0219 39.7584 24.4219 39.2784L26.5919 36.6284C26.7719 36.4084 27.0319 36.2784 27.3119 36.2784C27.4719 36.2784 27.7119 36.3184 27.9419 36.5284L30.4819 38.8284C30.8819 39.1884 31.3219 39.3784 31.7619 39.3784C32.0619 39.3784 32.3919 39.2784 32.6719 39.0584L41.4919 48.8384C41.6319 48.9984 41.8319 49.0884 42.0419 49.0884C42.1219 49.0884 42.1919 49.0784 42.2719 49.0484C42.5519 48.9584 42.7519 48.7184 42.7819 48.4284L43.4819 42.4784L50.0119 41.8784C50.2919 41.8484 50.5319 41.6684 50.6319 41.4084C50.7319 41.1484 50.6819 40.8484 50.4919 40.6384L39.6419 28.6084C39.6419 28.6084 39.6619 28.5584 39.6819 28.5284C39.8119 28.3084 40.0219 28.1584 40.2819 28.0984L43.6119 27.3184C44.3219 27.1484 44.8219 26.7384 44.9919 26.1684C45.1619 25.5984 44.9719 24.9784 44.4619 24.4484L42.0919 21.9784C41.9119 21.7884 41.8219 21.5484 41.8319 21.2884C41.8419 21.0384 41.9619 20.7984 42.1619 20.6284L44.7519 18.3884C45.3019 17.9184 45.5519 17.3084 45.4319 16.7284C45.3219 16.1484 44.8619 15.6884 44.1719 15.4584L40.9219 14.3684C40.6719 14.2884 40.4719 14.1084 40.3719 13.8784C40.2619 13.6484 40.2619 13.3884 40.3619 13.1384L41.6119 9.95844C41.8619 9.32844 41.8319 8.71844 41.5119 8.26844C41.1519 7.74844 40.5419 7.50844 39.7319 7.63844L36.3519 8.18844C35.8119 8.27844 35.3419 7.90844 35.2819 7.36844L34.9119 3.96844C34.7919 2.84844 34.0419 2.34844 33.3519 2.34844C32.9619 2.34844 32.5519 2.49844 32.1719 2.78844L29.4319 4.83844C29.0119 5.15844 28.3919 5.04844 28.1019 4.61844L26.1919 1.77844C25.8119 1.20844 25.2919 0.898438 24.7319 0.898438C24.0919 0.898438 23.5419 1.29844 23.2119 1.99844L21.7419 5.08844C21.5119 5.56844 20.9319 5.75844 20.4619 5.50844L17.4519 3.87844C16.6819 3.45844 15.8719 3.53844 15.3819 4.04844C15.1519 4.28844 14.8819 4.71844 14.9119 5.45844L15.0519 8.87844C15.0519 9.13844 14.9719 9.37844 14.8019 9.55844C14.6219 9.73844 14.3919 9.83844 14.1119 9.83844L10.6519 9.79844C9.94194 9.79844 9.36194 10.0884 9.07194 10.5984C8.78194 11.1084 8.81194 11.7584 9.17194 12.3784L10.8819 15.3484C11.0119 15.5784 11.0419 15.8384 10.9719 16.0784C10.9019 16.3184 10.7319 16.5184 10.4919 16.6384L7.44194 18.1884C6.79194 18.5184 6.41194 19.0484 6.38194 19.6384C6.35194 20.2284 6.69194 20.7884 7.30194 21.1784L10.1919 23.0084C10.4119 23.1484 10.5619 23.3584 10.6119 23.6084C10.6619 23.8584 10.6119 24.1084 10.4519 24.3284L8.47194 27.1184C8.05194 27.7084 7.96194 28.3584 8.21194 28.8884C8.46194 29.4184 9.02194 29.7684 9.74194 29.8184L11.1219 29.9284L0.261937 39.7184C0.0419372 39.9184 -0.0380628 40.2284 0.0519372 40.5084L0.0419374 40.5384ZM39.8519 34.6484C39.9019 34.5984 39.9419 34.5484 39.9819 34.4884C40.1119 34.3984 40.2219 34.2984 40.3219 34.1784C40.6419 33.7584 40.7119 33.1784 40.5319 32.5584L40.2219 31.4984L48.3719 40.5384L42.7119 41.0584C42.3619 41.0884 42.0819 41.3584 42.0419 41.7084L41.4619 46.6284L33.3419 37.6284L33.9719 34.5484C33.9919 34.4384 34.0419 34.3384 34.0919 34.2484C34.2919 34.1384 34.5219 34.1084 34.7519 34.1684L38.0619 35.0284C38.7719 35.2084 39.4119 35.0684 39.8319 34.6484H39.8519ZM9.84194 28.3984C9.61194 28.3784 9.52194 28.3084 9.51194 28.2984C9.51194 28.2984 9.51194 28.2784 9.51194 28.2684C9.51194 28.2184 9.55194 28.1184 9.65194 27.9784L11.6319 25.1884C11.7319 25.0484 11.8119 24.9084 11.8719 24.7584C12.0719 24.3184 12.1219 23.8284 12.0319 23.3384C11.9019 22.6984 11.5219 22.1484 10.9619 21.7884L8.07194 19.9584C7.98194 19.8984 7.92194 19.8384 7.88194 19.7984L7.83194 19.7284C7.83194 19.6984 7.89194 19.6084 8.10194 19.4984L9.67194 18.6984L11.1519 17.9384C11.7419 17.6384 12.1719 17.1184 12.3619 16.4884C12.5419 15.8884 12.4719 15.2584 12.1719 14.6984C12.1619 14.6684 12.1419 14.6484 12.1319 14.6184L10.4219 11.6484C10.3319 11.4984 10.3219 11.3984 10.3119 11.3484C10.3119 11.3284 10.3119 11.3284 10.3119 11.3284C10.3119 11.3284 10.3319 11.3084 10.3419 11.3084C10.3819 11.2884 10.4819 11.2584 10.6519 11.2584H11.5319L14.1019 11.2984C14.7619 11.2984 15.3719 11.0384 15.8219 10.5684C16.0519 10.3284 16.2219 10.0584 16.3319 9.76844C16.3419 9.73844 16.3419 9.70844 16.3519 9.67844C16.4419 9.40844 16.4919 9.11844 16.4819 8.81844L16.3419 5.39844C16.3419 5.16844 16.3919 5.06844 16.4319 5.04844C16.4719 5.04844 16.5719 5.05844 16.7319 5.14844L19.2019 6.48844L19.7419 6.77844C19.7419 6.77844 19.8119 6.80844 19.8519 6.82844C20.1719 6.97844 20.5319 7.06844 20.8819 7.06844C21.5019 7.06844 22.0719 6.82844 22.5019 6.41844C22.7119 6.21844 22.8919 5.97844 23.0319 5.69844L24.5019 2.60844C24.5319 2.54844 24.5619 2.49844 24.5819 2.46844C24.6319 2.39844 24.6719 2.36844 24.6919 2.34844L24.7119 2.33844C24.7119 2.33844 24.7419 2.34844 24.7719 2.36844C24.7819 2.36844 24.8019 2.38844 24.8219 2.39844C24.8619 2.43844 24.9119 2.48844 24.9719 2.57844L26.2719 4.49844L26.8919 5.41844C27.0419 5.63844 27.2219 5.82844 27.4319 5.98844C27.8419 6.29844 28.3419 6.47844 28.8719 6.47844C29.0219 6.47844 29.1819 6.45844 29.3319 6.42844C29.6819 6.35844 30.0219 6.21844 30.3119 5.99844L31.4319 5.15844L33.0519 3.93844C33.2019 3.82844 33.3019 3.79844 33.3419 3.79844H33.3619C33.3819 3.80844 33.4519 3.89844 33.4719 4.12844L33.8419 7.52844C33.9019 8.02844 34.1019 8.47844 34.4119 8.83844C34.5319 8.96844 34.6619 9.08844 34.8019 9.19844C35.2919 9.55844 35.9219 9.73844 36.5919 9.62844L39.9719 9.07844C40.1619 9.04844 40.3019 9.07844 40.3119 9.09844C40.3119 9.09844 40.3119 9.10844 40.3119 9.12844C40.3119 9.17844 40.3119 9.27844 40.2519 9.44844L39.0019 12.6384C38.9719 12.7184 38.9419 12.7884 38.9219 12.8684C38.9219 12.8684 38.9219 12.9084 38.9119 12.9284C38.8019 13.3684 38.8119 13.8184 38.9519 14.2484C38.9819 14.3384 39.0119 14.4384 39.0619 14.5284C39.1119 14.6384 39.1819 14.7384 39.2519 14.8384C39.5419 15.2684 39.9619 15.5984 40.4719 15.7784L42.8919 16.5884L43.7119 16.8684C43.8619 16.9184 43.9319 16.9684 43.9719 17.0084C43.9919 17.0284 44.0019 17.0384 44.0119 17.0484C44.0119 17.0584 43.9919 17.1184 43.9319 17.1884C43.9019 17.2284 43.8619 17.2684 43.8019 17.3284L42.1819 18.7384L41.2119 19.5684C40.7119 20.0084 40.4119 20.6084 40.3819 21.2584C40.3519 21.9184 40.5919 22.5384 41.0519 23.0184L43.4219 25.4884C43.5819 25.6484 43.6019 25.7684 43.6019 25.7784C43.6019 25.7784 43.6019 25.7884 43.5819 25.7984C43.5819 25.7984 43.4619 25.8884 43.2919 25.9284L39.9619 26.7084C39.3119 26.8584 38.7719 27.2584 38.4419 27.8184C38.3719 27.9484 38.3119 28.0784 38.2619 28.2084C38.2619 28.2084 38.2619 28.2084 38.2619 28.2184C38.2119 28.3584 38.1819 28.4884 38.1519 28.6284C37.8419 29.1284 37.7019 29.5284 37.8419 29.9984L38.7919 33.2884L35.5219 32.4384C35.3919 32.4084 35.2519 32.3884 35.1119 32.3684C35.0419 32.3684 34.9719 32.3584 34.9019 32.3584C34.7719 32.3584 34.6519 32.3684 34.5319 32.3884C34.5019 32.3884 34.4819 32.3884 34.4519 32.3984C34.3419 32.4184 34.2419 32.4484 34.1419 32.4784C34.1019 32.4884 34.0619 32.5084 34.0219 32.5284C33.9619 32.5584 33.9019 32.5784 33.8319 32.6084C33.7519 32.6484 33.6719 32.6984 33.6019 32.7484C33.5719 32.7684 33.5519 32.7784 33.5319 32.7984C33.4119 32.8784 33.3119 32.9684 33.2119 33.0784C32.6919 33.4284 32.3419 33.9584 32.2119 34.5784L31.6219 37.4584C31.5919 37.6184 31.6219 37.7684 31.6719 37.9084C31.6719 37.9084 31.6219 37.8784 31.5919 37.8584C31.5919 37.8584 31.5819 37.8584 31.5719 37.8484C31.5419 37.8284 31.5019 37.7984 31.4519 37.7584L28.9119 35.4584C28.7219 35.2884 28.5119 35.1584 28.2819 35.0584C27.9719 34.9184 27.6419 34.8384 27.3019 34.8384C26.8919 34.8384 26.4919 34.9484 26.1419 35.1484C26.0219 35.2184 25.9119 35.2884 25.8019 35.3784C25.6819 35.4784 25.5619 35.5984 25.4519 35.7184L23.2819 38.3684C23.2819 38.3684 23.2219 38.4384 23.2019 38.4584C23.1719 38.4884 23.1419 38.5184 23.1119 38.5284C23.0719 38.5584 23.0419 38.5684 23.0319 38.5684C23.0319 38.5684 23.0219 38.5684 23.0019 38.5484C22.9619 38.5084 22.9019 38.4284 22.8419 38.2784L22.0519 36.1184C22.2519 35.9184 22.3219 35.6184 22.2219 35.3484L22.1719 35.1984C21.9419 34.5684 21.4819 34.0784 20.8819 33.8184C20.6719 33.7284 20.4619 33.6684 20.2419 33.6384C20.1219 33.5984 19.9919 33.5584 19.8619 33.5384C19.7319 33.5184 19.5919 33.4984 19.4519 33.4984C19.2919 33.4984 19.1319 33.5184 18.9719 33.5484C18.8119 33.5784 18.6619 33.6284 18.5119 33.6884L15.4919 34.9784C15.4919 34.9784 15.4919 34.9184 15.4919 34.8884L15.9519 31.4984C16.0419 30.8284 15.8619 30.1784 15.4419 29.6684C15.0519 29.1884 14.5119 28.8984 13.9019 28.8184C13.8219 28.7884 13.7319 28.7584 13.6519 28.7384C13.5319 28.7084 13.4119 28.6784 13.2819 28.6684L12.1319 28.5784L9.87194 28.3984H9.84194ZM12.8419 30.3784L13.5919 30.2884C13.6619 30.3384 13.7219 30.3884 13.7819 30.4584C13.9419 30.6584 14.0119 30.9084 13.9719 31.1684L13.5219 34.5584C13.4419 35.1584 13.5719 35.6884 13.9019 36.0584C14.1319 36.3184 14.4419 36.4784 14.8019 36.5384C15.2519 36.7684 15.8219 36.7684 16.4019 36.5284L19.5519 35.1884C19.6719 35.1384 19.7919 35.1084 19.9219 35.1084C20.0919 35.2184 20.2319 35.3684 20.3019 35.5684L20.3419 35.6784L8.88194 46.0084L8.71194 40.8584C8.70194 40.4784 8.40194 40.1684 8.03194 40.1384L2.53194 39.6884L12.8619 30.3684L12.8419 30.3784Z" fill="#17AFC8"/>
</svg>
