<svg width="47" height="43" viewBox="0 0 47 43" fill="none" xmlns="http://www.w3.org/2000/svg">
<path d="M20.4835 42.0384H20.5188L27.0542 41.9323C28.425 41.9058 29.4862 40.5793 29.4685 38.9078L29.2474 14.0839C29.2474 13.173 28.9025 12.3329 28.3366 11.7758C27.8944 11.3424 27.3372 11.1125 26.7624 11.1213L20.227 11.2363C18.8563 11.254 17.795 12.5894 17.8127 14.2608L18.0338 39.0847C18.0338 39.9956 18.3699 40.8269 18.9447 41.3929C19.378 41.8174 19.9175 42.0473 20.4835 42.0473V42.0384ZM20.2624 13.3145L26.8066 13.1996C26.8862 13.2084 27.1781 13.5091 27.1781 14.1016L27.3991 38.9255C27.3991 39.5446 27.0985 39.8541 27.0277 39.8541L20.4923 39.9602C20.4127 39.9602 20.1209 39.6507 20.1209 39.0582L19.8998 14.2343C19.8998 13.6152 20.2005 13.3057 20.2712 13.3057L20.2624 13.3145Z" fill="#17AFC8"/>
<path d="M37.6786 41.9487H37.7228L44.2582 41.7983C45.6467 41.7629 46.6814 40.1534 46.6637 38.0486L46.4426 4.08052C46.4426 2.79821 46.0269 1.64854 45.3637 0.99412C44.9569 0.596159 44.4793 0.401601 43.9576 0.410445L37.4222 0.560785C36.0337 0.59616 34.999 2.20569 35.0079 4.31046L35.229 38.2786C35.229 39.5521 35.6446 40.7106 36.3079 41.3561C36.7058 41.7453 37.1745 41.9398 37.6786 41.9398V41.9487ZM37.5371 2.63902L43.9222 2.48868C44.0637 2.62134 44.3644 3.16079 44.3732 4.09821L44.5943 38.0663C44.5943 38.9861 44.2936 39.5874 44.1433 39.7289L37.7582 39.8793C37.6167 39.7466 37.316 39.2072 37.3072 38.2697L37.0861 4.30161C37.0861 3.38188 37.3868 2.78052 37.5371 2.63902Z" fill="#17AFC8"/>
<path d="M11.1803 19.8027C10.7381 19.3783 10.181 19.1395 9.60615 19.1572L3.07076 19.2633C1.70001 19.2898 0.638781 20.6164 0.656468 22.2878L0.806809 39.179C0.806809 40.0899 1.15171 40.93 1.7177 41.4872C2.15103 41.9117 2.69049 42.1416 3.25648 42.1416H3.29185L9.83609 42.0355C11.2068 42.0089 12.2681 40.6824 12.2504 39.011L12.1 22.1198C12.1 21.2089 11.764 20.3687 11.1892 19.8116L11.1803 19.8027ZM9.79187 39.9484L3.25648 40.0545C3.17688 40.0545 2.88505 39.7538 2.8762 39.1525L2.72586 22.2613C2.72586 21.6422 3.02654 21.3327 3.10614 21.3327L9.64153 21.2266C9.72996 21.2354 10.013 21.5449 10.013 22.1286L10.1633 39.0198C10.1633 39.6389 9.86262 39.9484 9.79187 39.9484Z" fill="#17AFC8"/>
</svg>
