<svg width="40" height="41" viewBox="0 0 40 41" fill="none" xmlns="http://www.w3.org/2000/svg">
<path d="M20.1521 39.769C9.6421 39.769 1.12109 31.249 1.12109 20.739C1.12109 10.229 9.64109 1.70898 20.1511 1.70898C30.6611 1.70898 39.1811 10.229 39.1811 20.739C39.1821 31.249 30.6621 39.769 20.1521 39.769Z" stroke="white" stroke-width="1.5" stroke-miterlimit="10"/>
<path d="M17.2538 32.2423H21.8857V20.6413H25.1178L25.4628 16.7573H21.8857C21.8857 16.7573 21.8857 15.3073 21.8857 14.5453C21.8857 13.6293 22.0697 13.2673 22.9557 13.2673C23.6677 13.2673 25.4628 13.2673 25.4628 13.2673V9.23633C25.4628 9.23633 22.8198 9.23633 22.2548 9.23633C18.8078 9.23633 17.2538 10.7543 17.2538 13.6603C17.2538 16.1913 17.2538 16.7573 17.2538 16.7573H14.8438V20.6903H17.2538V32.2423Z" fill="white"/>
</svg>
