<svg width="40" height="41" viewBox="0 0 40 41" fill="none" xmlns="http://www.w3.org/2000/svg">
<path d="M20.03 39.769C9.52 39.769 1 31.249 1 20.739C1 10.229 9.52 1.70898 20.03 1.70898C30.54 1.70898 39.061 10.229 39.061 20.739C39.061 31.249 30.54 39.769 20.03 39.769Z" stroke="white" stroke-width="1.5" stroke-miterlimit="10"/>
<path d="M20.0316 12.1847C22.8176 12.1847 23.1476 12.1957 24.2477 12.2457C25.2647 12.2917 25.8176 12.4617 26.1856 12.6047C26.6726 12.7937 27.0207 13.0197 27.3857 13.3847C27.7507 13.7497 27.9767 14.0977 28.1656 14.5847C28.3086 14.9527 28.4787 15.5047 28.5247 16.5227C28.5747 17.6227 28.5856 17.9527 28.5856 20.7387C28.5856 23.5247 28.5747 23.8547 28.5247 24.9547C28.4777 25.9727 28.3086 26.5247 28.1656 26.8927C27.9767 27.3797 27.7507 27.7277 27.3857 28.0927C27.0207 28.4577 26.6726 28.6837 26.1856 28.8737C25.8176 29.0167 25.2656 29.1867 24.2477 29.2327C23.1476 29.2827 22.8176 29.2937 20.0316 29.2937C17.2456 29.2937 16.9156 29.2827 15.8156 29.2327C14.7986 29.1867 14.2456 29.0167 13.8786 28.8737C13.3916 28.6847 13.0436 28.4577 12.6786 28.0927C12.3136 27.7277 12.0877 27.3797 11.8987 26.8927C11.7557 26.5247 11.5856 25.9727 11.5396 24.9547C11.4896 23.8547 11.4786 23.5247 11.4786 20.7387C11.4786 17.9527 11.4896 17.6227 11.5396 16.5227C11.5866 15.5047 11.7567 14.9527 11.8987 14.5847C12.0877 14.0977 12.3136 13.7507 12.6786 13.3847C13.0436 13.0197 13.3916 12.7937 13.8786 12.6047C14.2466 12.4617 14.7986 12.2917 15.8156 12.2457C16.9156 12.1957 17.2456 12.1847 20.0316 12.1847ZM20.0316 10.3047C17.1976 10.3047 16.8426 10.3167 15.7296 10.3677C14.6186 10.4187 13.8607 10.5947 13.1967 10.8527C12.5107 11.1197 11.9286 11.4757 11.3486 12.0567C10.7686 12.6367 10.4117 13.2187 10.1457 13.9047C9.88766 14.5687 9.71064 15.3267 9.66064 16.4377C9.60964 17.5507 9.59766 17.9057 9.59766 20.7397C9.59766 23.5737 9.60964 23.9287 9.66064 25.0417C9.71164 26.1527 9.88766 26.9107 10.1457 27.5747C10.4117 28.2607 10.7686 28.8427 11.3486 29.4227C11.9286 30.0027 12.5107 30.3597 13.1967 30.6267C13.8607 30.8847 14.6186 31.0607 15.7296 31.1117C16.8426 31.1627 17.1976 31.1747 20.0316 31.1747C22.8656 31.1747 23.2206 31.1627 24.3336 31.1117C25.4446 31.0607 26.2026 30.8847 26.8666 30.6267C27.5526 30.3597 28.1347 30.0027 28.7147 29.4227C29.2947 28.8427 29.6516 28.2607 29.9186 27.5747C30.1766 26.9107 30.3527 26.1527 30.4037 25.0417C30.4547 23.9287 30.4666 23.5737 30.4666 20.7397C30.4666 17.9057 30.4547 17.5507 30.4037 16.4377C30.3527 15.3267 30.1766 14.5687 29.9186 13.9047C29.6516 13.2187 29.2947 12.6367 28.7147 12.0567C28.1347 11.4767 27.5526 11.1197 26.8666 10.8527C26.2026 10.5947 25.4446 10.4187 24.3336 10.3677C23.2206 10.3167 22.8656 10.3047 20.0316 10.3047Z" fill="white"/>
<path d="M20.0299 15.3809C17.0709 15.3809 14.6719 17.7799 14.6719 20.7389C14.6719 23.6979 17.0709 26.0969 20.0299 26.0969C22.9889 26.0969 25.3879 23.6979 25.3879 20.7389C25.3879 17.7799 22.9899 15.3809 20.0299 15.3809ZM20.0299 24.2169C18.1089 24.2169 16.5519 22.6599 16.5519 20.7389C16.5519 18.8179 18.1089 17.2609 20.0299 17.2609C21.9509 17.2609 23.5079 18.8179 23.5079 20.7389C23.5079 22.6599 21.9509 24.2169 20.0299 24.2169Z" fill="white"/>
<path d="M26.8556 15.17C26.8556 15.861 26.2946 16.422 25.6036 16.422C24.9116 16.422 24.3516 15.861 24.3516 15.17C24.3516 14.479 24.9126 13.918 25.6036 13.918C26.2956 13.918 26.8556 14.478 26.8556 15.17Z" fill="white"/>
</svg>
