<svg width="40" height="41" viewBox="0 0 40 41" fill="none" xmlns="http://www.w3.org/2000/svg">
<path d="M20.0925 39.769C9.5825 39.769 1.0625 31.249 1.0625 20.739C1.0625 10.229 9.5825 1.70898 20.0925 1.70898C30.6025 1.70898 39.1225 10.229 39.1225 20.739C39.1225 31.249 30.6025 39.769 20.0925 39.769Z" stroke="white" stroke-width="1.5" stroke-miterlimit="10"/>
<path d="M15.4038 16.4961H11.4648V29.2201H15.4038V16.4961Z" fill="white"/>
<path d="M13.4149 14.8308C14.7009 14.8308 15.744 13.7788 15.744 12.4828C15.744 11.1868 14.7019 10.1348 13.4149 10.1348C12.1279 10.1348 11.0859 11.1858 11.0859 12.4828C11.0859 13.7798 12.1279 14.8308 13.4149 14.8308Z" fill="white"/>
<path d="M21.6989 22.5404C21.6989 20.7514 22.5219 19.6864 24.0989 19.6864C25.5469 19.6864 26.2429 20.7094 26.2429 22.5404C26.2429 24.3734 26.2429 29.2194 26.2429 29.2194H30.1629C30.1629 29.2194 30.1629 24.5714 30.1629 21.1634C30.1629 17.7554 28.2309 16.1074 25.5339 16.1074C22.8349 16.1074 21.6999 18.2094 21.6999 18.2094V16.4954H17.9219V29.2194H21.6999C21.6999 29.2194 21.6989 24.5004 21.6989 22.5404Z" fill="white"/>
</svg>
